<svg width="257" height="79" viewBox="0 0 257 79" fill="none" xmlns="http://www.w3.org/2000/svg">
<g clip-path="url(#clip0_62_23)">
<path d="M17.8482 59.5126L19.3367 59.1129C20.2946 58.8579 21.1284 57.4521 20.6598 56.6459C20.4598 56.267 20.1633 55.9477 19.8003 55.7202C19.4373 55.4927 19.0206 55.3651 18.5925 55.3503C17.5657 55.309 16.6354 55.4881 16.0496 56.384C14.9815 58.0103 15.7051 59.4299 17.8482 59.5126Z" fill="#999999"/>
<path d="M240.744 60.2155C239.965 61.7729 240.468 63.1512 241.991 63.2683L243.052 62.9031C243.456 62.6764 243.771 62.321 243.949 61.8937C244.126 61.4664 244.155 60.992 244.031 60.5463C243.936 60.2151 243.748 59.9183 243.489 59.6911C243.23 59.4639 242.911 59.3158 242.57 59.2645C242.203 59.192 241.822 59.2466 241.49 59.4195C241.158 59.5923 240.895 59.8731 240.744 60.2155V60.2155Z" fill="#999999"/>
<path d="M18.6069 13.4517L19.9301 13.0933C20.7846 12.8659 21.5219 11.6117 21.1084 10.9019C20.9283 10.5632 20.6622 10.2778 20.3368 10.0746C20.0114 9.87136 19.6382 9.75742 19.2547 9.74423C18.8294 9.67471 18.3932 9.72416 17.9943 9.88713C17.5954 10.0501 17.2493 10.3202 16.9944 10.6676C16.0572 12.1217 16.6981 13.3828 18.6069 13.4517Z" fill="#999999"/>
<path d="M239.123 14.7744L240.557 15.3464C241.48 15.7185 242.989 15.0845 243.093 14.1611C243.16 13.7345 243.112 13.2978 242.955 12.8957C242.797 12.4937 242.536 12.1407 242.197 11.8732C241.404 11.2323 240.55 10.8189 239.544 11.1841C237.745 11.8594 237.483 13.4306 239.123 14.7744Z" fill="#999999"/>
<path d="M16.0352 57.0731C16.621 56.1773 17.5513 55.9981 18.578 56.0394C19.0059 56.0556 19.422 56.1838 19.7848 56.4111C20.1475 56.6384 20.4443 56.957 20.6454 57.335C20.6798 57.4026 20.7052 57.4744 20.7212 57.5486C20.8243 57.253 20.8069 56.9288 20.673 56.6459C20.473 56.267 20.1765 55.9477 19.8135 55.7202C19.4504 55.4927 19.0338 55.3651 18.6056 55.3503C17.5788 55.309 16.6485 55.4881 16.0628 56.384C15.6952 56.8859 15.537 57.5111 15.6217 58.1275C15.6915 57.753 15.8318 57.3952 16.0352 57.0731V57.0731Z" fill="#CCCCCC"/>
<path d="M240.744 60.9109C240.894 60.5673 241.157 60.285 241.489 60.1108C241.821 59.9367 242.203 59.881 242.571 59.9531C242.912 60.0031 243.233 60.1506 243.493 60.3779C243.753 60.6053 243.943 60.9028 244.038 61.2348C244.056 61.2936 244.07 61.3534 244.08 61.414C244.15 61.1267 244.136 60.8251 244.038 60.5457C243.943 60.2136 243.753 59.9161 243.493 59.6888C243.233 59.4615 242.912 59.314 242.571 59.264C242.204 59.1931 241.825 59.2486 241.495 59.4213C241.164 59.5941 240.902 59.8739 240.751 60.2149C240.467 60.7367 240.354 61.3344 240.427 61.924C240.474 61.5705 240.581 61.2278 240.744 60.9109V60.9109Z" fill="#CCCCCC"/>
<path d="M16.9934 11.3635C17.2483 11.0161 17.5944 10.7459 17.9933 10.583C18.3922 10.42 18.8284 10.3705 19.2537 10.4401C19.6371 10.4533 20.0103 10.5672 20.3357 10.7704C20.6612 10.9737 20.9273 11.259 21.1074 11.5978C21.1299 11.6491 21.1484 11.7021 21.1625 11.7563C21.2566 11.4775 21.2368 11.1729 21.1074 10.9087C20.9273 10.5699 20.6612 10.2845 20.3357 10.0813C20.0103 9.87808 19.6371 9.76413 19.2537 9.75094C18.8284 9.68142 18.3922 9.73088 17.9933 9.89385C17.5944 10.0568 17.2483 10.3269 16.9934 10.6744C16.8273 10.8996 16.7087 11.1562 16.6447 11.4287C16.5808 11.7011 16.5728 11.9837 16.6213 12.2593C16.6858 11.9393 16.8122 11.635 16.9934 11.3635V11.3635Z" fill="#CCCCCC"/>
<path d="M239.572 11.8737C240.579 11.5085 241.433 11.922 242.226 12.5628C242.725 12.9583 243.047 13.5357 243.121 14.1685V14.1685C243.189 13.7419 243.141 13.3052 242.984 12.9031C242.826 12.5011 242.565 12.1481 242.226 11.8806C241.433 11.2397 240.579 10.8263 239.572 11.1915C238.415 11.6188 237.891 12.4112 238.084 13.2589C238.199 12.9234 238.395 12.6215 238.655 12.3799C238.914 12.1383 239.23 11.9644 239.572 11.8737V11.8737Z" fill="#CCCCCC"/>
<path d="M253.962 24.0571C253.962 26.2141 253.549 29.0395 253.714 31.1551C253.783 33.4416 253.668 35.7299 253.37 37.998C253.735 37.5261 253.923 36.9406 253.9 36.3441C253.9 33.3671 254.589 30.4384 254.355 27.3856C254.197 25.4423 254.748 22.7892 254.52 20.7907C254.424 19.2693 254.424 17.7433 254.52 16.2219C254.549 16.0623 254.549 15.899 254.52 15.7395L254.286 15.1606C254.286 18.1514 253.969 21.1008 253.962 24.0571Z" fill="#1B3138"/>
<path d="M253.822 40.2101C253.767 40.0722 253.553 40.0033 253.305 39.9413C253.385 40.3295 253.433 40.7236 253.45 41.1197C253.612 41.0392 253.739 40.9024 253.807 40.735C253.876 40.5676 253.881 40.381 253.822 40.2101V40.2101Z" fill="#1B3138"/>
<path d="M253.327 43.2143C253.118 43.8561 253.054 44.5365 253.141 45.2059C253.243 45.9441 253.308 46.687 253.334 47.4318L253.61 47.0872C253.755 46.2641 253.813 45.4279 253.782 44.5926C253.713 44.0137 253.348 43.5038 253.954 43.0076C254.002 42.9663 253.954 42.6562 253.83 42.5941C253.706 42.5321 253.52 42.5941 253.389 42.6355C253.407 42.8306 253.386 43.0274 253.327 43.2143V43.2143Z" fill="#1B3138"/>
<path d="M71.8066 72.5917C70.7936 72.6744 69.7875 72.7777 68.7745 72.8467C68.3877 72.8629 68.0003 72.8444 67.6168 72.7915H67.4583C66.9114 73.0967 66.3822 73.4326 65.8733 73.7976C65.5012 74.0664 64.7914 73.8321 64.7018 74.5557C65.1428 74.5557 65.5839 74.5557 66.018 74.4868C67.8047 74.4036 69.5428 73.8779 71.0762 72.9569C71.3049 72.8077 71.55 72.6851 71.8066 72.5917V72.5917Z" fill="#1B3138"/>
<path d="M254.911 57.8308C254.911 57.9824 254.911 58.1271 254.911 58.2718C254.999 60.0341 254.797 61.799 254.311 63.4954C253.925 64.7427 253.567 66.0244 253.195 67.2924C252.892 68.2985 252.595 69.3046 252.244 70.297C252.161 70.5313 251.886 70.6898 251.7 70.8827C250.383 72.261 248.695 72.8329 246.876 73.4049C245.201 73.908 243.561 73.1982 241.983 73.7288C241.871 73.7717 241.751 73.7885 241.631 73.7777C241.512 73.767 241.396 73.729 241.294 73.6668C240.426 72.8398 239.454 73.7219 238.537 73.46C237.608 73.189 236.659 72.9931 235.698 72.8743C234.203 72.6882 101.658 72.509 100.148 72.4884C98.1845 72.4884 96.1998 72.3368 94.2634 72.8812C94.0081 72.9781 93.7262 72.9781 93.4709 72.8812C92.2581 72.1921 90.8936 72.4746 89.6118 72.1921C89.1632 72.0259 88.7024 71.8946 88.2336 71.7993C87.0621 71.7993 85.8837 71.8406 84.7122 71.8888C84.2945 71.9504 83.8733 71.9849 83.4511 71.9922C81.6844 71.8326 79.9077 71.8141 78.138 71.9371V72.0198C77.2054 71.9984 76.2751 72.124 75.3815 72.3919C74.9664 72.5053 74.5368 72.5564 74.1067 72.5435C74.0512 72.7021 73.9506 72.841 73.8172 72.9432C73.5071 73.1086 73.1901 73.2602 72.8662 73.4049C73.7851 73.4049 74.7039 73.4325 75.6227 73.4876L77.4351 73.5703L78.1862 73.2602C78.1862 73.3773 78.1862 73.4945 78.1862 73.6116C79.5645 73.6874 80.9427 73.7495 82.321 73.6943C84.7409 73.5726 87.1658 73.5864 89.5843 73.7357C90.8825 73.8349 92.1721 74.0261 93.4433 74.3076C95.1647 74.6192 96.9229 74.6726 98.66 74.4661C100.603 74.3076 233.576 74.2112 235.498 74.3628C237.29 74.5075 239.061 74.9416 240.853 75.1139C242.141 75.238 243.471 75.0037 244.753 75.169C246.926 75.5003 249.147 75.0978 251.066 74.0251C251.614 73.7561 252.087 73.3561 252.444 72.8605C253.756 70.6429 254.638 68.1973 255.042 65.6523C255.382 63.1676 255.359 60.6465 254.973 58.1685C254.959 58.0547 254.939 57.9419 254.911 57.8308Z" fill="#1B3138"/>
<path d="M60.5724 73.1293C57.9537 73.5841 34.6202 69.0842 32.0153 69.6837C30.8903 69.8184 29.755 69.8461 28.6248 69.7664C27.7152 69.7664 26.7987 69.7664 25.8683 69.8698C22.666 70.1249 19.5204 70.8613 16.5377 72.0543C15.9889 72.214 15.4292 72.3338 14.8631 72.4126C13.7123 72.702 12.5615 73.019 11.4175 73.3016C10.0959 73.5918 8.72906 73.6105 7.39996 73.3567C7.69321 73.8773 8.11962 74.3106 8.63548 74.6121C9.15134 74.9136 9.73809 75.0726 10.3356 75.0726C11.5598 75.1303 12.7858 75.0072 13.9742 74.7074C16.1173 74.1147 18.4052 73.9425 20.4725 73.1706C23.4079 72.0851 26.5023 71.4914 29.6309 71.4134C31.6156 71.3514 54.3014 71.2962 56.2792 71.1309C57.5058 71.0275 58.7255 75.4861 59.9039 75.1071C61.726 74.4528 63.4876 73.6412 65.1688 72.6814C63.6271 72.7066 62.0899 72.8564 60.5724 73.1293V73.1293Z" fill="#1B3138"/>
<path d="M3.75645 66.3554C3.75645 66.259 3.80469 66.1625 3.83225 66.066C4.52137 66.066 5.16914 66.066 5.8307 65.9971C5.77387 66.1497 5.69989 66.2953 5.61018 66.4312C5.32075 66.8585 5.69287 67.7061 5.65842 68.3608C5.64995 69.3159 5.86469 70.2598 6.28551 71.1172C6.87347 71.5338 7.57721 71.7555 8.29774 71.7512C9.51958 71.8055 10.7428 71.6824 11.9294 71.386C14.0794 70.7865 16.3673 70.6211 18.4347 69.8424C21.3764 68.754 24.478 68.1602 27.6137 68.0851C29.5984 68.0231 52.2842 67.9749 54.262 67.8095C55.4886 67.7061 56.7015 72.1578 57.8867 71.7788C61.5184 70.6073 64.5919 68.1885 68.2649 67.0721C69.6018 66.6655 70.8353 65.9557 72.1308 65.4182C72.3933 65.3762 72.6608 65.3762 72.9233 65.4182C72.8131 65.7283 72.9233 65.9764 72.4134 66.2383C69.5535 67.6648 66.4456 68.5813 63.8269 70.4833C63.4548 70.7589 62.745 70.5246 62.6554 71.2482C63.0965 71.2482 63.5375 71.2482 63.9717 71.1793C65.7563 71.0912 67.4915 70.5633 69.0229 69.6425C69.8069 69.2416 70.6485 68.9649 71.5175 68.8225C71.7311 68.7674 72.0137 68.9534 72.2687 69.0292C72.1308 69.2497 72.0481 69.5667 71.8483 69.677C71.5382 69.8424 71.2212 69.9871 70.8973 70.1387H71.1592C72.1791 69.7321 73.1645 69.2084 74.1844 68.7605C74.4443 68.7152 74.7101 68.7152 74.97 68.7605C74.8666 69.0637 74.97 69.3186 74.46 69.5805C73.9501 69.8424 73.5918 69.994 73.1507 70.1938H73.6469L75.4731 70.2765C76.3551 69.9251 77.2303 69.5874 78.1055 69.1877C78.1055 69.5529 78.1055 69.8768 78.1537 70.2765L77.9952 70.3523C77.9553 70.37 77.9138 70.3839 77.8712 70.3937C78.7119 70.3937 79.5526 70.435 80.3934 70.3937C82.7689 70.2593 85.1502 70.2593 87.5257 70.3937C88.8271 70.4858 90.1195 70.677 91.3917 70.9656C93.1134 71.2738 94.8711 71.3272 96.6083 71.1241C98.5364 70.9326 100.477 70.8957 102.411 71.0139C104.202 71.1586 237.009 71.5927 238.801 71.765C240.09 71.8891 241.413 71.6616 242.695 71.8201C244.867 72.1583 247.089 71.758 249.007 70.6831C249.554 70.4086 250.026 70.0069 250.385 69.5116C251.697 67.2936 252.578 64.8481 252.983 62.3034C253.299 60.215 253.322 58.0928 253.052 55.998H252.969C252.673 55.9153 252.28 55.8602 252.122 55.6465C251.927 55.408 251.666 55.2327 251.371 55.1431C251.077 55.0535 250.762 55.0537 250.468 55.1435C249.352 55.3157 248.263 55.6879 247.153 55.9566C246.924 55.9843 246.693 55.9843 246.464 55.9566C246.561 55.6534 246.251 55.2331 246.919 55.109C248.18 54.8609 249.414 54.4199 250.668 54.1167C251.219 53.972 251.791 53.8962 252.342 53.7583C252.394 53.7428 252.442 53.7144 252.48 53.6756C252.373 53.5236 252.248 53.3848 252.108 53.2622C251.481 53.2966 250.854 53.3587 250.234 53.3587C249.94 53.3127 249.654 53.2245 249.386 53.0968C249.586 52.8556 249.744 52.4559 249.986 52.4077H250.165C250.129 52.3902 250.098 52.3641 250.075 52.3319C249.881 52.093 249.619 51.918 249.324 51.8295C249.03 51.7411 248.715 51.7432 248.421 51.8357C247.298 52.0011 246.216 52.3801 245.107 52.642C244.878 52.6695 244.646 52.6695 244.417 52.642C244.514 52.3388 244.204 51.9529 244.865 51.7944C246.133 51.5532 247.367 51.1052 248.614 50.802C249.165 50.6642 249.737 50.5884 250.296 50.4437C250.433 50.4437 250.551 50.2438 250.675 50.1336C250.537 50.0647 250.392 49.9337 250.254 49.9406C249.565 49.9406 248.876 50.0509 248.187 50.044C247.895 50.0013 247.611 49.9129 247.346 49.7821C247.539 49.5409 247.698 49.1412 247.939 49.093C248.552 48.9414 249.221 49.0241 249.827 48.8656C250.314 48.675 250.777 48.4275 251.205 48.1282C250.981 47.8153 250.722 47.5286 250.433 47.2737C249.434 46.5846 249.42 46.4192 250.172 45.6061C250.626 45.103 250.992 44.5173 251.55 43.8212C251.55 43.6696 251.584 43.518 251.598 43.3733C250.716 43.6283 249.806 43.8144 248.904 44.0004C248.582 44.0712 248.268 44.1727 247.966 44.3036C247.966 44.0487 247.966 43.8006 247.966 43.5456C248.566 43.3458 249.165 43.1459 249.758 42.9185C250.351 42.6911 251.067 42.3741 251.708 42.0778C251.733 41.8257 251.733 41.5718 251.708 41.3197C251.633 40.7409 251.274 40.2309 251.874 39.7348C251.929 39.7348 251.874 39.3902 251.757 39.3213C251.639 39.2524 251.446 39.3213 251.309 39.3626C249.88 39.9842 248.377 40.4173 246.836 40.6513C246.188 40.7891 245.582 41.1337 244.927 41.2784C244.707 41.3266 244.411 41.0579 244.156 40.9338C244.307 40.8138 244.471 40.7099 244.645 40.6237C245.665 40.2654 246.712 39.9346 247.725 39.5694C248.795 39.165 249.837 38.6931 250.847 38.1567C251.281 37.9224 251.991 37.5985 251.743 36.9438C251.646 36.6751 250.95 36.6544 250.551 36.4821C250.296 36.3788 249.951 36.2409 249.861 36.0411C249.772 35.8413 249.924 35.5863 250.337 35.414C250.799 35.2312 251.191 34.9049 251.453 34.4832C251.716 34.0614 251.837 33.5665 251.798 33.071C251.798 30.1009 252.487 26.4761 252.26 23.4647C252.101 21.5145 252.652 19.5505 252.425 17.552C252.329 16.0306 252.329 14.5046 252.425 12.9832C252.453 12.8236 252.453 12.6603 252.425 12.5008C252.267 12.1149 252.101 11.7428 251.936 11.3637C251.607 10.9818 251.252 10.6226 250.874 10.2887C250.341 9.82986 249.742 9.45356 249.097 9.17235C248.993 8.48323 248.862 7.79411 248.718 7.10499H249.055L248.821 6.89137C247.701 5.88607 246.26 5.31203 244.755 5.27194C242.564 5.15479 240.372 5.05142 238.181 5.05142C237.132 5.12142 236.088 5.24563 235.052 5.42354C233.13 5.63028 100.178 5.97484 98.214 5.63028C97.4262 5.3803 96.5776 5.3997 95.8021 5.68541C95.3363 5.78797 94.8503 5.74466 94.41 5.56137C92.4846 4.9336 90.4425 4.74753 88.4354 5.01696C87.7945 5.12722 87.0571 4.7551 86.368 4.61727C86.113 4.56904 85.734 4.43121 85.6031 4.54836C84.2249 5.78189 82.5158 5.11344 80.986 5.37531C79.4562 5.63717 77.7403 5.47178 76.1622 6.18847C74.882 6.74463 73.5731 7.2323 72.2411 7.6494C71.7935 7.78925 71.3308 7.87485 70.8628 7.90437C70.6975 7.90437 70.5183 7.73209 70.346 7.64251C70.4701 7.50468 70.5665 7.31862 70.7181 7.24282C71.6967 6.75354 72.6752 6.25049 73.6882 5.86458C74.9355 5.36152 76.2173 4.94805 77.4715 4.48634C77.6851 4.40365 77.8436 4.15557 78.0297 3.99018C77.8319 3.91271 77.6263 3.85725 77.4164 3.82479C75.4455 3.78344 73.5022 3.52847 71.5106 3.55603C70.3942 3.55603 69.2848 3.55603 68.1684 3.55603C68.2166 3.18391 68.258 2.81178 68.2993 2.43277C67.6102 2.39142 66.9211 2.38453 66.232 2.43277C64.3018 2.58902 62.3632 2.61434 60.4296 2.50857C60.1596 2.44758 59.8795 2.44758 59.6095 2.50857C57.9832 3.19769 56.1639 3.07365 54.5859 2.93583C52.4358 2.75665 29.7018 3.32173 27.5793 3.2666C25.8145 3.18865 24.0465 3.22779 22.2869 3.38375C21.3428 3.48023 20.3987 3.61116 19.4477 3.65251C17.0702 3.76966 14.9477 4.87225 12.6668 5.35463C12.0672 5.48556 11.2541 5.72676 11.0129 6.16779C10.0688 7.93194 8.16681 9.39976 8.94551 11.8186C9.00623 12.1508 8.97769 12.4933 8.86282 12.8109C8.62852 13.7136 8.86282 14.6302 8.66987 15.5674C8.49414 16.5598 8.39508 17.5643 8.37354 18.5719C8.2541 19.9502 8.13235 21.3422 8.00831 22.748C8.03105 23.1367 7.98438 23.5264 7.87049 23.8988C6.58873 26.3383 7.87049 29.4118 8.08411 31.7686C8.08411 31.9477 8.34598 32.1269 8.50448 32.2785C8.86817 32.5913 9.29628 32.8201 9.75839 32.9487C10.2205 33.0774 10.7053 33.1026 11.1783 33.0228C12.4357 32.9781 13.6947 33.0126 14.9477 33.1261C15.1545 33.1261 15.3405 33.4638 15.5404 33.6499C15.3474 33.7119 15.1614 33.7877 14.9684 33.8359C14.674 33.9363 14.3686 34.0011 14.0588 34.0289C12.5358 34.0289 11.006 34.0289 9.48303 33.96C8.90417 33.96 8.49759 34.0702 8.39422 34.6491C8.27707 35.3382 8.7181 35.6138 9.36588 35.6483C10.0136 35.6828 10.8199 35.7517 11.5366 35.8481C11.6951 35.8481 11.8191 36.0687 11.957 36.1927C11.8246 36.3168 11.6734 36.4192 11.509 36.4959C10.8199 36.6751 10.0895 36.8129 9.39344 36.999C9.09023 37.0817 8.62852 37.1919 8.5665 37.3849C8.28814 38.3066 8.07174 39.2459 7.91873 40.1965C7.82914 40.734 8.11168 40.4928 8.35287 40.3343C8.47002 40.2585 8.70432 40.3343 8.8008 40.2378C9.30386 39.7554 9.48992 40.5341 9.83448 40.5066C9.68008 40.7021 9.50698 40.8822 9.31764 41.0441C9.10501 41.1802 8.87253 41.2825 8.62852 41.3473C8.16966 41.4685 7.76275 41.7358 7.46932 42.1088C7.1759 42.4818 7.01192 42.9402 7.0022 43.4147C6.77479 46.1711 6.09945 44.0555 5.67909 46.7845C4.94173 51.5394 4.89349 56.4321 4.00453 61.1457C3.8736 61.8348 4.00453 62.5239 3.56349 63.2131C3.26717 63.6403 3.6393 64.481 3.61173 65.1357C3.6046 65.5469 3.65328 65.9573 3.75645 66.3554V66.3554ZM244.948 59.1473C245.174 59.5478 245.42 59.9365 245.685 60.3119C245.965 60.7209 246.127 61.1991 246.152 61.6939C246.178 62.1887 246.066 62.681 245.83 63.1166C245.217 64.4948 244.183 64.7911 243.198 65.1426C241.819 65.6387 240.682 64.7911 239.752 63.5232C238.553 61.9244 239.538 59.1059 240.593 58.3892C240.753 58.2803 240.927 58.1923 241.11 58.1274C242.908 57.4934 242.908 57.4934 244.955 59.1473H244.948ZM240.489 9.53069C240.744 9.56881 240.994 9.63585 241.234 9.73054C243.687 10.6815 243.687 10.6884 245.017 13.755C245.051 14.2029 245.051 14.5888 245.093 14.9541C245.134 15.3193 243.845 16.1531 243.563 16.3323C243.046 16.67 242.605 17.1455 242.185 17.4349C242 17.5307 241.792 17.5691 241.585 17.5451C240.391 17.5979 239.204 17.339 238.14 16.794C237.622 16.5087 237.207 16.0674 236.954 15.5329C236.675 14.7647 236.499 13.963 236.431 13.1486C236.031 10.8125 238.863 9.25505 240.503 9.51691L240.489 9.53069ZM78.9944 65.1564C78.3053 64.5362 78.8291 63.9228 79.1529 63.9849C80.5312 64.2467 81.9783 63.6196 83.3497 64.2467C83.6805 64.3983 84.2249 64.3019 83.963 64.8738C83.8183 65.177 83.4048 65.3838 83.0809 65.5629C82.9638 65.6319 82.757 65.5629 82.5916 65.5629C81.4056 65.3301 80.2026 65.1941 78.9944 65.1564V65.1564ZM86.0097 68.2229C85.865 68.533 85.4515 68.7329 85.1276 68.9121C85.0173 68.981 84.8037 68.9121 84.6452 68.9121C83.4577 68.6912 82.2552 68.5599 81.048 68.5193C80.9097 68.4117 80.8065 68.2653 80.7517 68.0989C82.5158 68.0989 84.28 68.0989 86.0441 68.1471C86.0349 68.1734 86.0234 68.1987 86.0097 68.2229V68.2229ZM81.6338 7.801C83.4906 7.0988 85.4518 6.71215 87.4362 6.65707C87.6842 6.65707 87.9185 6.48479 88.332 6.40898C88.6669 6.41887 89.0007 6.4511 89.3312 6.50546C89.4484 6.50546 89.6207 6.68463 89.6276 6.788C89.6221 6.86302 89.6001 6.93591 89.5632 7.00143C89.5263 7.06696 89.4753 7.1235 89.4139 7.16701C89.1983 7.31435 88.9499 7.40663 88.6904 7.43577C86.3336 7.43577 84.2318 8.3523 82.1093 9.22059C81.6958 9.39287 81.0549 9.82701 80.7862 9.02764C80.5519 8.32473 80.9033 8.04909 81.6338 7.79411V7.801ZM69.395 59.3195C69.8281 59.2127 70.2785 59.1963 70.7181 59.2713C71.4831 59.354 72.3169 59.5332 72.8337 59.5469C74.4187 59.6021 76.0106 59.6917 77.5955 59.7123C80.023 59.8331 82.4555 59.8055 84.8795 59.6296C86.8366 59.4229 88.711 59.8295 90.6199 59.8433C91.4744 59.8433 92.3013 60.1327 93.1972 59.7812C93.4805 59.6514 93.8031 59.6363 94.0972 59.7391C94.3914 59.8419 94.6344 60.0546 94.7753 60.3325C94.8649 60.5186 94.9544 60.7874 94.8786 60.9252C94.753 61.1769 94.5434 61.3768 94.286 61.4903C94.0517 61.573 93.7209 61.3938 93.466 61.4903C92.3427 61.759 91.3986 60.8011 90.2133 61.1043C89.1796 61.3524 88.0081 60.9665 86.8986 60.9114C84.3284 60.6776 81.747 60.5879 79.1667 60.6426C77.5611 60.7391 76.0106 60.5255 74.3429 60.5737C74.0649 60.6784 73.7715 60.7366 73.4746 60.746C73.0818 60.746 68.8299 60.9872 68.7266 60.7874C68.6676 60.6477 68.6382 60.4974 68.6403 60.3458C68.6424 60.1942 68.6759 60.0447 68.7387 59.9068C68.8015 59.7688 68.8923 59.6454 69.0053 59.5443C69.1182 59.4432 69.251 59.3667 69.395 59.3195ZM67.879 11.8323C67.5357 12.0671 67.1626 12.2548 66.7695 12.3905C65.3912 12.7558 64.0681 13.0797 62.5452 13.3829C61.7527 13.3277 61.67 12.928 62.1386 12.6937C63.1892 12.1385 64.2869 11.6773 65.4188 11.3155C66.1454 11.1616 66.8897 11.1082 67.6309 11.157C67.818 11.1951 67.9833 11.3037 68.0926 11.4602C68.127 11.4947 67.9961 11.7634 67.879 11.8323ZM31.5348 10.337C32.4376 10.1027 54.069 9.99929 55.1578 9.86147C56.4396 9.63406 59.7749 9.39287 58.6654 9.17235C54.0001 8.18691 58.8997 7.74587 67.0658 7.55292C67.202 7.5515 67.3379 7.53998 67.4724 7.51847C67.5479 7.5099 67.6244 7.51686 67.6971 7.53889C67.7699 7.56093 67.8373 7.59759 67.8954 7.64663C67.9535 7.69566 68.0009 7.75604 68.0348 7.82406C68.0687 7.89208 68.0884 7.96631 68.0926 8.0422V8.0422C68.1025 8.18303 68.058 8.32229 67.9682 8.43127C67.8785 8.54025 67.7503 8.61065 67.6102 8.62795C67.1761 8.68308 66.7419 8.73821 66.3147 8.81401C64.523 9.11722 62.745 9.50313 60.9533 9.78567C58.8496 10.0875 56.7931 10.6572 54.8339 11.4809C54.1931 11.7703 32.6305 11.536 32.0034 11.8392C31.3763 12.1425 31.1283 11.7152 31.0111 11.4189C30.9656 11.3142 30.9433 11.2009 30.9456 11.0868C30.9479 10.9727 30.9749 10.8604 31.0246 10.7577C31.0743 10.655 31.1457 10.5642 31.2337 10.4916C31.3218 10.4189 31.4245 10.3662 31.5348 10.337ZM16.767 8.95872C16.9692 8.85256 17.1816 8.76713 17.401 8.70375C19.6544 8.08354 19.6544 8.08354 22.2248 9.55826C22.5098 9.93327 22.8207 10.2879 23.1551 10.6195C23.5181 10.9423 23.7475 11.389 23.7985 11.872C23.8495 12.3551 23.7184 12.8398 23.4308 13.2313C22.6521 14.5268 21.3634 14.8093 20.1506 15.1608C18.4347 15.6501 17.0013 14.892 15.7954 13.7826C14.2724 12.2941 15.4646 9.64784 16.767 8.99318V8.95872ZM15.7816 54.4406C16.001 54.3213 16.2319 54.2244 16.4707 54.1511C19.0135 53.462 19.0135 53.462 21.9147 55.1159C22.2111 55.4536 22.4385 55.7637 22.6865 56.0324C23.2999 56.7216 21.6942 59.3747 21.2532 59.8708C20.77 60.4447 20.1597 60.898 19.4706 61.1947C18.7816 61.4914 18.0328 61.6233 17.2839 61.5798C17.0363 61.5677 16.7911 61.5261 16.5534 61.4558C13.666 60.684 12.8804 56.0118 15.7816 54.4957V54.4406Z" fill="#4D6C82"/>
<path d="M70.2892 70.4004L70.4959 70.3246V70.2901L69.9859 70.5313C70.1031 70.4762 70.2065 70.428 70.2892 70.4004Z" fill="#808080"/>
<path opacity="0.2" d="M9.28136 30.5419C9.3496 30.8472 9.49156 31.1311 9.69483 31.3689C9.95508 31.5839 10.27 31.7223 10.6045 31.7686C13.168 32.2716 15.9245 31.5136 18.3639 32.4577C17.3096 30.8314 15.2147 30.3145 13.5401 29.3429C11.5141 28.1852 10.0463 24.8843 8.02716 24.3123C8.1572 26.4366 8.57923 28.5328 9.28136 30.5419V30.5419Z" fill="white"/>
<path d="M123.62 70.4627C123.639 70.7094 123.722 70.9469 123.861 71.1518C124.121 71.4033 124.464 71.5504 124.826 71.5653C131.586 72.53 138.436 70.7176 145.265 70.8761C144.948 68.5285 144.576 66.1901 144.149 63.8609C144.132 63.6506 144.042 63.453 143.894 63.3027C143.743 63.2119 143.567 63.1709 143.391 63.1856C140.951 63.1442 138.567 63.8058 136.127 63.9712C134.163 64.0539 132.195 63.9779 130.242 63.7438L125.839 63.3303C124.991 63.2545 122.6 62.5929 121.945 63.2338C121.291 63.8747 122.269 65.6044 122.531 66.3624C122.99 67.7019 123.354 69.072 123.62 70.4627V70.4627Z" fill="#365D75" stroke="black" stroke-width="1.37824" stroke-miterlimit="10"/>
<path d="M126.565 74.7968C127.014 74.9169 127.479 74.968 127.943 74.9484C135.078 74.976 142.199 74.8083 149.306 74.4454C147.927 73.9699 147.48 72.1231 146.212 71.3788C145.611 71.0845 144.951 70.9291 144.282 70.924C140.569 70.6397 136.836 70.8156 133.167 71.4477C130.258 71.9439 127.281 72.6881 124.394 71.6751C124.419 72.3486 124.637 73.0008 125.022 73.5541C125.407 74.1075 125.942 74.5388 126.565 74.7968V74.7968Z" fill="#223E4C" stroke="black" stroke-width="1.37824" stroke-miterlimit="10"/>
<path opacity="0.2" d="M30.4878 3.99707L51.6851 4.17624C64.4338 4.29569 77.1825 4.42203 89.9312 4.55526C105.482 4.72065 121.038 4.90441 136.598 5.10655C143.664 5.20303 150.732 5.3041 157.803 5.40977C165.472 5.52003 173.046 4.72065 180.73 4.63106C185.041 4.47128 189.357 4.63714 193.644 5.12723C195.663 5.40977 197.64 6.09199 199.673 6.14712C201.92 6.20914 204.166 6.25049 206.406 6.29873C213.773 6.47101 221.133 6.66396 228.492 6.9465C232.351 7.09122 236.231 7.18769 240.07 7.59427C226.832 5.6165 82.4198 9.55137 69.044 9.66163C62.4491 9.70987 35.2289 8.80023 28.6685 8.3592C24.0101 8.04909 18.3317 9.22059 13.9627 8.15935C17.8011 3.83858 25.1747 3.95573 30.4878 3.99707Z" fill="white"/>
<path d="M81.0467 68.4984C80.9084 68.3908 80.8052 68.2445 80.7504 68.0781C82.5145 68.0505 84.2787 68.0666 86.0428 68.1263C86.0456 68.1561 86.0456 68.1861 86.0428 68.2159C85.8981 68.526 85.4846 68.7258 85.1608 68.905C85.0505 68.9739 84.8369 68.905 84.6784 68.905C83.4798 68.6778 82.2658 68.5419 81.0467 68.4984V68.4984ZM78.2902 73.2878L76.9602 73.8391C76.3885 74.09 75.7722 74.2235 75.1479 74.2319C74.0845 74.1556 73.0163 74.2795 71.9986 74.5971C71.8608 74.6454 71.6471 74.48 71.468 74.4111C71.5782 74.2663 71.6609 74.0527 71.8125 73.9769C72.5016 73.6255 73.239 73.3429 73.9281 72.9708C74.1211 72.8674 74.2038 72.5504 74.3416 72.3299C74.0866 72.2541 73.811 72.0681 73.5905 72.1232C72.7236 72.2655 71.8843 72.5422 71.1027 72.9432C69.5694 73.8642 67.8313 74.3899 66.0446 74.4731C65.6105 74.5213 65.1694 74.5213 64.7284 74.542C64.818 73.8529 65.5278 74.0527 65.8999 73.784C68.5185 71.8751 71.6334 70.9586 74.4863 69.539C75.01 69.2771 74.8929 69.0221 74.9963 68.7189C74.7363 68.6736 74.4706 68.6736 74.2107 68.7189C72.9151 69.2564 71.6747 69.9662 70.3378 70.3728C66.6372 71.5168 63.5638 73.9356 59.9528 75.114C58.7744 75.493 57.5547 71.0344 56.328 71.1377C54.3503 71.3031 31.6645 71.3583 29.6798 71.4203C26.5442 71.496 23.4426 72.0897 20.5007 73.1775C18.4334 73.9493 16.1455 74.1216 14.0023 74.7143C12.814 75.0141 11.588 75.1372 10.3638 75.0795C9.64781 75.0873 8.9472 74.8718 8.35934 74.463C7.77147 74.0542 7.32557 73.4724 7.08359 72.7985C6.47717 71.4203 5.60199 70.042 5.70535 68.3675C5.70535 67.6784 5.36768 66.8652 5.65711 66.438C5.74682 66.3021 5.8208 66.1564 5.87763 66.0038C5.18851 66.052 4.54763 66.0727 3.87919 66.0727C3.76204 66.5551 3.638 67.0444 3.49328 67.5268C3.41013 67.9468 3.44837 68.3819 3.60354 68.781C4.09205 70.42 4.67182 72.0305 5.34012 73.6048C5.91209 74.8245 6.75971 76.1821 8.0966 76.4646C9.85364 76.9435 11.6969 77.0142 13.4855 76.6714C14.6432 76.3888 15.7872 76.0649 16.9311 75.7824C17.4978 75.7039 18.0577 75.5818 18.6057 75.4172C21.6052 74.2155 24.7699 73.4766 27.9915 73.2258C28.8942 73.1362 29.8107 73.1431 30.7479 73.1224C31.885 73.1224 53.7507 73.2809 54.8326 73.0397C57.4375 72.4471 60.0768 76.947 62.6955 76.4853C65.0161 76.0471 67.3864 75.9335 69.7383 76.1476C70.1218 76.2003 70.5092 76.2188 70.896 76.2028C72.1088 76.1201 73.3217 75.9754 74.5345 75.8995C75.5544 75.8375 76.6501 76.0649 77.5873 75.7755C77.8587 75.6904 78.1348 75.6214 78.4143 75.5688C78.3178 74.8039 78.2902 74.0458 78.2627 73.2878H78.2902ZM256.986 61.6141C256.833 59.5905 256.461 57.5895 255.876 55.6463C255.29 53.3033 255.532 50.9052 255.187 48.5553C255.102 47.884 255.163 47.2022 255.366 46.5569C255.552 45.9642 255.166 45.4336 255.428 44.7996C255.642 44.2759 255.304 43.5523 255.325 42.9252C255.394 40.1136 256.014 37.3502 255.759 34.5042C255.587 32.3886 256 30.2454 256 28.0954C256 24.5533 256.503 20.3359 256.255 16.7525C256.072 14.4873 255.218 12.3282 253.802 10.5504C253.113 9.60632 252.127 8.86207 251.369 7.94554C251.184 7.71288 250.951 7.52287 250.686 7.38849C250.421 7.2541 250.13 7.1785 249.833 7.16683C249.474 7.16683 249.143 7.10481 248.764 7.08414C248.909 7.77326 249.04 8.46238 249.143 9.1515C249.789 9.43271 250.388 9.80901 250.921 10.2679C252.72 11.8253 253.678 13.7548 254.519 15.8291C254.547 15.9886 254.547 16.1519 254.519 16.3114C254.422 17.8329 254.422 19.3589 254.519 20.8803C254.746 22.8787 254.195 25.5319 254.353 27.4752C254.601 30.4935 253.905 33.4223 253.898 36.4337C253.936 36.9298 253.814 37.4249 253.55 37.8466C253.286 38.2682 252.893 38.5941 252.431 38.7767C252.017 38.949 251.859 39.1144 251.955 39.4038C252.052 39.6932 252.375 39.7346 252.644 39.8449C253.051 40.0171 253.74 40.0378 253.843 40.2997C254.084 40.9888 253.375 41.2782 252.941 41.5194C251.929 42.053 250.887 42.5248 249.819 42.9321C249.226 43.1595 248.627 43.3594 248.027 43.5592C248.027 43.8142 248.027 44.0623 248.027 44.3172C248.329 44.1863 248.643 44.0848 248.964 44.014C250.504 43.7749 252.006 43.3419 253.437 42.7254C253.568 42.6633 253.788 42.6151 253.878 42.684C253.967 42.7529 254.05 43.0561 254.002 43.0975C253.395 43.5937 253.761 44.1036 253.829 44.6825C253.861 45.5178 253.803 46.354 253.657 47.1771C253.071 47.8662 252.706 48.4657 252.279 48.9619C251.535 49.7819 251.549 49.9198 252.541 50.6296C252.828 50.8885 253.087 51.1773 253.313 51.491C252.885 51.7917 252.422 52.0393 251.934 52.2283C251.328 52.3868 250.66 52.3041 250.053 52.4557C249.812 52.5109 249.653 52.9105 249.454 53.1448C249.722 53.2726 250.008 53.3608 250.301 53.4067C250.99 53.4067 251.679 53.324 252.369 53.3033C252.506 53.3033 252.651 53.4274 252.789 53.4963C252.665 53.5997 252.555 53.7719 252.41 53.8064C251.859 53.9442 251.287 54.02 250.735 54.1647C249.481 54.4886 248.248 54.909 246.987 55.1571C246.297 55.2811 246.628 55.7015 246.532 56.0047C246.761 56.0323 246.992 56.0323 247.221 56.0047C248.33 55.7359 249.419 55.3638 250.536 55.1915C250.83 55.1017 251.145 55.1016 251.439 55.1912C251.734 55.2808 251.995 55.456 252.189 55.6946C252.341 55.9082 252.741 55.9633 253.037 56.046C253.534 56.1668 253.984 56.4333 254.329 56.8115C254.674 57.1896 254.899 57.6621 254.973 58.1685C255.351 60.6431 255.367 63.1594 255.022 65.6386C254.618 68.1835 253.736 70.6292 252.424 72.8468C252.067 73.3423 251.594 73.7423 251.045 74.0114C249.127 75.084 246.906 75.4866 244.733 75.1553C243.451 74.9899 242.121 75.2242 240.833 75.1002C239.041 74.9279 237.27 74.4937 235.478 74.349C233.556 74.1974 100.583 74.2939 98.6399 74.4524C96.9028 74.6589 95.1447 74.6055 93.4233 74.2939C92.1585 74.0179 90.8759 73.8314 89.5849 73.7357C87.2069 73.6048 84.8236 73.6048 82.4456 73.7357C80.206 73.8253 77.9526 73.6048 75.706 73.529C74.0866 73.467 72.4741 73.4463 70.8822 73.3774C70.9373 73.8735 70.9856 74.3766 71.0407 74.8797H71.0821C72.3156 74.8797 73.6731 74.4869 74.762 74.8797C76.1087 75.357 77.5416 75.5425 78.9656 75.4241C81.1754 75.2242 83.3988 75.2242 85.6087 75.4241C86.0311 75.4172 86.4525 75.3804 86.8698 75.3138C88.0413 75.2725 89.2128 75.2035 90.3843 75.2311C90.853 75.3268 91.3138 75.4581 91.7625 75.6239C93.0374 75.872 94.4018 75.5826 95.6147 76.313C95.873 76.4062 96.1557 76.4062 96.4141 76.313C98.3505 75.7617 100.335 75.8995 102.299 75.9202C103.801 75.9202 236.347 76.1201 237.849 76.3061C238.809 76.4256 239.759 76.6215 240.688 76.8919C241.598 77.1469 242.569 76.2648 243.444 77.0986C243.542 77.1542 243.65 77.1885 243.762 77.1992C243.873 77.2099 243.986 77.1967 244.092 77.1606C245.677 76.63 247.317 77.3398 248.985 76.8368C250.825 76.2579 252.52 75.6584 253.809 74.3146C253.995 74.1216 254.277 73.9562 254.353 73.7288C254.705 72.7365 255.008 71.7304 255.304 70.7243C255.683 69.4563 256.035 68.1745 256.427 66.9203C256.912 65.1958 257.101 63.4017 256.986 61.6141V61.6141ZM68.0913 8.06269C68.0871 7.9868 68.0674 7.91257 68.0335 7.84455C67.9996 7.77654 67.9522 7.71616 67.8941 7.66712C67.836 7.61809 67.7685 7.58142 67.6958 7.55939C67.6231 7.53735 67.5466 7.5304 67.4711 7.53896C67.3366 7.56047 67.2007 7.57199 67.0645 7.57341C58.8984 7.76637 53.9712 8.2074 58.6641 9.19284C59.7736 9.42714 56.4383 9.66834 55.1565 9.88196C54.0677 10.0198 32.4156 10.1232 31.5335 10.3575C31.4258 10.3872 31.3256 10.4394 31.2394 10.5106C31.1533 10.5818 31.0832 10.6704 31.0337 10.7707C30.9843 10.8709 30.9566 10.9804 30.9524 11.0921C30.9483 11.2038 30.9679 11.3151 31.0098 11.4187C31.1407 11.7288 31.3406 12.1836 32.0159 11.8597C32.6912 11.5358 54.2055 11.7908 54.8464 11.5014C56.8056 10.6777 58.8621 10.108 60.9658 9.80616C62.7575 9.51673 64.5354 9.11704 66.3271 8.8345C66.7544 8.7587 67.1885 8.70357 67.6227 8.64844C67.7603 8.62795 67.8851 8.55619 67.972 8.44755C68.0589 8.33891 68.1015 8.20144 68.0913 8.06269V8.06269ZM65.4175 11.3015C64.2856 11.6633 63.1879 12.1245 62.1373 12.6798C61.6687 12.9279 61.7514 13.3276 62.5439 13.3689C64.0875 13.0933 65.4244 12.7556 66.7682 12.4041C67.1613 12.2684 67.5344 12.0807 67.8777 11.846C67.9948 11.777 68.1257 11.5083 68.0913 11.46C67.982 11.3035 67.8167 11.1949 67.6296 11.1568C66.8891 11.1035 66.1447 11.1522 65.4175 11.3015ZM79.1516 63.9847C78.8278 63.9227 78.304 64.536 78.9931 65.1562C80.2009 65.1894 81.4039 65.3207 82.5903 65.549C82.7557 65.549 82.9625 65.6524 83.0796 65.549C83.4035 65.3491 83.817 65.1424 83.9617 64.8599C84.2236 64.2879 83.6791 64.3844 83.3484 64.2328C82.0046 63.6195 80.5437 64.2465 79.1516 63.9847V63.9847ZM82.108 9.21352C84.2304 8.34523 86.3323 7.43559 88.689 7.4287C88.9486 7.39956 89.197 7.30728 89.4126 7.15994C89.474 7.11643 89.5249 7.05989 89.5619 6.99436C89.5988 6.92883 89.6208 6.85595 89.6262 6.78093C89.6262 6.67756 89.4471 6.52595 89.3299 6.49839C88.9994 6.44403 88.6655 6.41179 88.3307 6.40191C87.9172 6.47772 87.6829 6.6431 87.4348 6.65C85.4505 6.70508 83.4893 7.09173 81.6325 7.79393C80.902 8.04891 80.5506 8.32455 80.7849 9.02056C81.0536 9.81994 81.6945 9.3858 82.108 9.21352V9.21352ZM70.7168 59.2642C70.2772 59.1892 69.8268 59.2056 69.3937 59.3125C69.252 59.3579 69.1211 59.4318 69.0088 59.5295C68.8966 59.6273 68.8055 59.7469 68.741 59.881C68.6765 60.0151 68.64 60.161 68.6338 60.3097C68.6275 60.4583 68.6516 60.6068 68.7046 60.7458C68.808 60.9457 73.0598 60.6976 73.4526 60.7045C73.7495 60.6951 74.0429 60.6369 74.3209 60.5322C75.9886 60.484 77.5391 60.6976 79.1447 60.6011C81.725 60.5463 84.3064 60.6361 86.8767 60.8699C87.9861 60.925 89.1576 61.3109 90.1913 61.0628C91.4042 60.7734 92.3207 61.7175 93.444 61.4487C93.6989 61.3867 94.0297 61.5659 94.264 61.4487C94.5214 61.3353 94.7311 61.1354 94.8567 60.8836C94.9325 60.7458 94.8567 60.4771 94.7533 60.291C94.6124 60.013 94.3695 59.8004 94.0753 59.6976C93.7811 59.5948 93.4585 59.6099 93.1752 59.7397C92.2794 60.0912 91.4524 59.8086 90.5979 59.8017C88.689 59.8017 86.8146 59.3814 84.8575 59.5881C82.4335 59.764 80.001 59.7916 77.5736 59.6708C75.9886 59.6708 74.3967 59.5605 72.8117 59.5054C72.3156 59.533 71.4817 59.3538 70.7168 59.2642ZM243.569 16.3252C243.052 16.6629 242.611 17.1384 242.19 17.4278C242.006 17.5236 241.797 17.562 241.591 17.5381C240.396 17.5908 239.209 17.3319 238.145 16.7869C237.627 16.5017 237.213 16.0604 236.96 15.5258C236.681 14.7576 236.505 13.9559 236.436 13.1415C236.036 10.8123 238.869 9.25487 240.502 9.51673C240.757 9.55484 241.006 9.62189 241.246 9.71657C243.699 10.6676 243.699 10.6745 245.029 13.741C245.064 14.189 245.064 14.5749 245.105 14.9401C245.147 15.3053 243.851 16.1392 243.569 16.3252ZM242.225 11.8735C241.432 11.2326 240.578 10.8192 239.572 11.1844C237.752 11.8735 237.504 13.4309 239.151 14.7747L240.585 15.3467C241.508 15.7188 243.017 15.0848 243.121 14.1614C243.188 13.7348 243.14 13.2981 242.983 12.896C242.825 12.494 242.564 12.141 242.225 11.8735V11.8735ZM241.095 58.1272C242.907 57.4932 242.907 57.4932 244.954 59.1471C245.179 59.5476 245.426 59.9363 245.691 60.3117C245.971 60.7207 246.132 61.1989 246.158 61.6937C246.183 62.1885 246.072 62.6808 245.836 63.1164C245.222 64.4946 244.189 64.791 243.203 65.1424C241.825 65.6386 240.688 64.791 239.758 63.523C238.559 61.9242 239.544 59.1057 240.598 58.389C240.752 58.2817 240.919 58.1937 241.095 58.1272V58.1272ZM240.743 60.1945C239.964 61.7519 240.467 63.1302 241.99 63.2473L243.052 62.8821C243.455 62.6554 243.771 62.3 243.948 61.8727C244.125 61.4454 244.154 60.971 244.03 60.5253C243.932 60.198 243.742 59.9056 243.483 59.6822C243.224 59.4589 242.907 59.3139 242.569 59.2642C242.202 59.1917 241.821 59.2463 241.489 59.4192C241.157 59.592 240.894 59.8728 240.743 60.2152V60.1945ZM254.973 58.2719C254.818 56.2464 254.446 54.2434 253.864 52.2972C253.278 49.9611 253.519 47.5561 253.175 45.2062C253.088 44.5368 253.151 43.8564 253.361 43.2146C253.547 42.6151 253.161 42.0845 253.423 41.4505C253.637 40.9337 253.299 40.2101 253.313 39.5761C253.388 36.7714 254.002 34.0011 253.747 31.1551C253.581 29.0395 253.988 26.2141 253.995 24.0571C253.995 20.5151 254.498 16.9937 254.25 13.4034C254.069 11.1376 253.214 8.97779 251.797 7.20129C251.107 6.25031 250.115 5.50606 249.364 4.58953C249.178 4.35813 248.945 4.16943 248.68 4.03626C248.415 3.90308 248.124 3.82854 247.827 3.81772C246.201 3.63855 244.533 3.76948 242.962 3.1286C242.498 2.91414 241.974 2.87021 241.48 3.00456C240.363 3.33219 239.19 3.42372 238.035 3.27331C235.389 3.15616 101.817 3.87285 99.2326 3.92108C97.9646 3.92108 96.6553 4.24497 95.3184 3.74191C94.0078 3.2102 92.5958 2.97488 91.1837 3.0528C89.9639 3.16305 88.7993 3.00456 87.6071 2.99767C84.0719 2.93564 80.6264 1.7986 77.1118 2.06736C75.3201 2.17761 73.5078 2.01912 71.7023 1.9571L68.3876 1.81238C68.3325 2.38435 68.2636 2.95632 68.1878 3.52829C69.3041 3.52829 70.4136 3.52829 71.53 3.52829C73.5215 3.52829 75.4649 3.7557 77.4357 3.79704C77.6456 3.8295 77.8513 3.88497 78.0491 3.96243C77.863 4.12782 77.7045 4.3759 77.4909 4.4586C76.2367 4.94098 74.9549 5.35445 73.7076 5.83684C72.6946 6.25031 71.716 6.75336 70.7375 7.21507C70.5859 7.29088 70.4894 7.47694 70.3654 7.61476C70.5377 7.70435 70.7168 7.89041 70.8822 7.87663C71.3502 7.84711 71.8129 7.7615 72.2605 7.62165C73.5916 7.21809 74.9005 6.74423 76.1815 6.20207C77.7321 5.51295 79.3859 5.65766 81.0054 5.38891C82.6248 5.12015 84.2511 5.79549 85.6225 4.56197C85.7534 4.44482 86.1324 4.56197 86.3874 4.63088C87.0765 4.7687 87.7656 5.14083 88.4547 5.03057C90.4619 4.76113 92.504 4.9472 94.4294 5.57497C94.8986 5.77068 95.4191 5.80699 95.911 5.67834C96.6865 5.39263 97.5351 5.37323 98.3229 5.62321C100.287 5.96777 233.239 5.62321 235.161 5.41647C236.197 5.23855 237.241 5.11435 238.29 5.04435C240.481 5.04435 242.673 5.14772 244.864 5.26487C246.369 5.30496 247.81 5.879 248.93 6.8843C250.735 8.43481 251.686 10.3299 252.534 12.4386C252.562 12.6005 252.562 12.766 252.534 12.9279C252.438 14.447 252.438 15.9707 252.534 17.4898C252.761 19.4883 252.21 21.4523 252.369 23.4025C252.617 26.4139 251.921 30.0387 251.907 33.0088C251.946 33.5043 251.825 33.9992 251.562 34.421C251.299 34.8427 250.908 35.169 250.446 35.3518C250.032 35.5241 249.874 35.6895 249.97 35.9789C250.067 36.2683 250.384 36.3166 250.66 36.4199C251.059 36.5922 251.755 36.6129 251.852 36.8816C252.1 37.5708 251.39 37.8602 250.956 38.0945C249.946 38.6309 248.904 39.1028 247.834 39.5072C246.821 39.9 245.767 40.1963 244.754 40.5615C244.58 40.6477 244.416 40.7516 244.265 40.8716C244.519 40.9957 244.816 41.2644 245.036 41.2162C245.725 41.0715 246.297 40.7269 246.945 40.5891C248.458 40.3416 249.933 39.9016 251.335 39.2798C251.473 39.2178 251.686 39.1695 251.783 39.2384C251.879 39.3073 251.955 39.6174 251.9 39.6519C251.3 40.1481 251.659 40.658 251.735 41.2369C251.762 42.0744 251.704 42.9125 251.562 43.7384C250.977 44.4275 250.611 45.0201 250.184 45.5232C249.433 46.3363 249.447 46.4742 250.446 47.1909C250.735 47.4458 250.993 47.7324 251.218 48.0454C250.789 48.3446 250.326 48.5921 249.839 48.7827C249.233 48.9412 248.565 48.8585 247.951 49.0101C247.71 49.0653 247.552 49.465 247.359 49.6993C247.623 49.83 247.907 49.9184 248.199 49.9611C248.889 49.9611 249.578 49.8784 250.267 49.8577C250.405 49.8577 250.549 49.9818 250.687 50.0507C250.563 50.161 250.446 50.3264 250.308 50.3608C249.75 50.5055 249.178 50.5813 248.627 50.7191C247.379 51.0499 246.146 51.4703 244.878 51.7115C244.189 51.8424 244.526 52.2559 244.43 52.5591C244.659 52.5867 244.89 52.5867 245.119 52.5591C246.229 52.2972 247.31 51.9182 248.434 51.7528C248.727 51.6603 249.042 51.6582 249.337 51.7467C249.632 51.8351 249.893 52.0101 250.088 52.249C250.239 52.4626 250.639 52.5246 250.935 52.6004C251.455 52.7197 251.924 52.9983 252.277 53.3974C252.631 53.7965 252.851 54.2961 252.906 54.8263C253.29 57.2979 253.308 59.8124 252.961 62.2895C252.556 64.8342 251.675 67.2797 250.363 69.4976C250.004 69.9929 249.532 70.3947 248.985 70.6691C247.067 71.744 244.845 72.1444 242.673 71.8062C241.391 71.6477 240.068 71.8751 238.779 71.7511C236.987 71.5788 104.18 71.1446 102.389 70.9999C100.455 70.8817 98.5144 70.9186 96.5863 71.1102C94.8491 71.3132 93.0914 71.2598 91.3697 70.9517C90.0975 70.663 88.8051 70.4718 87.5038 70.3797C85.1282 70.2453 82.7469 70.2453 80.3714 70.3797C78.1249 70.4624 75.8714 70.2488 73.6249 70.1661C72.5706 70.1247 71.5231 70.1041 70.4687 70.0765L70.6135 71.4134C71.3017 71.2935 72.008 71.3289 72.6808 71.5168C74.0282 71.9915 75.461 72.1747 76.8844 72.0543C79.0945 71.8579 81.3175 71.8579 83.5275 72.0543C83.9497 72.047 84.3709 72.0124 84.7886 71.9509C85.9601 71.9027 87.1385 71.8337 88.31 71.8613C88.7788 71.9567 89.2396 72.088 89.6883 72.2541C90.97 72.5091 92.3345 72.2128 93.5473 72.9432C93.8026 73.0401 94.0845 73.0401 94.3398 72.9432C96.2762 72.3988 98.2609 72.5298 100.225 72.5504C101.734 72.5504 234.279 72.7503 235.775 72.9363C236.735 73.0585 237.684 73.2543 238.614 73.5221C239.523 73.784 240.495 72.9019 241.37 73.7288C241.473 73.7911 241.588 73.829 241.708 73.8398C241.827 73.8505 241.947 73.8338 242.059 73.7908C243.637 73.2602 245.278 73.97 246.952 73.467C248.792 72.895 250.48 72.2886 251.776 70.9448C251.962 70.7518 252.238 70.5933 252.32 70.359C252.672 69.3667 252.968 68.3606 253.271 67.3545C253.643 66.0865 254.002 64.8047 254.388 63.5574C254.875 61.8404 255.073 60.054 254.973 58.2719V58.2719ZM22.7404 56.0874C23.3537 56.7765 21.748 59.4296 21.307 59.9258C20.8238 60.4997 20.2135 60.953 19.5244 61.2497C18.8354 61.5463 18.0866 61.6782 17.3377 61.6348C17.0901 61.6227 16.8449 61.581 16.6072 61.5107C13.6991 60.6838 12.9135 55.9978 15.8147 54.4955C16.0342 54.3763 16.2651 54.2793 16.5038 54.2061C19.0467 53.517 19.0467 53.517 21.9479 55.1709C22.2304 55.5085 22.4578 55.8186 22.7404 56.0874ZM20.673 56.6456C20.473 56.2667 20.1765 55.9474 19.8135 55.7199C19.4505 55.4924 19.0338 55.3648 18.6057 55.35C17.5789 55.3087 16.6486 55.4878 16.0628 56.3837C15.0085 58.01 15.732 59.4296 17.8752 59.5123L19.3637 59.1126C20.294 58.8576 21.1278 57.4518 20.673 56.6456ZM78.18 70.6829H77.9457C77.8058 70.6374 77.6751 70.5674 77.5598 70.4762C77.7125 70.4518 77.8626 70.4126 78.0077 70.359L78.1662 70.2832C78.1662 69.918 78.1662 69.5941 78.118 69.1944C77.0429 69.6424 75.9817 70.1041 74.8998 70.5244C74.328 70.7753 73.7117 70.9089 73.0874 70.9172C72.0241 70.8443 70.9565 70.9682 69.9381 71.2825C69.7934 71.3307 69.5867 71.1653 69.4075 71.1033C69.5178 70.9517 69.6005 70.7381 69.7452 70.6691C70.4343 70.3177 71.1785 70.0283 71.8608 69.663C72.0606 69.5528 72.1433 69.2358 72.2811 69.0153C72.0262 68.9395 71.7436 68.7534 71.53 68.8085C70.661 68.9509 69.8194 69.2276 69.0354 69.6286C67.504 70.5493 65.7688 71.0772 63.9841 71.1653C63.55 71.2066 63.109 71.2067 62.6679 71.2342C62.7575 70.5451 63.4673 70.7449 63.8394 70.4693C66.4581 68.5673 69.566 67.6508 72.4258 66.2243C72.9496 65.9625 72.8255 65.7144 72.9358 65.4043C72.6733 65.3623 72.4058 65.3623 72.1433 65.4043C70.8478 65.9418 69.6142 66.6516 68.2773 67.0582C64.6043 68.1745 61.5309 70.5933 57.8992 71.7648C56.7139 72.1439 55.5011 67.6921 54.2745 67.7955C52.2967 67.9609 29.6109 68.0091 27.6262 68.0712C24.4905 68.1462 21.3889 68.74 18.4472 69.8284C16.3798 70.6071 14.0919 70.7725 11.9419 71.372C10.7553 71.6685 9.53206 71.7915 8.31022 71.7373C7.59341 71.7445 6.89218 71.528 6.30422 71.1179C5.71626 70.7078 5.27084 70.1246 5.03002 69.4494C4.42359 68.0712 3.54841 66.6929 3.65178 65.0184C3.65178 64.3292 3.30722 63.523 3.60354 63.0957C4.07214 62.4066 3.91364 61.7175 4.04458 61.0284C4.89219 56.2872 4.94043 51.4289 5.67779 46.674C6.09815 43.9175 6.77349 46.0814 7.0009 43.3042C7.01062 42.8297 7.1746 42.3713 7.46802 41.9983C7.76145 41.6253 8.16836 41.358 8.62722 41.2369C8.87123 41.1721 9.1037 41.0698 9.31634 40.9337C9.50568 40.7717 9.67878 40.5917 9.83318 40.3961C9.46105 40.3961 9.30255 39.645 8.7995 40.1274C8.70302 40.217 8.46872 40.1274 8.35157 40.2239C8.11038 40.3824 7.82784 40.6236 7.91742 40.086C8.07043 39.1354 8.28684 38.1962 8.5652 37.2744C8.62722 37.0815 9.08893 36.9712 9.39214 36.8885C10.0813 36.7025 10.8048 36.5646 11.5077 36.3855C11.6721 36.3087 11.8233 36.2064 11.9557 36.0823C11.8178 35.9582 11.6938 35.7584 11.5353 35.7377C10.8462 35.6412 10.095 35.5792 9.36457 35.5379C8.63411 35.4965 8.27577 35.2622 8.39292 34.5386C8.49629 33.9529 8.90287 33.8495 9.48172 33.8495C11.0047 33.9115 12.5345 33.9184 14.0575 33.9184C14.3673 33.8906 14.6727 33.8258 14.9671 33.7255C15.1601 33.6772 15.3461 33.6014 15.5391 33.5394C15.3392 33.3534 15.1532 33.0295 14.9464 33.0157C13.6934 32.9022 12.4344 32.8676 11.177 32.9123C10.704 32.9922 10.2192 32.9669 9.75709 32.8383C9.29498 32.7097 8.86686 32.4808 8.50318 32.1681C8.34468 32.0165 8.10349 31.8373 8.08281 31.6581C7.87608 29.2738 6.58743 26.2279 7.86919 23.7884C7.98307 23.416 8.02974 23.0263 8.00701 22.6376C8.13105 21.2593 8.2528 19.8673 8.37224 18.4615C8.39378 17.4539 8.49284 16.4494 8.66856 15.4569C8.89597 14.5335 8.62722 13.617 8.86152 12.7005C8.97979 12.3862 9.01307 12.0463 8.95799 11.715C8.15173 9.29621 10.0537 7.82839 11.0254 6.06424C11.2665 5.62321 12.0797 5.37513 12.6792 5.25108C14.9602 4.7687 17.0827 3.66611 19.4602 3.54896C20.4111 3.50761 21.3552 3.37668 22.2993 3.2802C24.0494 3.11856 25.8081 3.07252 27.5642 3.14238C29.6867 3.19751 52.4207 2.63243 54.5708 2.8116C56.1764 2.94943 57.9681 3.10103 59.5944 2.38435C59.8644 2.32336 60.1445 2.32336 60.4145 2.38435C62.3481 2.49012 64.2867 2.46479 66.2169 2.30855C68.3075 2.21344 70.4002 2.44596 72.4189 2.99767L72.3569 1.50228C72.1433 1.46093 71.9366 1.41958 71.7436 1.37135C71.2337 1.2473 70.5859 0.792485 70.2689 0.964765C69.5798 1.34378 68.9665 1.0957 68.3394 1.06813C65.514 0.964765 62.7093 0.813159 59.8632 0.689117C59.6567 0.713073 59.4518 0.749897 59.2499 0.799376C57.1825 1.013 34.3658 1.26109 32.2571 1.41958C30.493 1.55052 28.7288 1.57808 26.9578 1.6401C25.9379 1.68145 24.8904 1.68834 23.8912 1.7159C22.9752 1.80417 22.0542 1.8295 21.1347 1.79171C18.8331 1.54362 16.745 2.69445 14.4709 2.81849C13.389 2.88052 12.3485 3.61098 11.2734 3.98311C9.11649 4.74114 8.11038 6.53974 7.26965 8.4486C6.93083 9.11936 6.75606 9.86096 6.75971 10.6124C6.96868 12.8742 6.98482 15.1496 6.80794 17.414C6.67701 18.7923 6.56675 20.205 6.44271 21.597C6.44271 21.9278 6.50473 22.3412 6.33934 22.5824C5.31945 24.064 5.29877 26.3381 5.5882 28.0265C5.89141 29.8388 5.96722 31.6926 6.27732 33.505C6.46769 34.6062 6.55536 35.7228 6.53919 36.8403C6.53919 39.3831 5.73981 41.7744 5.16095 44.1794C4.97489 44.9305 5.28499 45.5576 5.06447 46.2468C4.85788 46.8546 4.68534 47.4735 4.54763 48.1005C4.31333 49.21 4.13416 45.4818 3.90675 46.612C3.73816 47.0635 3.59324 47.5236 3.47261 47.9902C2.83173 53.3998 2.95577 58.9059 1.40525 64.2052C1.32171 64.6252 1.35996 65.0604 1.51551 65.4594C1.99919 67.1 2.57905 68.7108 3.25209 70.2832C3.82406 71.4961 4.67167 72.8536 6.00857 73.1362C7.76742 73.6186 9.61376 73.6893 11.4044 73.3429C12.5552 73.0604 13.706 72.7434 14.85 72.454C15.4161 72.3751 15.9757 72.2554 16.5245 72.0956C19.524 70.8925 22.6886 70.1514 25.9103 69.8973C26.82 69.8146 27.7365 69.8146 28.6668 69.794C29.797 69.8737 30.9323 69.846 32.0573 69.7113C34.6621 69.1255 57.9957 73.6255 60.6143 73.1569C62.9349 72.7181 65.3052 72.6044 67.6571 72.8192C68.0406 72.8721 68.4281 72.8905 68.8149 72.8743C70.0277 72.7916 71.2337 72.6469 72.4534 72.5711C73.4733 72.5091 74.5621 72.7434 75.5062 72.4471C76.3998 72.1792 77.33 72.0536 78.2627 72.0749C78.2007 71.5926 78.1869 71.1377 78.1662 70.6829H78.18ZM23.4295 13.2311C22.6508 14.5266 21.3621 14.8092 20.1493 15.1606C18.4334 15.6499 17 14.8919 15.7941 13.7824C14.2711 12.3352 15.4633 9.71657 16.7657 9.03435C16.9679 8.92818 17.1803 8.84275 17.3997 8.77937C19.6531 8.15917 19.6531 8.15917 22.2235 9.63388C22.5085 10.0089 22.8194 10.3635 23.1538 10.6951C23.4967 11.0143 23.7132 11.4461 23.7638 11.9118C23.8144 12.3774 23.6957 12.8457 23.4295 13.2311V13.2311ZM21.1347 10.9088C20.9546 10.57 20.6885 10.2846 20.363 10.0814C20.0376 9.87817 19.6644 9.76422 19.281 9.75103C18.8557 9.68151 18.4195 9.73097 18.0206 9.89394C17.6217 10.0569 17.2756 10.327 17.0207 10.6744C16.0835 12.1216 16.7244 13.3827 18.6332 13.4309L19.9288 13.0933C20.7833 12.8727 21.5206 11.6185 21.1072 10.9088H21.1347Z" fill="black"/>
<path d="M165.505 12.4041C165.545 12.7205 165.674 13.0191 165.877 13.2655C166.31 13.5938 166.836 13.7749 167.379 13.7823C177.888 15.0158 188.528 12.7142 199.134 12.9347C198.642 9.94851 198.066 6.97611 197.404 4.01749C197.369 3.74494 197.228 3.49721 197.011 3.32837C196.768 3.20822 196.497 3.1536 196.226 3.16988C192.436 3.12164 188.714 3.96236 184.938 4.17599C181.887 4.27937 178.832 4.18268 175.793 3.88656L168.957 3.36283C167.641 3.25946 163.927 2.41874 162.9 3.2319C161.742 4.15532 163.41 6.25024 163.81 7.21501C164.52 8.89374 165.087 10.6296 165.505 12.4041V12.4041Z" fill="#6A92A5" stroke="black" stroke-width="1.41269" stroke-miterlimit="10"/>
<path opacity="0.2" d="M163.927 5.33389L165.147 7.52528L196.267 7.94565V4.76192L163.927 5.33389Z" fill="white"/>
</g>
<defs>
<clipPath id="clip0_62_23">
<rect width="257" height="78.0014" fill="white"/>
</clipPath>
</defs>
</svg>
