<svg width="324" height="103" viewBox="0 0 324 103" fill="none" xmlns="http://www.w3.org/2000/svg">
<path d="M311.425 85.3004C310.725 84.6004 310.125 83.9004 309.425 83.2004C308.925 82.6004 309.225 82.3004 309.525 81.6004C310.625 79.4004 312.425 78.8004 314.625 78.5004C315.125 78.4004 315.525 77.9004 316.025 77.7004C315.625 77.5004 315.125 77.1004 314.725 77.1004C312.625 77.0004 311.025 76.1004 309.625 74.6004C308.925 73.9004 308.425 73.3004 307.325 72.9004C304.525 72.0004 303.725 70.3004 304.225 67.6004C304.525 66.2004 304.425 65.0004 303.425 63.8004C302.925 63.2004 302.725 62.2004 302.625 61.4004C302.525 60.2004 302.325 58.8004 303.625 58.0004C306.425 56.1004 309.125 53.9004 312.125 52.5004C314.825 51.3004 316.425 49.3004 318.125 47.1004C318.925 46.1004 318.625 45.3004 317.525 44.8004C316.625 44.4004 315.825 44.0004 315.025 43.5004C312.525 42.0004 310.225 40.2004 308.025 38.3004C305.125 35.9004 305.225 32.4004 307.425 29.8004C307.925 29.2004 308.525 28.7004 309.125 28.1004C310.325 26.9004 310.225 26.8004 308.725 25.9004C308.025 25.5004 307.225 25.0004 306.725 24.3004C305.125 22.5004 305.625 21.4004 308.025 20.6004C308.625 20.4004 309.225 20.4004 309.825 20.3004C310.125 20.2004 310.625 19.9004 310.625 19.7004C310.625 19.4004 310.225 19.1004 310.025 18.8004C309.925 18.7004 309.625 18.7004 309.525 18.7004C307.525 19.1004 307.225 16.9004 305.925 16.2004C305.125 15.8004 305.325 12.6004 306.125 12.0004C308.425 10.3004 310.725 8.60039 313.125 7.00039C313.825 6.50039 314.525 6.20039 315.225 5.80039C314.225 5.60039 313.325 5.30039 312.325 5.20039C311.925 5.20039 311.525 5.50039 311.125 5.60039C310.625 5.70039 310.125 5.90039 309.625 5.80039C306.325 5.30039 303.225 5.90039 300.025 6.30039C298.325 6.50039 296.625 7.40039 295.025 7.20039C291.525 6.80039 288.025 8.20039 284.425 7.20039C281.925 8.10039 279.525 7.40039 277.025 7.10039C276.125 7.00039 275.225 6.80039 274.325 6.80039C271.325 6.80039 268.325 6.80039 264.825 6.80039C263.625 6.60039 262.425 6.50039 261.125 6.70039C259.425 6.90039 257.525 6.60039 255.825 6.40039C252.425 6.10039 248.925 5.60039 245.525 5.30039C245.325 5.30039 245.125 5.20039 245.025 5.20039C241.825 5.20039 238.725 5.30039 235.525 5.30039C232.725 5.30039 229.825 4.80039 227.025 5.10039C222.325 5.60039 217.725 4.80039 213.025 4.90039C209.725 4.90039 206.425 4.60039 203.125 4.40039C201.725 4.30039 200.225 4.10039 198.925 4.30039C195.225 4.70039 191.525 3.90039 187.825 4.10039C185.925 4.20039 184.125 3.80039 182.225 3.80039C179.025 3.80039 175.925 3.90039 172.725 3.90039C169.425 3.80039 166.125 3.50039 162.825 3.40039C161.325 3.40039 159.925 3.60039 158.425 3.60039C155.925 3.60039 153.525 3.90039 151.025 3.60039C148.125 3.20039 145.425 4.00039 142.525 3.50039C139.825 3.10039 136.925 3.60039 134.225 3.70039C131.625 3.70039 128.925 3.50039 126.325 3.50039C123.325 3.60039 120.225 4.40039 117.325 4.10039C113.025 3.70039 108.825 4.10039 104.525 3.80039C102.725 3.70039 100.925 3.60039 99.2254 3.50039C97.1254 3.50039 95.0254 3.50039 92.9254 3.50039C91.3254 3.50039 89.8254 3.60039 88.2254 3.60039C85.7254 3.60039 83.1254 3.70039 80.6254 3.60039C78.2254 3.50039 75.8254 3.20039 73.3254 3.00039C71.8254 2.90039 70.3254 2.90039 68.8254 2.90039C66.5254 3.00039 64.3254 3.50039 62.1254 3.30039C57.4254 2.90039 52.8254 3.10039 48.1254 3.30039C46.3254 3.40039 44.4254 3.40039 42.6254 3.30039C39.6254 3.10039 36.6254 4.00039 33.6254 3.20039C32.7254 3.00039 31.7254 3.10039 30.7254 3.20039C26.1254 3.70039 21.5254 4.40039 16.9254 4.80039C13.5254 5.10039 10.1254 5.70039 6.82539 6.70039C6.12539 6.90039 5.62539 7.40039 5.02539 7.80039C5.62539 8.10039 6.22539 8.60039 6.82539 8.80039C8.92539 9.20039 11.0254 9.50039 13.1254 9.90039C16.6254 10.6004 19.9254 11.6004 22.5254 14.3004C23.1254 15.0004 24.0254 17.2004 23.7254 17.9004C22.8254 19.8004 21.7254 21.6004 19.7254 22.7004C18.5254 23.4004 17.3254 23.9004 16.2254 24.7004C14.4254 26.1004 12.7254 27.8004 11.0254 29.3004C11.2254 29.5004 11.3254 29.8004 11.6254 29.9004C13.4254 30.5004 15.4254 30.1004 17.1254 31.3004C17.7254 31.8004 18.7254 31.8004 18.6254 32.8004C18.5254 33.9004 18.2254 34.9004 17.1254 35.3004C16.9254 35.4004 16.6254 35.4004 16.4254 35.6004C16.2254 35.8004 16.0254 36.1004 15.8254 36.4004C16.1254 36.6004 16.4254 36.8004 16.7254 36.9004C18.2254 37.3004 19.9254 37.2004 21.2254 38.0004C23.3254 39.3004 25.4254 40.2004 27.8254 40.5004C28.5254 40.6004 29.3254 40.7004 30.0254 40.9004C31.4254 41.3004 33.2254 43.4004 33.1254 44.5004C33.0254 45.6004 30.7254 48.7004 29.8254 48.6004C28.4254 48.4004 27.8254 49.3004 26.9254 49.9004C26.0254 50.4004 25.3254 51.4004 24.4254 51.6004C21.2254 52.4004 18.5254 54.0004 15.5254 55.3004C14.8254 55.6004 14.1254 56.1004 13.4254 56.6004C13.2254 56.8004 13.1254 57.2004 12.9254 57.5004C13.1254 57.6004 13.4254 57.8004 13.6254 57.8004C14.9254 57.8004 16.2254 58.6004 17.6254 58.0004C18.3254 57.7004 19.3254 58.1004 19.9254 59.1004C20.4254 59.9004 20.4254 60.2004 19.7254 60.9004C19.3254 61.3004 19.1254 62.3004 20.4254 62.4004C21.6254 62.5004 22.8254 63.2004 22.9254 64.4004C23.0254 65.7004 22.9254 67.1004 21.3254 67.9004C19.5254 68.8004 18.3254 70.4004 17.2254 72.0004C15.9254 73.8004 14.5254 75.6004 12.9254 77.2004C12.2254 78.0004 11.8254 78.8004 12.3254 79.6004C12.8254 80.5004 13.7254 81.4004 14.6254 81.7004C15.8254 82.0004 17.2254 81.7004 18.5254 81.6004C20.5254 81.4004 21.9254 82.9004 21.3254 84.8004C21.0254 85.9004 20.3254 87.0004 19.7254 88.0004C18.4254 90.0004 18.5254 90.0004 20.4254 91.8004C21.1254 92.4004 21.6254 93.4004 21.7254 94.3004C21.8254 94.8004 21.0254 95.5004 20.5254 96.0004C19.3254 97.1004 18.0254 98.1004 16.8254 99.1004C16.5254 99.3004 16.3254 99.5004 16.1254 99.8004C16.5254 99.9004 17.1254 100.3 17.3254 100.2C19.1254 99.0004 21.2254 99.3004 23.1254 99.1004C26.5254 98.7004 29.8254 98.6004 33.2254 98.4004C35.9254 98.3004 38.6254 98.3004 41.3254 98.0004C43.7254 97.8004 46.1254 97.4004 48.4254 97.0004C54.5254 95.9004 60.7254 95.7004 66.9254 96.2004C68.4254 96.3004 69.9254 96.4004 71.4254 96.4004C72.7254 96.4004 74.0254 96.2004 75.3254 96.1004C77.6254 95.9004 79.9254 95.5004 82.3254 95.5004C85.8254 95.4004 89.4254 95.9004 92.8254 95.5004C99.0254 94.8004 105.225 95.1004 111.525 95.3004C113.125 95.4004 114.725 95.6004 116.325 95.4004C120.925 94.9004 125.525 94.8004 130.025 95.5004C132.025 95.8004 134.225 96.2004 136.225 95.9004C140.225 95.3004 144.225 96.3004 148.325 95.9004C152.925 95.4004 157.625 95.7004 162.325 95.9004C166.525 96.1004 170.725 95.9004 174.825 96.4004C179.225 96.9004 183.525 96.5004 187.825 96.5004C193.025 96.5004 198.325 96.6004 203.625 96.5004C207.025 96.4004 210.425 96.8004 213.925 96.6004C219.025 96.3004 224.125 96.7004 229.225 96.8004C230.925 96.8004 232.525 96.8004 234.225 96.7004C237.225 96.6004 240.325 96.4004 243.325 96.4004C245.925 96.4004 248.625 96.8004 251.225 96.5004C256.325 96.1004 261.525 95.2004 266.625 94.8004C270.325 94.5004 274.025 94.8004 277.725 94.8004C280.325 94.8004 283.025 94.9004 285.625 94.8004C288.525 94.7004 291.525 94.3004 294.425 94.3004C297.225 94.3004 300.125 94.8004 302.925 94.4004C305.725 94.0004 308.525 93.8004 311.325 94.2004C312.825 94.4004 314.325 94.5004 315.825 94.4004C317.125 94.3004 318.425 93.8004 319.725 93.5004C318.925 92.5004 318.225 91.3004 317.325 90.4004C315.025 88.4004 313.225 86.9004 311.425 85.3004ZM41.5254 89.0004C41.2254 88.9004 40.9254 89.9004 40.6254 89.9004C39.1254 89.8004 37.7254 90.0004 36.3254 90.3004C35.3254 89.8004 34.3254 89.1004 33.4254 88.3004C30.9254 85.9004 32.9254 81.7004 35.0254 80.6004C35.3254 80.4004 35.7254 80.3004 36.0254 80.2004C39.7254 79.2004 39.7254 79.2004 43.9254 81.6004C44.3254 82.1004 44.7254 82.5004 45.0254 82.9004C45.0254 85.7004 43.6254 87.2004 41.5254 89.0004ZM57.6254 22.3004C56.4254 24.4004 54.3254 24.9004 52.3254 25.4004C49.5254 26.2004 47.2254 25.0004 45.2254 23.1004C42.7254 20.7004 44.7254 16.5004 46.8254 15.4004C47.1254 15.2004 47.5254 15.1004 47.8254 15.0004C51.5254 14.0004 51.5254 14.0004 55.7254 16.4004C56.3254 17.1004 56.7254 17.7004 57.2254 18.1004C58.5254 19.2004 58.5254 20.8004 57.6254 22.3004ZM281.625 24.9004C280.725 24.4004 280.225 23.8004 279.925 23.1004C279.425 22.1004 279.425 20.9004 279.125 19.6004C278.525 16.2004 282.625 14.0004 285.025 14.3004C285.425 14.4004 285.725 14.5004 286.125 14.6004C289.725 16.0004 289.725 16.0004 291.625 20.4004C291.625 21.0004 291.625 21.6004 291.725 22.1004C291.825 22.6004 289.925 23.8004 289.525 24.1004C288.725 24.6004 288.125 25.3004 287.525 25.7004C287.325 25.9004 286.925 25.9004 286.625 25.9004C284.925 25.9004 283.125 25.7004 281.625 24.9004ZM298.925 81.7004C297.625 84.5004 295.525 85.1004 293.525 85.8004C290.725 86.8004 288.425 85.1004 286.425 82.5004C284.025 79.2004 286.025 73.5004 288.125 72.0004C288.425 71.8004 288.825 71.6004 289.125 71.5004C292.825 70.2004 292.825 70.2004 297.025 73.6004C297.625 74.5004 298.025 75.3004 298.525 76.0004C299.925 77.5004 299.825 79.7004 298.925 81.7004Z" fill="#A07A53"/>
<path d="M51.2252 4C55.6252 4.2 60.2252 4.4 64.7252 4.5C66.4252 4.5 68.0252 4.5 69.7252 4.5C84.4252 4.5 99.2252 3.9 113.825 2.8C116.125 2.6 118.425 2.2 120.625 1.8C116.725 1.7 112.925 1.6 109.025 1.5C94.3252 2.5 79.4252 3 64.7252 2.9C60.2252 2.8 55.6252 2.6 51.2252 2.4C50.8252 2.4 50.5252 2.4 50.1252 2.4C48.3252 2.4 46.5252 2.4 44.8252 2.4C43.3252 2.4 41.8252 2.3 40.3252 2.2C38.5252 2.4 36.6252 2.6 34.8252 2.8C34.1252 2.9 33.5252 3 32.8252 3.1C34.1252 3.3 35.4252 3.5 36.6252 3.5C41.6252 3.6 46.5252 3.8 51.2252 4Z" fill="#8C6239"/>
<path d="M76.626 1.70039C80.526 1.70039 84.426 1.60039 88.226 1.40039C87.326 1.40039 86.426 1.40039 85.526 1.40039C81.926 1.40039 78.226 1.50039 74.626 1.70039C75.326 1.70039 76.026 1.70039 76.626 1.70039Z" fill="#8C6239"/>
<path d="M28.4254 43.3002C38.4254 41.4002 49.6254 41.1001 60.9254 42.7001C66.5254 43.5001 73.2254 44.2001 79.5254 43.7001C80.7254 43.6001 81.8254 43.5002 82.9254 43.3002C85.2254 43.0002 87.3254 42.7002 89.4254 43.0002C89.8254 43.1002 90.2254 42.8002 90.3254 42.3002C90.4254 41.9002 90.1254 41.5001 89.6254 41.4001C87.2254 41.1001 84.9254 41.4001 82.6254 41.7001C81.5254 41.8001 80.4254 42.0001 79.3254 42.1001C73.1254 42.5001 66.6254 41.8001 61.0254 41.1001C49.1254 39.5001 37.4254 39.8001 27.0254 41.9001C27.7254 42.3001 28.1254 42.8002 28.4254 43.3002Z" fill="#8C6239"/>
<path d="M87.7256 36.9012C86.2256 36.7012 84.9256 36.2012 83.4256 35.8012C81.2256 35.1012 78.9256 34.4012 76.2256 34.4012C71.7256 34.3012 67.1256 33.9012 62.8256 33.6012C61.4256 33.5012 59.9256 33.4012 58.5256 33.2012C55.5256 33.0012 52.6256 32.7012 49.7256 32.4012C45.3256 31.9012 40.7256 31.5012 36.1256 31.5012C28.9256 31.6012 21.2256 29.7012 11.9256 25.5012C11.7256 25.4012 11.4256 25.3012 11.2256 25.2012C10.9256 25.7012 10.6256 26.1012 10.2256 26.5012C10.6256 26.6012 10.9256 26.8012 11.3256 26.9012C20.8256 31.2012 28.7256 33.1012 36.2256 33.0012C40.7256 32.9012 45.0256 33.4012 49.6256 33.9012C52.5256 34.2012 55.5256 34.5012 58.5256 34.7012C59.9256 34.8012 61.3256 34.9012 62.8256 35.1012C67.2256 35.5012 71.7256 35.9012 76.4256 35.9012C78.9256 35.9012 81.0256 36.5012 83.2256 37.2012C84.6256 37.6012 86.1256 38.1012 87.7256 38.4012H87.8256C88.2256 38.4012 88.5256 38.1012 88.6256 37.7012C88.4256 37.4012 88.2256 36.9012 87.7256 36.9012Z" fill="#8C6239"/>
<path d="M124.526 18.8009C124.326 18.4009 123.926 18.2009 123.526 18.3009C120.326 19.5009 116.626 19.9009 113.026 20.4009C111.226 20.6009 109.326 20.8009 107.526 21.2009C101.926 22.2009 96.3258 22.5009 90.8258 22.8009C89.7258 22.9009 88.5258 22.9009 87.4258 23.0009C83.4258 23.2009 79.2258 23.4009 75.2258 23.6009C57.8258 24.5009 39.9258 25.4009 22.6258 21.8009C21.3258 21.5009 20.1258 21.2009 18.8258 20.8009C18.6258 21.3009 18.3258 21.8009 17.9258 22.2009C19.3258 22.6009 20.8258 23.0009 22.2258 23.3009C31.9258 25.4009 41.8258 26.0009 51.6258 26.0009C59.5258 26.0009 67.4258 25.6009 75.2258 25.2009C79.2258 25.0009 83.3258 24.8009 87.4258 24.6009C88.5258 24.5009 89.6258 24.5009 90.8258 24.4009C96.3258 24.1009 102.126 23.7009 107.726 22.7009C109.526 22.4009 111.326 22.2009 113.126 21.9009C116.826 21.5009 120.526 21.0009 123.926 19.8009C124.426 19.7009 124.626 19.2009 124.526 18.8009Z" fill="#8C6239"/>
<path d="M114.826 10.4C111.326 11.1 107.726 11.8 104.326 12.4C97.7256 13.8 90.9256 15.1 84.2256 16.1C67.0256 18.9 45.8256 18.4 26.1256 14.7C20.1256 13.6 14.0256 11.7 8.22559 9.8C6.82559 9.4 5.42559 8.9 4.02559 8.5C3.62559 8.6 3.12559 8.7 2.72559 8.8C3.22559 9.2 3.62559 9.7 3.92559 10.2C5.22559 10.6 6.42559 11 7.72559 11.4C9.92559 12.1 12.2256 12.8 14.4256 13.5C15.5256 13.5 16.4256 13.8 17.1256 14.3C20.0256 15.1 22.8256 15.8 25.7256 16.4C37.1256 18.5 48.9256 19.6 60.2256 19.6C68.7256 19.6 76.9256 19 84.3256 17.8C91.1256 16.8 97.9256 15.4 104.526 14.1C107.926 13.4 111.526 12.7 115.026 12.1C115.426 12 115.726 11.6 115.626 11.2C115.626 10.6 115.226 10.3 114.826 10.4Z" fill="#8C6239"/>
<path d="M107.526 17.0995C103.526 18.0995 99.326 18.2995 95.226 18.5995C92.426 18.7995 89.626 18.8995 86.826 19.2995C86.426 19.3995 86.126 19.7995 86.126 20.1995C86.226 20.5995 86.526 20.8995 86.926 20.8995H87.026C89.726 20.4995 92.526 20.2995 95.226 20.1995C99.426 19.9995 103.726 19.6995 107.826 18.6995C108.226 18.5995 108.526 18.1995 108.426 17.6995C108.426 17.2995 108.026 16.9995 107.526 17.0995Z" fill="#8C6239"/>
<path d="M115.026 14.9995C114.526 15.3995 114.026 15.4995 113.326 15.3995C112.926 15.2995 112.426 15.5995 112.426 15.9995C112.326 16.3995 112.626 16.8995 113.026 16.8995C113.326 16.8995 113.526 16.9995 113.826 16.9995C114.626 16.9995 115.326 16.6995 116.026 16.1995C116.326 15.8995 116.426 15.3995 116.126 15.0995C115.926 14.7995 115.426 14.6995 115.026 14.9995Z" fill="#8C6239"/>
<path d="M101.026 7.20078C97.4256 7.60078 93.9256 8.60078 90.5256 9.50078C86.2256 10.6008 81.8256 11.8008 77.2256 12.0008C73.3256 12.1008 69.4256 12.3008 65.6256 12.4008C52.4256 13.0008 40.0256 13.5008 27.0256 10.9008C23.0256 10.0008 18.9256 8.80078 15.0256 7.60078C14.2256 7.30078 13.3256 7.10078 12.5256 6.80078C11.4256 7.00078 10.3256 7.30078 9.22559 7.50078C11.0256 8.00078 12.8256 8.60078 14.6256 9.10078C18.6256 10.3008 22.7256 11.6008 26.8256 12.5008C34.5256 14.1008 41.9256 14.6008 49.5256 14.6008C54.9256 14.6008 60.3256 14.4008 65.8256 14.1008C69.6256 13.9008 73.5256 13.8008 77.4256 13.7008C82.2256 13.5008 86.7256 12.3008 91.1256 11.2008C94.4256 10.3008 97.9256 9.40078 101.426 9.00078C101.826 8.90078 102.126 8.50078 102.126 8.10078C101.826 7.50078 101.426 7.20078 101.026 7.20078Z" fill="#8C6239"/>
<path d="M55.0258 9.40078C59.0258 9.40078 63.0258 9.20078 66.9258 8.90078C68.8258 8.70078 70.8258 8.40078 72.6258 8.20078C76.2258 7.70078 79.9258 7.20078 83.6258 7.10078C84.0258 7.10078 84.4258 6.70078 84.4258 6.30078C84.4258 5.90078 84.0258 5.50078 83.6258 5.50078C79.8258 5.50078 76.0258 6.10078 72.4258 6.60078C70.5258 6.90078 68.6258 7.10078 66.7258 7.30078C56.3258 8.20078 46.0258 7.90078 33.1258 6.30078C29.4258 5.90078 25.8258 5.40078 22.2258 4.80078C20.8258 5.10078 19.3258 5.30078 17.9258 5.60078C22.7258 6.60078 27.8258 7.40078 32.9258 7.90078C41.1258 8.90078 48.2258 9.40078 55.0258 9.40078Z" fill="#8C6239"/>
<path d="M112.226 6.20117C111.326 6.20117 110.326 6.30117 109.426 6.40117C108.526 6.50117 107.626 6.60117 106.726 6.60117C106.326 6.60117 105.926 7.00117 105.926 7.40117C105.926 7.80117 106.326 8.20117 106.726 8.20117C107.626 8.20117 108.626 8.10117 109.526 8.00117C110.426 7.90117 111.326 7.80117 112.226 7.80117C112.626 7.80117 113.026 7.40117 113.026 7.00117C113.026 6.50117 112.726 6.20117 112.226 6.20117Z" fill="#8C6239"/>
<path d="M117.725 4.7C117.425 4.4 116.925 4.4 116.625 4.7C116.325 5 116.325 5.5 116.625 5.8C116.925 6.1 117.525 6.3 118.425 6.3C120.725 6.3 124.925 5.2 131.425 3.3C132.725 2.9 133.825 2.6 134.425 2.4C134.725 2.3 135.025 2.3 135.325 2.2C133.525 2.1 131.725 2.1 129.925 2C126.225 3.3 118.925 5.3 117.725 4.7Z" fill="#8C6239"/>
<path d="M129.626 9.70117C128.226 10.1012 126.526 10.4012 124.926 10.6012C122.826 10.9012 120.726 11.3012 118.926 11.9012C118.526 12.1012 118.326 12.5012 118.426 12.9012C118.526 13.2012 118.826 13.4012 119.126 13.4012C119.226 13.4012 119.326 13.4012 119.426 13.4012C121.026 12.8012 123.126 12.5012 125.126 12.1012C126.726 11.8012 128.426 11.5012 129.926 11.1012C135.226 9.90117 140.226 8.00117 144.026 6.50117C147.426 5.30117 150.926 4.10117 154.726 2.80117C153.126 2.80117 151.626 2.70117 150.026 2.70117C147.726 3.50117 145.526 4.20117 143.426 5.00117C139.826 6.60117 134.826 8.50117 129.626 9.70117Z" fill="#8C6239"/>
<path d="M133.725 5.30112C133.025 5.60112 132.325 5.70112 131.525 5.90112C130.725 6.10112 129.925 6.30112 129.125 6.60112C128.725 6.80112 128.525 7.20112 128.625 7.60112C128.725 7.90112 129.025 8.10112 129.325 8.10112C129.425 8.10112 129.525 8.10112 129.625 8.00112C130.325 7.70112 131.025 7.60112 131.825 7.40112C132.625 7.20112 133.425 7.00112 134.225 6.70112C134.625 6.50112 134.825 6.10112 134.725 5.70112C134.625 5.30112 134.225 5.10112 133.725 5.30112Z" fill="#8C6239"/>
<path d="M155.925 10.1004L152.925 10.8004C144.625 12.9004 136.025 15.0004 128.225 16.1004C127.825 16.2004 127.525 16.6004 127.525 17.0004C127.625 17.4004 127.925 17.7004 128.325 17.7004H128.425C136.325 16.6004 145.025 14.5004 153.325 12.4004L156.325 11.7004C161.325 10.4004 166.125 8.30039 170.725 6.30039C173.025 5.30039 175.325 4.30039 177.625 3.40039C176.225 3.40039 174.825 3.40039 173.425 3.40039C172.325 3.90039 171.225 4.40039 170.025 4.80039C165.525 6.80039 160.825 8.80039 155.925 10.1004Z" fill="#8C6239"/>
<path d="M156.326 4.6C154.826 5 153.326 5.4 151.926 5.9C151.226 6.2 150.526 6.5 149.726 6.9C147.526 7.9 144.926 9.1 143.226 9.1C142.826 9.1 142.426 9.5 142.426 9.9C142.426 10.3 142.826 10.7 143.226 10.7C145.226 10.7 147.926 9.4 150.326 8.3C151.126 7.9 151.826 7.6 152.426 7.3C153.826 6.8 155.226 6.4 156.726 6C158.026 5.7 159.426 5.3 160.726 4.9C162.626 4.4 164.426 3.7 166.226 3.1C164.626 3.1 163.026 3 161.426 3C161.026 3.1 160.626 3.2 160.226 3.4C158.926 3.9 157.626 4.3 156.326 4.6Z" fill="#8C6239"/>
<path d="M173.726 6.90117C173.326 7.10117 173.126 7.50117 173.226 7.90117C173.326 8.20117 173.626 8.40117 173.926 8.40117C174.026 8.40117 174.126 8.40117 174.226 8.30117C176.126 7.60117 178.626 6.90117 181.326 6.20117C183.126 5.70117 185.026 5.20117 186.826 4.60117C187.626 4.30117 188.526 4.00117 189.326 3.60117C189.726 3.50117 190.026 3.30117 190.426 3.20117C188.826 3.20117 187.326 3.20117 185.726 3.30117C184.226 3.80117 182.526 4.20117 180.926 4.70117C178.226 5.40117 175.726 6.10117 173.726 6.90117Z" fill="#8C6239"/>
<path d="M242.825 44.4012L243.025 44.6012C244.125 45.5012 245.425 46.1012 246.625 46.7012C247.825 47.3012 249.025 47.8012 249.925 48.6012C250.625 49.2012 251.125 50.0012 251.625 50.7012C252.425 51.9012 253.325 53.2012 255.125 54.1012C256.925 55.1012 259.025 55.7012 261.825 56.1012C262.225 56.2012 262.725 56.2012 263.225 56.3012C263.925 56.4012 264.725 56.6012 265.325 56.6012C265.925 56.6012 266.525 56.5012 267.025 56.1012C267.625 55.6012 267.825 54.9012 267.725 53.8012C267.425 50.1012 264.425 46.7012 261.725 43.6012C260.225 41.9012 258.825 40.3012 258.025 38.8012C255.925 35.4012 252.925 35.5012 250.225 35.7012C248.325 35.8012 246.425 35.9012 244.725 34.8012C244.325 34.6012 243.825 34.7012 243.625 35.1012C243.425 35.5012 243.525 36.0012 243.925 36.2012C246.025 37.5012 248.325 37.4012 250.325 37.3012C252.925 37.2012 255.025 37.1012 256.625 39.7012C257.525 41.3012 258.925 43.0012 260.525 44.7012C263.025 47.6012 265.925 50.8012 266.125 54.0012C266.125 54.5012 266.125 54.9012 265.925 55.0012C265.625 55.3012 264.425 55.1012 263.525 54.9012C263.025 54.8012 262.525 54.7012 262.125 54.7012C259.525 54.3012 257.625 53.8012 255.925 52.9012C254.525 52.2012 253.825 51.1012 253.025 50.0012C252.425 49.2012 251.925 48.3012 251.025 47.6012C249.925 46.6012 248.625 46.0012 247.325 45.4012C246.125 44.9012 245.025 44.3012 244.025 43.6012L243.825 43.4012C242.525 42.3012 239.425 39.7012 239.325 38.1012C239.225 37.6012 239.225 37.3012 239.325 37.1012C239.725 37.4012 240.225 37.3012 240.425 36.9012C240.725 36.5012 240.625 36.0012 240.225 35.8012C239.425 35.2012 238.825 35.4012 238.425 35.6012C237.625 36.1012 237.625 37.4012 237.725 38.4012C237.925 40.1012 240.425 42.4012 242.825 44.4012Z" fill="#8C6239"/>
<path d="M228.526 40.4006L229.026 40.7006C231.026 41.9006 232.226 42.6006 234.126 44.3006C235.326 45.3006 236.626 45.9006 237.826 46.5006C238.626 46.9006 239.326 47.2006 240.126 47.7006C244.426 50.4006 248.026 53.5006 250.126 56.1006C250.426 56.4006 250.926 56.5006 251.226 56.2006C251.526 55.9006 251.626 55.4006 251.326 55.1006C249.126 52.3006 245.326 49.1006 240.926 46.4006C240.126 45.9006 239.326 45.5006 238.526 45.1006C237.326 44.5006 236.226 44.0006 235.226 43.1006C233.226 41.3006 231.926 40.5006 229.926 39.3006L229.426 39.0006C227.626 38.0006 226.326 36.3006 225.826 34.6006C225.326 32.6006 226.126 31.8006 227.726 30.3006C228.026 30.0006 228.426 29.6006 228.826 29.3006C230.826 27.3006 232.526 26.0006 233.526 25.7006C236.026 25.1006 239.126 26.2006 242.326 27.4006C245.226 28.4006 248.126 29.5006 250.826 29.4006C252.026 29.3006 253.326 29.1006 254.626 28.9006C257.626 28.4006 260.726 27.8006 264.026 29.2006C265.326 29.8006 266.626 30.5006 268.026 31.3006C269.126 31.9006 270.226 32.6006 271.326 33.1006C271.326 33.1006 271.326 33.1006 271.426 33.1006C271.726 33.2006 272.026 33.3006 272.326 33.5006C274.226 34.2006 276.126 35.0006 277.426 36.1006C280.126 38.5006 278.926 43.4006 278.526 44.8006C278.226 45.7006 277.826 46.5006 277.326 47.4006C276.726 48.4006 276.226 49.5006 275.926 50.8006C275.926 50.8006 275.926 50.8006 275.926 50.9006C275.826 51.8006 275.826 52.7006 275.826 53.5006C275.826 54.8006 275.826 56.1006 275.426 57.2006C273.526 61.3006 267.426 61.0006 264.026 59.8006C263.626 59.7006 262.726 59.1006 261.926 58.7006C259.026 57.0006 257.326 56.1006 256.326 56.9006C256.026 57.2006 255.926 57.7006 256.226 58.0006C256.526 58.3006 256.926 58.4006 257.226 58.2006C257.826 58.2006 260.026 59.4006 261.126 60.1006C262.126 60.7006 262.926 61.2006 263.526 61.4006C264.926 61.9006 266.826 62.3006 268.726 62.3006C272.026 62.3006 275.426 61.2006 276.926 58.0006C277.526 56.5006 277.526 55.1006 277.526 53.6006C277.526 52.8006 277.526 52.0006 277.626 51.2006C277.926 50.2006 278.326 49.2006 278.926 48.3006C279.426 47.4006 279.926 46.5006 280.226 45.4006C280.726 43.7006 281.926 38.0006 278.626 35.0006C277.126 33.7006 275.026 32.9006 273.026 32.1006C272.726 32.0006 272.426 31.9006 272.126 31.8006C271.026 31.3006 270.026 30.7006 269.026 30.0006C267.626 29.2006 266.226 28.4006 264.826 27.8006C261.026 26.2006 257.626 26.9006 254.526 27.4006C253.326 27.6006 252.126 27.8006 250.926 27.9006C248.526 28.0006 245.726 27.0006 243.026 26.0006C239.726 24.8006 236.326 23.6006 233.326 24.2006C231.626 24.6006 229.426 26.6006 227.826 28.2006C227.426 28.6006 227.126 28.9006 226.826 29.2006C225.226 30.7006 223.826 32.1006 224.526 35.0006C224.726 37.2006 226.326 39.2006 228.526 40.4006Z" fill="#8C6239"/>
<path d="M292.725 45.3997C293.225 44.8997 293.725 44.3997 294.325 43.8997C297.225 41.0997 298.625 37.7997 298.325 34.3997C297.925 30.5997 295.525 26.9997 291.325 24.1997C284.425 19.6997 276.425 19.8997 268.625 20.0997C267.725 20.0997 266.725 20.0997 265.825 20.1997C260.725 20.3997 255.625 18.9997 250.425 17.4997C245.625 16.1997 240.725 14.7997 235.625 14.6997C227.625 14.5997 219.125 16.1997 212.325 19.0997C209.425 20.0997 193.425 27.1997 191.025 33.4997C190.525 34.6997 190.625 35.7997 191.225 36.8997C192.925 39.8997 198.025 41.3997 201.825 42.4997C202.425 42.6997 203.025 42.7997 203.525 42.9997C207.625 44.2997 212.125 45.4997 216.725 46.5997C217.625 46.7997 218.525 47.0997 219.525 47.2997C226.425 48.9997 235.025 51.0997 237.625 57.4997C239.425 62.0997 237.225 65.7997 234.925 69.7997C234.125 71.0997 233.425 72.3997 232.725 73.7997C232.125 74.9997 231.825 76.1997 231.425 77.2997C231.325 77.6997 231.525 78.1997 232.025 78.2997C232.125 78.2997 232.125 78.2997 232.225 78.2997C232.625 78.2997 232.925 78.0997 233.025 77.6997C233.325 76.6997 233.625 75.4997 234.225 74.3997C234.825 73.0997 235.625 71.7997 236.325 70.4997C238.725 66.3997 241.225 62.0997 239.125 56.7997C236.225 49.5997 226.825 47.2997 219.925 45.5997C218.925 45.3997 218.025 45.0997 217.125 44.8997C212.525 43.8997 208.125 42.6997 204.025 41.3997C203.525 41.1997 202.925 41.0997 202.325 40.8997C199.025 39.8997 194.025 38.4997 192.725 36.0997C192.425 35.4997 192.425 34.7997 192.625 34.0997C194.625 28.7997 209.225 21.9997 213.025 20.6997C219.625 17.8997 227.925 16.2997 235.725 16.3997C240.525 16.4997 245.425 17.7997 250.125 19.0997C255.325 20.4997 260.625 21.9997 266.025 21.7997C266.925 21.7997 267.925 21.7997 268.825 21.6997C276.325 21.4997 284.125 21.3997 290.625 25.5997C294.325 27.9997 296.625 31.1997 296.925 34.5997C297.225 37.4997 296.025 40.2997 293.425 42.7997C292.925 43.2997 292.425 43.7997 291.825 44.2997C289.425 46.5997 287.125 48.6997 285.425 51.5997C285.125 52.0997 284.825 52.4997 284.625 52.9997C282.925 55.7997 281.325 58.4997 278.825 60.7997C277.325 62.1997 275.525 63.2997 273.625 64.3997C270.625 66.2997 267.525 68.1997 265.525 71.1997C265.325 71.5997 265.425 72.0997 265.725 72.2997C266.125 72.4997 266.625 72.4997 266.825 72.0997C268.625 69.3997 271.625 67.5997 274.425 65.7997C276.325 64.5997 278.225 63.3997 279.825 61.9997C282.525 59.5997 284.125 56.7997 285.925 53.8997C286.225 53.4997 286.425 52.9997 286.725 52.4997C288.225 49.6997 290.425 47.5997 292.725 45.3997Z" fill="#8C6239"/>
<path d="M235.226 78.4001C235.726 78.4001 236.026 78.1001 236.026 77.6001C236.126 73.6001 240.626 71.1001 242.526 70.2001C247.926 67.8001 253.026 67.9001 257.626 70.5001C260.426 72.1001 262.026 74.3001 263.626 77.2001C263.826 77.6001 264.326 77.7001 264.726 77.5001C265.126 77.3001 265.226 76.8001 265.026 76.4001C263.326 73.2001 261.526 70.9001 258.426 69.1001C253.326 66.3001 247.826 66.2001 241.926 68.7001C239.726 69.7001 234.626 72.6001 234.426 77.5001C234.426 78.1001 234.826 78.4001 235.226 78.4001Z" fill="#8C6239"/>
<path d="M238.525 79.7998C238.625 79.7998 238.725 79.7998 238.725 79.7998C239.125 79.6998 239.425 79.1998 239.225 78.7998C238.925 77.8998 239.325 77.0998 239.625 76.5998C240.325 75.3998 241.625 74.3998 242.825 74.0998C243.225 73.9998 243.525 73.5998 243.425 73.0998C243.325 72.6998 242.925 72.3999 242.425 72.4999C240.725 72.8999 239.025 74.1998 238.125 75.7998C237.425 76.9998 237.325 78.1998 237.625 79.2998C237.825 79.5998 238.125 79.7998 238.525 79.7998Z" fill="#8C6239"/>
<path d="M241.726 79.6998C242.126 79.5998 242.326 79.0998 242.226 78.6998C242.026 78.1998 242.126 77.6998 242.426 77.2998C243.626 75.4998 248.126 74.2998 250.226 74.1998C252.326 73.9998 253.726 74.4998 255.726 76.0998C256.226 76.4998 256.626 77.0998 257.126 77.5998C258.226 78.9998 259.526 80.4998 261.726 80.4998C262.026 80.4998 262.326 80.4998 262.626 80.3998C263.026 80.2998 263.326 79.8998 263.226 79.4998C263.126 79.0998 262.726 78.7998 262.326 78.8998C260.526 79.1998 259.626 78.1998 258.326 76.5998C257.826 75.9998 257.326 75.3998 256.726 74.8998C254.826 73.2998 253.026 72.3998 250.126 72.6998C248.626 72.7998 242.926 73.8998 241.126 76.5998C240.526 77.4998 240.426 78.3998 240.826 79.3998C240.926 79.6998 241.326 79.8998 241.726 79.6998Z" fill="#8C6239"/>
<path d="M245.325 65.0012C245.725 65.0012 246.125 64.7012 246.225 64.3012C246.325 63.5012 249.825 62.3012 251.925 62.3012C256.025 62.2012 258.025 65.8012 258.725 67.4012C258.825 67.7012 259.125 67.9012 259.425 67.9012C259.525 67.9012 259.625 67.9012 259.725 67.8012C260.125 67.6012 260.325 67.2012 260.125 66.8012C258.425 62.9012 255.425 60.7012 251.825 60.7012C250.425 60.7012 244.725 61.7012 244.525 64.2012C244.525 64.6012 244.825 65.0012 245.325 65.0012Z" fill="#8C6239"/>
<path d="M286.425 14.3003C288.125 15.0003 289.925 15.8003 291.725 16.4003C293.025 16.9003 294.425 17.4003 295.925 17.9003C299.925 19.3003 304.025 20.7003 307.325 22.9003C307.325 22.3003 307.425 21.8003 307.725 21.2003C304.225 19.0003 300.225 17.6003 296.425 16.4003C295.025 15.9003 293.625 15.4003 292.225 14.9003C290.525 14.3003 288.825 13.6003 287.025 12.8003C283.925 11.5003 280.725 10.1003 277.325 9.4003C271.525 8.2003 265.325 8.1003 259.325 8.0003C256.825 8.0003 254.325 7.9003 251.825 7.8003C250.225 7.7003 248.625 7.6003 247.025 7.5003C242.425 7.2003 237.725 6.8003 233.225 7.5003C228.225 8.1003 223.325 9.1003 218.425 10.0003C215.525 10.6003 212.425 11.2003 209.425 11.7003C208.425 11.9003 207.325 12.1003 206.225 12.3003C198.625 13.6003 190.125 15.1003 184.325 20.4003C183.225 21.3003 182.325 22.3003 181.425 23.4003C181.125 23.7003 181.225 24.2003 181.525 24.5003C181.825 24.8003 182.325 24.7003 182.625 24.4003C183.425 23.4003 184.325 22.5003 185.325 21.6003C190.825 16.6003 199.125 15.1003 206.525 13.9003C207.625 13.7003 208.725 13.5003 209.725 13.3003C212.725 12.8003 215.825 12.2003 218.825 11.6003C223.625 10.7003 228.525 9.7003 233.525 9.1003C237.925 8.4003 242.525 8.8003 247.025 9.1003C248.625 9.2003 250.225 9.3003 251.825 9.4003C254.325 9.5003 256.925 9.6003 259.325 9.6003C265.225 9.7003 271.325 9.8003 277.025 11.0003C280.225 11.7003 283.425 13.0003 286.425 14.3003Z" fill="#8C6239"/>
<path d="M299.226 51.8C303.626 48.7 308.626 45 311.926 40.9C311.626 40.5 311.226 40 311.026 39.5C307.926 43.6 302.826 47.3 298.326 50.5C296.326 51.9 294.426 53.3 293.126 54.5C286.926 59.6 281.726 63.6 277.026 67.1L276.326 67.7C272.726 70.4 269.026 73.1 266.826 77.1C266.626 77.5 266.726 78 267.126 78.2C267.226 78.3 267.426 78.3 267.526 78.3C267.826 78.3 268.126 78.2 268.226 77.9C270.226 74.2 273.626 71.7 277.226 69L277.926 68.4C282.726 64.9 287.826 60.9 294.126 55.7C295.426 54.5 297.226 53.2 299.226 51.8Z" fill="#8C6239"/>
<path d="M196.825 23.0994C197.225 22.8994 197.325 22.3994 197.025 21.9994C196.825 21.5994 196.325 21.4994 195.925 21.7994C193.625 23.3994 189.225 26.4994 185.925 29.6994C184.225 31.3994 181.925 36.3994 183.125 39.0994C183.525 39.9994 184.425 40.9994 186.525 40.9994C186.725 40.9994 186.825 40.9994 187.025 40.9994C187.425 40.9994 187.825 40.5994 187.725 40.0994C187.725 39.6994 187.325 39.2994 186.825 39.3994C185.025 39.4994 184.625 38.6994 184.525 38.4994C183.625 36.5994 185.625 32.2994 186.925 30.8994C190.225 27.6994 194.525 24.5994 196.825 23.0994Z" fill="#8C6239"/>
<path d="M134.025 49.9C143.625 53.4 153.725 53.5 163.525 53.5C172.225 53.6 181.125 53.6 189.725 56.1L191.025 56.4C200.125 58.8 209.525 61.3 218.325 64.5C222.225 65.8 226.325 67.6 227.825 70.6C228.525 72.1 228.525 73.9 227.725 75.9C227.525 76.5 227.125 77.1 226.925 77.7C226.625 78.3 226.325 79 226.025 79.6C225.825 80 226.025 80.5 226.425 80.6C226.525 80.6 226.625 80.7 226.725 80.7C227.025 80.7 227.325 80.5 227.425 80.2C227.625 79.6 228.025 79 228.225 78.4C228.525 77.8 228.825 77.1 229.125 76.5C230.025 74.1 230.025 71.9 229.125 69.9C227.425 66.3 222.925 64.4 218.725 63C209.825 59.7 200.425 57.2 191.225 54.8L189.925 54.5C181.125 52 172.025 51.9 163.325 51.8C153.725 51.7 143.725 51.7 134.325 48.3C129.825 46.8 124.325 43.6 123.325 39.7C122.825 37.9 123.425 36 125.125 34.1C130.125 28.5 139.225 26.2 147.225 24.1C149.225 23.6 151.025 23.1 152.825 22.6C160.125 20.6 167.225 17.8 174.125 15.2C186.025 10.7 198.425 6.00002 211.725 4.80002C214.925 4.50002 218.125 4.30001 221.325 4.00001C226.525 3.60001 231.925 3.20002 237.225 2.60002C230.725 2.50002 224.225 2.60002 217.625 2.70002C215.625 2.90002 213.525 3.00002 211.525 3.20002C198.025 4.40002 185.525 9.10002 173.525 13.7C166.625 16.3 159.525 19 152.325 21C150.625 21.5 148.725 22 146.825 22.5C138.725 24.7 129.425 27.1 124.025 33.1C122.025 35.4 121.325 37.8 121.925 40.2C123.125 44.7 128.925 48.1 134.025 49.9Z" fill="#8C6239"/>
<path d="M163.726 48.5994C164.526 48.6994 165.226 48.6994 165.726 48.7994C168.026 49.0994 170.426 49.1994 172.626 49.3994C179.026 49.8994 185.126 50.2994 191.226 52.4994C194.926 53.9994 198.826 55.3994 203.026 56.0994C204.926 56.2994 206.726 56.4994 208.526 56.5994C211.826 56.7994 215.026 56.9994 218.126 57.8994C220.426 58.4994 229.026 63.6994 230.726 67.4994C231.026 68.1994 231.126 68.7994 230.926 69.1994C230.726 69.5994 230.926 70.0994 231.326 70.2994C231.426 70.3994 231.526 70.3994 231.626 70.3994C231.926 70.3994 232.226 70.1994 232.326 69.8994C232.726 68.9994 232.726 67.9994 232.126 66.7994C230.026 62.2994 220.926 56.9994 218.526 56.2994C215.226 55.3994 211.826 55.1994 208.526 54.9994C206.726 54.8994 204.926 54.7994 203.126 54.4994C199.126 53.7994 195.326 52.3994 191.726 50.9994C185.326 48.6994 179.126 48.1994 172.626 47.7994C170.426 47.5994 168.026 47.4994 165.726 47.1994C165.126 47.0994 164.426 47.0994 163.626 46.9994C158.226 46.5994 146.826 45.6994 145.226 41.5994C144.626 40.0994 145.426 38.1994 147.426 35.9994C151.526 31.4994 157.326 29.8994 163.426 28.1994C167.926 26.9994 172.626 25.6994 176.526 23.0994C176.926 22.8994 177.026 22.3994 176.726 21.9994C176.526 21.5994 176.026 21.4994 175.626 21.7994C171.926 24.1994 167.326 25.4994 162.926 26.6994C156.826 28.3994 150.526 30.0994 146.126 34.8994C143.626 37.6994 142.826 40.0994 143.626 42.1994C145.826 46.8994 155.126 47.9994 163.726 48.5994Z" fill="#8C6239"/>
<path d="M176.226 44.4995C176.326 44.5995 176.426 44.5995 176.626 44.5995C176.926 44.5995 177.226 44.3995 177.326 44.1995C177.526 43.7995 177.326 43.2995 176.926 43.0995C176.126 42.6995 175.626 41.7995 175.426 40.3995C175.026 36.8995 177.126 31.8995 178.626 30.6995C178.926 30.3995 179.026 29.8995 178.726 29.5995C178.426 29.2995 177.926 29.1995 177.626 29.4995C175.626 31.0995 173.426 36.6995 173.826 40.5995C174.126 42.4995 174.926 43.7995 176.226 44.4995Z" fill="#8C6239"/>
<path d="M162.326 35.5995C161.926 35.4995 161.426 35.7995 161.426 36.1995C161.226 37.1995 161.226 37.8995 161.226 38.7995C161.226 39.1995 161.626 39.5995 162.026 39.5995C162.426 39.5995 162.826 39.1995 162.826 38.7995C162.826 37.9995 162.826 37.2995 162.926 36.4995C163.026 36.0995 162.726 35.5995 162.326 35.5995Z" fill="#8C6239"/>
<path d="M114.425 47.5012C115.725 47.7012 117.225 48.2012 118.925 48.7012C121.225 49.4012 123.625 50.1012 125.625 50.1012C126.025 50.1012 126.425 50.1012 126.825 50.0012C127.225 49.9012 127.525 49.5012 127.525 49.1012C127.425 48.7012 127.025 48.4012 126.625 48.4012C124.725 48.7012 122.025 47.9012 119.425 47.1012C117.725 46.6012 116.125 46.1012 114.725 45.9012C111.425 45.5012 105.025 43.6012 104.325 41.1012C104.025 40.1012 104.625 39.1012 106.125 37.9012C107.725 36.6012 109.625 35.8012 111.625 35.0012C113.425 34.2012 115.325 33.5012 117.025 32.3012C117.925 31.7012 118.625 30.8012 119.425 30.1012C120.425 29.1012 121.325 28.0012 122.625 27.4012C122.625 27.4012 122.625 27.4012 122.725 27.4012C125.525 25.5012 129.525 24.3012 133.025 23.3012C133.825 23.1012 134.625 22.8012 135.425 22.6012C138.625 21.4012 142.025 20.6012 145.325 19.8012C147.625 19.2012 149.925 18.7012 152.225 18.0012C152.625 17.9012 152.925 17.4012 152.725 17.0012C152.625 16.6012 152.125 16.3012 151.725 16.5012C149.525 17.2012 147.125 17.7012 144.925 18.3012C141.625 19.1012 138.125 20.0012 134.925 21.2012C134.225 21.4012 133.425 21.7012 132.525 21.9012C128.925 23.0012 124.725 24.2012 121.825 26.2012C120.425 27.0012 119.325 28.1012 118.325 29.2012C117.625 30.0012 116.925 30.7012 116.225 31.2012C114.725 32.3012 112.925 33.0012 111.225 33.7012C109.225 34.6012 107.025 35.4012 105.325 36.8012C103.325 38.4012 102.525 40.1012 102.925 41.7012C103.825 45.5012 112.225 47.3012 114.425 47.5012Z" fill="#8C6239"/>
<path d="M159.825 15.0994C160.925 15.0994 162.025 14.2994 163.025 13.6994L163.225 13.5994C163.625 13.3994 163.725 12.8994 163.425 12.4994C163.225 12.0994 162.725 11.9994 162.325 12.2994L162.125 12.3994C161.325 12.9994 160.225 13.6994 159.625 13.4994C159.225 13.3994 158.725 13.5994 158.625 13.9994C158.525 14.3994 158.725 14.8994 159.125 14.9994C159.325 14.9994 159.625 15.0994 159.825 15.0994Z" fill="#8C6239"/>
<path d="M111.925 26.5004C106.925 29.4004 104.125 29.7004 97.9253 29.1004C92.1253 28.6004 85.2253 28.1004 77.7253 29.0004C77.3253 29.1004 76.9253 29.4004 77.0253 29.9004C77.1253 30.3004 77.4253 30.7004 77.9253 30.6004C85.3253 29.7004 92.1253 30.2004 97.8253 30.7004C99.6253 30.9004 101.125 31.0004 102.525 31.0004C106.225 31.0004 108.925 30.2004 112.825 27.9004C113.225 27.7004 113.325 27.2004 113.125 26.8004C112.825 26.4004 112.325 26.3004 111.925 26.5004Z" fill="#8C6239"/>
<path d="M93.1252 35.7012C92.7252 35.7012 92.3252 36.1012 92.3252 36.5012C92.3252 36.9012 92.7252 37.3012 93.1252 37.3012H96.5252C96.9252 37.3012 97.3252 36.9012 97.3252 36.5012C97.3252 36.1012 96.9252 35.7012 96.5252 35.7012H93.1252Z" fill="#8C6239"/>
<path d="M24.7258 50.1009C23.6258 50.9009 22.5258 51.6009 21.4258 52.3009C25.5258 51.0009 29.6258 49.9009 33.7258 49.2009C48.8258 46.8009 59.8258 46.6009 71.8258 48.5009C75.2258 49.1009 78.6258 48.9009 81.8258 48.7009C85.1258 48.5009 88.2258 48.4009 91.3258 48.9009C93.7258 49.4009 96.2258 50.0009 98.6258 50.5009C101.826 51.2009 105.026 51.9009 108.226 52.6009C112.426 53.6009 116.726 54.1009 120.826 54.6009C123.926 55.0009 127.026 55.3009 130.126 55.9009C131.926 56.2009 133.726 56.7009 135.426 57.2009C138.126 58.0009 141.026 58.8009 144.226 58.9009C145.126 59.1009 145.926 59.1009 146.826 59.0009V57.4009C145.926 57.4009 145.326 57.4009 144.526 57.3009H144.426C141.426 57.2009 138.726 56.5009 136.026 55.7009C134.226 55.2009 132.426 54.7009 130.526 54.3009C127.426 53.7009 124.226 53.3009 121.126 53.0009C117.026 52.5009 112.826 52.0009 108.726 51.1009C105.526 50.4009 102.226 49.7009 99.1258 49.0009C96.7258 48.5009 94.2258 47.9009 91.8258 47.4009C88.5258 46.8009 85.2258 47.0009 81.9258 47.2009C78.7258 47.4009 75.4258 47.5009 72.2258 47.0009C60.1258 45.1009 48.9258 45.3009 33.6258 47.7009C31.4258 48.1009 29.2258 48.6009 27.0258 49.1009C26.6258 49.3009 26.1258 49.5009 25.5258 49.5009C25.2258 49.8009 25.0258 49.9009 24.7258 50.1009Z" fill="#8C6239"/>
<path d="M150.426 57.9012C151.826 57.7012 153.326 57.9012 154.926 58.1012C156.026 58.2012 157.226 58.4012 158.426 58.4012C159.226 58.4012 160.026 58.3012 160.826 58.2012C161.226 58.1012 161.526 57.7012 161.426 57.2012C161.326 56.8012 160.926 56.5012 160.426 56.6012C158.726 57.0012 156.926 56.8012 155.026 56.6012C153.426 56.4012 151.826 56.2012 150.126 56.4012C149.726 56.5012 149.326 56.8012 149.426 57.3012C149.626 57.6012 150.026 57.9012 150.426 57.9012Z" fill="#8C6239"/>
<path d="M165.025 57.5012C169.525 57.4012 173.525 57.6012 177.125 58.0012C179.325 58.3012 181.625 59.0012 184.025 59.6012C186.125 60.2012 188.225 60.8012 190.325 61.2012C192.925 61.6012 195.125 62.6012 197.525 63.7012C199.125 64.4012 200.725 65.2012 202.525 65.8012C204.925 66.6012 207.425 67.1012 209.825 67.6012C212.425 68.2012 214.825 68.7012 217.125 69.5012C219.025 70.2012 224.025 73.7012 224.425 76.1012C224.525 76.7012 224.325 77.2012 223.725 77.6012C223.325 77.9012 223.325 78.4012 223.525 78.7012C223.725 78.9012 223.925 79.0012 224.125 79.0012C224.325 79.0012 224.425 78.9012 224.625 78.8012C225.625 78.0012 226.125 77.0012 225.925 75.8012C225.425 72.3012 219.525 68.6012 217.525 67.9012C215.125 67.1012 212.525 66.5012 210.025 66.0012C207.625 65.5012 205.225 64.9012 202.925 64.2012C201.225 63.7012 199.625 62.9012 198.125 62.2012C195.725 61.1012 193.325 59.9012 190.525 59.5012C188.525 59.1012 186.425 58.5012 184.325 58.0012C182.025 57.4012 179.625 56.7012 177.225 56.3012C173.525 55.9012 169.525 55.7012 164.825 55.7012C164.425 55.7012 164.025 56.1012 164.025 56.5012C164.225 57.2012 164.625 57.5012 165.025 57.5012Z" fill="#8C6239"/>
<path d="M68.8252 55.9003C69.4252 56.1003 70.0252 56.1003 70.6252 56.1003C73.0252 56.2003 75.1252 55.8003 77.2252 55.3003C79.7252 54.8003 82.0252 54.2003 84.7252 54.7003C90.4252 55.4003 95.1252 56.2003 99.7252 57.3003C104.725 58.5003 109.725 58.9003 114.525 59.3003C120.925 59.8003 127.625 60.4003 134.125 62.7003C140.925 65.1003 147.725 64.0003 154.225 63.0003C158.825 62.3003 163.525 61.5003 168.125 62.0003C170.425 62.3003 172.625 62.8003 175.325 63.8003C177.925 64.6003 180.225 64.7003 182.725 64.7003C183.425 64.7003 184.025 64.7003 184.825 64.8003C188.225 64.9003 192.625 66.2003 196.725 68.4003C198.925 69.7003 201.325 71.0003 204.225 71.8003C205.625 72.2003 207.125 72.2003 208.525 72.2003C209.925 72.2003 211.225 72.3003 212.425 72.6003C215.625 73.6003 221.125 76.7003 220.625 79.6003C220.525 80.0003 220.825 80.4003 221.225 80.5003H221.325C221.725 80.5003 222.025 80.2003 222.125 79.8003C222.925 75.1003 214.925 71.7003 212.725 71.0003C211.325 70.6003 209.825 70.6003 208.425 70.6003C207.025 70.6003 205.725 70.5003 204.525 70.2003C201.825 69.5003 199.525 68.3003 197.425 67.0003C195.325 65.9003 190.025 63.3003 184.825 63.2003C184.125 63.2003 183.425 63.2003 182.725 63.1003C180.325 63.1003 178.225 63.0003 175.825 62.3003C173.025 61.3003 170.725 60.7003 168.325 60.4003C163.525 59.9003 158.625 60.7003 154.025 61.4003C147.325 62.4003 141.025 63.4003 134.625 61.2003C127.925 58.8003 121.225 58.2003 114.625 57.7003C109.825 57.3003 104.925 56.9003 100.025 55.8003C95.3252 54.7003 90.5252 53.9003 84.8252 53.1003C81.8252 52.6003 79.3252 53.2003 76.8252 53.8003C74.7252 54.3003 72.7252 54.7003 70.6252 54.6003C70.6252 54.6003 70.6252 54.6003 70.5252 54.6003C70.0252 54.6003 69.6252 54.6003 69.2252 54.5003C68.8252 54.4003 68.3252 54.6003 68.2252 55.0003C68.1252 55.3003 68.3252 55.7003 68.8252 55.9003Z" fill="#8C6239"/>
<path d="M69.3258 52.1995C69.4258 52.1995 69.4258 52.1995 69.5258 52.1995C70.4258 51.9995 71.3258 51.9995 72.3258 51.8995C73.3258 51.7995 74.3258 51.7995 75.3258 51.5995C75.7258 51.4995 76.0258 51.0995 75.9258 50.6995C75.8258 50.2995 75.4258 49.9995 75.0258 50.0995C74.1258 50.2995 73.2258 50.2995 72.2258 50.3995C71.2258 50.4995 70.2258 50.4995 69.2258 50.6995C68.8258 50.7995 68.5258 51.1995 68.6258 51.5995C68.6258 51.8995 68.9258 52.1995 69.3258 52.1995Z" fill="#8C6239"/>
<path d="M14.2252 59.3999C18.9252 57.0999 23.6252 55.0999 29.1252 54.9999C32.4252 54.9999 35.7252 54.2998 38.9252 53.5998C42.2252 52.8998 45.7252 52.1998 49.1252 52.1998C50.6252 52.1998 51.9252 52.2999 53.3252 52.3999C57.3252 52.5999 60.8252 52.7998 65.1252 51.5998C65.5252 51.4998 65.8252 51.0998 65.7252 50.5998C65.6252 50.1998 65.2252 49.8999 64.7252 49.9999C60.6252 51.0999 57.2252 50.8998 53.4252 50.6998C52.1252 50.5998 50.7252 50.5999 49.2252 50.4999C45.6252 50.3999 42.1252 51.1999 38.7252 51.8999C35.6252 52.4999 32.3252 53.1998 29.2252 53.2998C22.8252 53.3998 17.7252 55.7999 12.3252 58.4999C12.9252 58.6999 13.6252 58.8999 14.2252 59.3999Z" fill="#8C6239"/>
<path d="M104.025 62.3996C106.625 62.0996 109.425 62.4996 112.125 62.7996C113.225 62.8996 114.325 63.0996 115.425 63.1996C116.925 63.3996 118.425 63.4996 119.825 63.6996C122.125 63.8996 124.225 64.0996 126.425 64.4996C128.625 64.9996 130.725 65.5996 132.825 66.1996C136.725 67.2996 140.825 68.4996 145.225 68.5996C148.725 68.5996 152.125 67.8996 155.325 67.0996C158.625 66.2996 161.725 65.5996 164.825 65.6996C166.525 65.6996 168.025 66.2996 169.725 66.8996C171.025 67.3996 172.325 67.8996 173.825 68.0996C176.325 68.5996 178.925 68.6996 181.525 68.6996C184.525 68.7996 187.625 68.8996 190.525 69.5996C191.925 69.8996 193.125 70.6996 194.425 71.5996C195.025 71.9996 195.725 72.4996 196.425 72.8996C198.425 73.7996 200.325 74.5996 202.225 75.2996C203.525 75.7996 204.825 76.2996 206.025 76.7996C207.025 77.1996 208.025 77.8996 209.125 78.6996C211.025 79.9996 212.925 81.3996 215.025 81.3996C215.325 81.3996 215.625 81.3996 215.825 81.2996C216.225 81.1996 216.525 80.7996 216.525 80.3996C216.425 79.9996 216.025 79.6996 215.625 79.6996C213.825 79.9996 211.925 78.6996 210.125 77.3996C209.025 76.5996 207.825 75.7996 206.625 75.2996C205.325 74.6996 204.025 74.1996 202.725 73.6996C200.825 72.9996 198.925 72.1996 197.025 71.2996C196.325 70.8996 195.725 70.4996 195.125 70.0996C193.825 69.1996 192.425 68.2996 190.725 67.8996C187.725 67.0996 184.525 66.9996 181.425 66.8996C178.825 66.7996 176.325 66.6996 173.925 66.2996C172.625 66.0996 171.325 65.5996 170.125 65.1996C168.425 64.5996 166.625 63.8996 164.725 63.8996C161.325 63.8996 158.025 64.5996 154.825 65.3996C151.625 66.0996 148.325 66.8996 145.025 66.8996C140.825 66.7996 137.025 65.6996 133.025 64.5996C130.925 63.9996 128.725 63.3996 126.525 62.8996C124.325 62.4996 122.025 62.2996 119.825 62.0996C118.425 61.9996 116.925 61.7996 115.425 61.5996C114.325 61.4996 113.325 61.3996 112.125 61.1996C109.325 60.8996 106.425 60.4996 103.725 60.7996C103.325 60.7996 102.925 61.1996 103.025 61.6996C103.125 62.0996 103.525 62.3996 104.025 62.3996Z" fill="#8C6239"/>
<path d="M134.326 69.8011C135.026 69.6011 135.926 70.2011 136.826 70.8011C137.526 71.2011 138.126 71.6011 138.826 71.8011C140.026 72.3011 141.226 72.4011 142.326 72.4011C142.726 72.4011 143.126 72.4011 143.426 72.4011C143.726 72.4011 144.026 72.4011 144.326 72.4011C144.726 72.4011 145.126 72.0011 145.126 71.6011C145.126 71.2011 144.726 70.8011 144.326 70.8011C144.026 70.8011 143.726 70.8011 143.426 70.8011C142.026 70.8011 140.826 70.9011 139.426 70.4011C138.926 70.2011 138.326 69.9011 137.726 69.5011C136.626 68.8011 135.326 68.0011 134.026 68.3011C133.626 68.4011 133.326 68.8011 133.426 69.3011C133.526 69.6011 133.926 69.9011 134.326 69.8011Z" fill="#8C6239"/>
<path d="M49.3254 69.5008L55.5254 69.4008C55.9254 69.4008 56.3254 69.0008 56.3254 68.6008C56.3254 68.2008 55.9254 67.8008 55.5254 67.8008L49.3254 67.9008C48.9254 67.9008 48.5254 68.3008 48.5254 68.7008C48.5254 69.1008 48.9254 69.5008 49.3254 69.5008Z" fill="#8C6239"/>
<path d="M60.8256 69.2999C63.4256 68.8999 65.8256 69.0999 68.4256 69.3999C70.0256 69.5999 71.6256 69.7999 73.3256 69.7999C74.5256 69.7999 75.7256 69.6999 76.9256 69.4999H77.1256C81.6256 68.5999 86.7256 67.4999 91.0256 68.7999C91.4256 68.8999 91.9256 68.6999 92.0256 68.2999C92.1256 67.8999 91.9256 67.3999 91.5256 67.2999C86.8256 65.8999 81.5256 66.9999 76.8256 67.9999H76.6256C73.9256 68.5999 71.4256 68.2999 68.7256 67.9999C66.1256 67.6999 63.5256 67.3999 60.7256 67.8999C60.3256 67.9999 60.0256 68.3999 60.1256 68.7999C59.9256 69.0999 60.4256 69.3999 60.8256 69.2999Z" fill="#8C6239"/>
<path d="M38.1256 84.9012C38.1256 84.9012 38.2256 84.9012 38.1256 84.9012C41.1256 84.7012 43.6256 84.3012 46.3256 83.9012C47.5256 83.7012 48.8256 83.5012 50.1256 83.3012C50.5256 83.2012 50.8256 82.8012 50.8256 82.4012C50.7256 82.0012 50.3256 81.7012 49.9256 81.7012C48.5256 81.9012 47.3256 82.1012 46.0256 82.3012C43.4256 82.7012 40.9256 83.1012 38.0256 83.3012C37.6256 83.3012 37.2256 83.7012 37.2256 84.1012C37.4256 84.6012 37.7256 84.9012 38.1256 84.9012Z" fill="#8C6239"/>
<path d="M53.4252 81.8011C55.6252 81.3011 57.4252 81.6011 59.4252 81.9011C60.7252 82.1011 61.9252 82.3011 63.4252 82.3011C63.7252 82.3011 64.0252 82.3011 64.3252 82.3011C64.7252 82.3011 65.1252 81.9011 65.1252 81.5011C65.1252 81.1011 64.7252 80.7011 64.3252 80.7011C62.7252 80.8011 61.2252 80.6011 59.7252 80.4011C57.7252 80.1011 55.6252 79.8011 53.1252 80.4011C52.7252 80.5011 52.4252 80.9011 52.5252 81.4011C52.5252 81.7011 52.9252 81.9011 53.4252 81.8011Z" fill="#8C6239"/>
<path d="M68.8251 82.0999C71.0251 82.9999 72.8251 83.0999 74.8251 83.0999C75.2251 83.0999 75.6251 83.0999 76.0251 83.0999V81.4999C73.5251 81.4999 71.7251 81.5999 69.4251 80.5999C69.0251 80.3999 68.5251 80.5999 68.4251 80.9999C68.2251 81.4999 68.4251 81.9999 68.8251 82.0999Z" fill="#8C6239"/>
<path d="M80.7253 82.1996H83.6253C84.0253 82.1996 84.4253 81.7996 84.4253 81.3996C84.4253 80.9996 84.0253 80.5996 83.6253 80.5996H80.8253C80.4253 80.5996 80.0253 80.9996 80.0253 81.3996C79.9253 81.8996 80.3253 82.1996 80.7253 82.1996Z" fill="#8C6239"/>
<path d="M86.9255 81.4012C88.3255 81.4012 89.5255 81.3012 90.8255 81.3012C94.6255 81.1012 97.9255 81.0012 101.826 82.1012C101.926 82.1012 101.925 82.1012 102.025 82.1012C102.325 82.1012 102.726 81.9012 102.826 81.5012C102.926 81.1012 102.726 80.6012 102.326 80.5012C98.1255 79.3012 94.6255 79.5012 90.8255 79.6012C89.6255 79.7012 88.3255 79.7012 87.0255 79.7012C86.6255 79.7012 86.2255 80.1012 86.2255 80.5012C86.1255 81.1012 86.5255 81.4012 86.9255 81.4012Z" fill="#8C6239"/>
<path d="M154.026 80.001C154.126 80.001 154.226 80.001 154.326 79.901C155.126 79.601 156.026 79.401 156.826 79.201C157.226 79.101 157.526 78.701 157.426 78.301C157.326 77.901 156.926 77.601 156.526 77.701C155.626 77.901 154.726 78.101 153.726 78.501C153.326 78.701 153.126 79.101 153.326 79.501C153.426 79.801 153.726 80.001 154.026 80.001Z" fill="#8C6239"/>
<path d="M312.725 50.4996C313.925 49.7996 315.225 49.0996 316.425 48.2996C316.325 47.6996 316.225 47.1996 316.125 46.5996C314.725 47.3996 313.325 48.2996 311.925 49.0996C307.725 51.4996 303.525 53.9996 299.725 57.1996C291.825 64.0996 283.025 70.2996 274.525 76.3996C273.225 77.2996 271.925 78.2996 270.625 79.1996C270.225 79.4996 270.225 79.9996 270.425 80.2996C270.625 80.4996 270.825 80.5996 271.025 80.5996C271.225 80.5996 271.325 80.5996 271.525 80.4996C272.825 79.5996 274.125 78.5996 275.425 77.6996C283.925 71.5996 292.825 65.2996 300.725 58.3996C304.425 55.3996 308.725 52.8996 312.725 50.4996Z" fill="#8C6239"/>
<path d="M306.225 12.2C301.625 10 297.025 8 292.225 6.2C289.825 6 287.425 5.8 285.025 5.5C286.125 5.8 287.225 6.1 288.125 6.5C294.325 8.6 300.125 11.1 305.925 13.8C306.025 13.3 306.025 12.8 306.225 12.2Z" fill="#8C6239"/>
<path d="M299.226 66.2996C300.926 65.2996 302.826 64.5996 304.926 63.8996C305.026 63.2996 305.126 62.6996 305.426 62.0996C305.226 62.1996 304.926 62.2996 304.726 62.3996C302.626 63.0996 300.526 63.7996 298.526 64.9996C296.626 66.1996 294.826 67.4996 293.126 68.6996C291.426 69.8996 289.626 71.1996 287.826 72.3996C286.826 72.9996 285.726 73.5996 284.526 74.1996C281.726 75.5996 278.826 77.0996 276.826 79.6996C276.526 79.9996 276.626 80.5996 276.926 80.7996C277.026 80.8996 277.226 80.9996 277.426 80.9996C277.626 80.9996 277.926 80.8996 278.026 80.6996C279.726 78.3996 282.526 76.9996 285.126 75.6996C286.226 75.0996 287.426 74.4996 288.526 73.7996C290.426 72.5996 292.226 71.2996 293.926 70.0996C295.626 68.7996 297.426 67.4996 299.226 66.2996Z" fill="#8C6239"/>
<path d="M303.025 61.6C303.125 61.6 303.225 61.6 303.325 61.5C304.425 61 305.525 60.5 306.525 59.8C308.425 57.1 311.425 55.6 314.225 54C315.025 53.5 316.225 52.9 317.325 52.1C317.325 51.9 317.225 51.7 317.225 51.5C315.525 52.3 313.825 53.1 312.225 54.1C310.925 54.9 309.725 55.7 308.625 56.5C306.725 57.8 304.925 59.1 302.825 60C302.425 60.2 302.225 60.6 302.425 61C302.425 61.4 302.725 61.6 303.025 61.6Z" fill="#8C6239"/>
<path d="M303.925 10.0004C304.825 10.5004 305.825 10.8004 306.725 11.0004C307.125 10.4004 307.625 10.0004 308.225 9.70039C307.025 9.40039 305.725 9.10039 304.625 8.50039C304.225 8.30039 303.725 8.40039 303.525 8.80039C303.425 9.30039 303.525 9.80039 303.925 10.0004Z" fill="#8C6239"/>
<path d="M297.725 72.6008C299.725 71.2008 301.725 69.8008 303.925 68.9008C304.325 68.7008 304.725 68.6008 305.125 68.4008C305.025 67.9008 304.925 67.3008 304.825 66.8008C304.325 67.0008 303.825 67.3008 303.325 67.5008C300.925 68.6008 298.825 70.0008 296.825 71.4008C294.925 72.7008 293.125 74.0008 291.025 74.9008C290.325 75.2008 289.225 75.5008 288.125 75.8008C285.325 76.6008 282.225 77.5008 281.125 79.4008C280.925 79.8008 281.025 80.3008 281.425 80.5008C281.525 80.6008 281.725 80.6008 281.825 80.6008C282.125 80.6008 282.325 80.5008 282.525 80.2008C283.325 78.9008 286.225 78.0008 288.625 77.3008C289.825 77.0008 290.925 76.6008 291.725 76.3008C293.825 75.2008 295.825 73.9008 297.725 72.6008Z" fill="#8C6239"/>
<path d="M15.9256 62.301C16.4256 62.501 16.9256 62.801 17.2256 63.201C21.0256 61.301 24.6256 59.801 29.1256 59.601C34.0256 59.401 39.1256 58.601 44.1256 57.801C45.8256 57.501 47.5256 57.301 49.2256 57.001C51.0256 56.801 52.8256 56.701 54.6256 56.501C57.7256 56.301 61.0256 56.101 64.2256 55.301C64.6256 55.201 64.9256 54.801 64.8256 54.301C64.7256 53.901 64.3256 53.601 63.8256 53.701C60.7256 54.401 57.5256 54.601 54.4256 54.801C52.6256 54.901 50.8256 55.001 48.9256 55.301C47.2256 55.501 45.5256 55.801 43.8256 56.101C38.9256 56.901 33.9256 57.701 29.0256 57.901C23.9256 58.101 19.8256 59.901 15.7256 62.001C15.8256 62.101 15.9256 62.201 15.9256 62.301Z" fill="#8C6239"/>
<path d="M18.2256 67.8008C21.9256 65.7008 25.9256 64.1008 30.6256 63.2008C34.1256 62.5008 37.7256 62.6008 41.2256 62.8008C42.1256 62.8008 43.0256 62.9008 43.9256 62.9008C47.5256 62.9008 50.8256 62.2008 54.3256 61.6008C55.2256 61.4008 56.0256 61.3008 56.9256 61.1008L57.2256 61.0008C60.2256 60.5008 63.1256 59.9008 66.2256 60.2008C68.7256 60.5008 71.0256 60.2008 73.1256 59.8008C74.6256 59.6008 76.1256 59.3008 77.6256 59.3008C80.1256 59.3008 82.8256 59.6008 85.3256 59.9008C86.8256 60.1008 88.4256 60.3008 90.0256 60.4008C91.0256 60.4008 92.0256 60.7008 93.2256 61.0008C95.3256 61.5008 97.5256 62.1008 99.5256 61.3008C99.9256 61.1008 100.126 60.7008 99.9256 60.3008C99.7256 59.9008 99.3256 59.7008 98.9256 59.9008C97.5256 60.5008 95.5256 60.0008 93.6256 59.5008C92.4256 59.2008 91.2256 58.9008 90.2256 58.9008C88.7256 58.8008 87.1256 58.6008 85.6256 58.4008C83.0256 58.1008 80.3256 57.8008 77.7256 57.8008C76.0256 57.8008 74.5256 58.1008 72.9256 58.3008C70.7256 58.6008 68.7256 58.9008 66.4256 58.7008C63.0256 58.4008 60.1256 58.9008 56.9256 59.5008L56.6256 59.6008C55.7256 59.8008 54.8256 59.9008 54.0256 60.1008C50.6256 60.7008 47.3256 61.3008 43.9256 61.4008C43.0256 61.4008 42.2256 61.3008 41.3256 61.3008C37.7256 61.1008 33.9256 61.0008 30.3256 61.8008C25.8256 62.7008 22.0256 64.2008 18.4256 66.1008C18.4256 66.5008 18.4256 67.2008 18.2256 67.8008Z" fill="#8C6239"/>
<path d="M46.4256 69.4C46.2256 69 45.7256 68.9 45.3256 69.1C43.3256 70.3 41.4256 70.3 39.2256 70.3C38.4256 70.3 37.5256 70.3 36.6256 70.4C31.9256 70.9 28.0256 73.2 24.4256 75.5C23.5256 76 22.6256 76.6 21.7256 77.1C18.5256 79 15.1256 80.5 11.7256 81.9C12.0256 82.3 12.3256 82.7 12.5256 83.2C12.6256 83.2 12.7256 83.2 12.8256 83.2C16.1256 81.8 19.4256 80.3 22.5256 78.5C23.4256 78 24.4256 77.4 25.3256 76.9C29.0256 74.7 32.5256 72.5 36.9256 72.1C37.7256 72 38.5256 72 39.3256 72.1C41.6256 72.1 43.9256 72.1 46.3256 70.7C46.5256 70.2 46.7256 69.8 46.4256 69.4Z" fill="#8C6239"/>
<path d="M150.026 73.1008C149.726 72.8008 149.226 72.8008 148.926 73.1008C147.126 74.9008 141.526 73.8008 138.526 73.3008C138.026 73.2008 137.526 73.1008 137.126 73.1008C134.726 72.7008 132.526 71.8008 130.226 70.8008C127.926 69.9008 125.626 68.9008 123.026 68.4008C117.726 67.4008 112.326 66.8008 107.126 66.2008C102.626 65.7008 97.926 65.1008 93.326 64.4008C87.626 63.5008 81.826 63.8008 76.226 64.1008C71.726 64.4008 67.026 64.6008 62.526 64.2008C56.326 63.7008 51.026 64.4008 45.326 65.3008C44.426 65.4008 43.426 65.6008 42.426 65.7008C40.626 65.9008 38.726 66.1008 36.726 66.2008C32.626 66.4008 28.326 66.7008 24.326 68.3008C20.926 69.7008 18.226 71.8008 15.726 73.8008C14.526 74.8008 13.226 75.8008 11.826 76.7008C11.126 77.2008 10.126 77.9008 9.02598 78.6008C8.82598 79.2008 8.72598 79.7008 8.62598 80.3008C8.62598 80.4008 8.72598 80.6008 8.72598 80.7008C10.126 79.8008 11.426 78.9008 12.726 78.0008C14.126 77.0008 15.426 76.0008 16.626 75.0008C19.226 73.0008 21.626 71.0008 24.826 69.7008C28.526 68.1008 32.726 67.9008 36.726 67.7008C38.626 67.6008 40.626 67.5008 42.526 67.2008C43.526 67.1008 44.426 66.9008 45.426 66.8008C51.226 65.9008 56.226 65.2008 62.226 65.7008C66.826 66.1008 71.626 65.9008 76.126 65.6008C81.626 65.3008 87.326 65.0008 92.826 65.8008C97.426 66.6008 102.126 67.1008 106.626 67.7008C111.826 68.3008 117.226 68.9008 122.526 69.9008C124.926 70.3008 127.126 71.2008 129.426 72.2008C131.726 73.1008 134.026 74.1008 136.626 74.6008C137.026 74.7008 137.426 74.7008 137.926 74.8008C141.626 75.5008 147.226 76.5008 149.726 74.2008C150.326 73.9008 150.326 73.4008 150.026 73.1008Z" fill="#8C6239"/>
<path d="M178.726 80.9004C178.226 80.7004 177.826 80.7004 177.526 80.7004C176.626 80.5004 175.726 80.3004 174.826 80.2004C170.826 79.4004 167.426 78.7004 162.726 79.3004C158.326 80.0004 154.426 81.1004 150.226 82.2004L148.526 82.7004C139.126 85.4004 128.826 81.1004 119.626 77.2004C118.526 76.7004 117.426 76.3004 116.426 75.9004C111.726 73.9004 105.826 71.4004 100.426 71.4004C99.1258 71.4004 97.8258 71.6004 96.6258 71.7004C95.0258 71.9004 93.4258 72.1004 91.8258 72.0004C91.2258 71.9004 90.5258 71.9004 89.9258 71.8004C87.2258 71.5004 84.7258 71.3004 81.8258 71.6004C80.9258 71.7004 80.1258 71.8004 79.2258 71.9004C73.7258 72.6004 68.9258 73.2004 63.0258 72.5004C62.0258 72.4004 61.0258 72.3004 60.0258 72.1004C57.7258 71.7004 55.2258 71.4004 52.5258 71.9004C51.3258 72.1004 50.2258 72.4004 48.9258 72.7004C47.4258 73.1004 45.8258 73.4004 44.2258 73.8004C43.4258 74.0004 42.6258 74.1004 41.7258 74.3004C37.1258 75.2004 32.3258 76.2004 27.9258 78.5004C23.5258 80.9004 19.5258 82.8004 14.9258 84.4004C15.5258 85.1004 15.9258 86.0004 16.0258 86.9004L100.726 85.8004C101.126 85.8004 101.526 85.4004 101.526 85.0004C101.526 84.6004 101.126 84.2004 100.726 84.2004L25.1258 85.2004C29.1258 85.1004 32.5258 83.8004 35.8258 82.5004C37.6258 81.8004 39.5258 81.0004 41.5258 80.5004C42.5258 80.2004 43.5258 79.9004 44.6258 79.5004C47.0258 78.7004 49.8258 77.7004 51.9258 77.6004C53.4258 77.5004 55.0258 77.8004 56.5258 78.1004C57.6258 78.3004 58.7258 78.5004 59.7258 78.6004C62.8258 78.9004 65.2258 78.7004 68.2258 78.3004C69.8258 78.1004 71.4258 78.4004 73.1258 78.7004C74.7258 79.0004 76.4258 79.3004 78.2258 79.2004C80.0258 79.2004 81.8258 78.8004 83.5258 78.3004C84.6258 78.0004 85.7258 77.8004 86.8258 77.6004C88.6258 77.4004 90.4258 77.4004 92.2258 77.5004C93.6258 77.5004 95.1258 77.6004 96.6258 77.5004C97.2258 77.4004 97.8258 77.3004 98.4258 77.2004C99.6258 77.0004 100.926 76.7004 102.026 76.9004C103.126 77.1004 104.126 77.7004 105.226 78.3004C106.026 78.8004 106.926 79.3004 107.826 79.6004C108.626 79.9004 109.426 80.0004 110.126 80.2004C111.226 80.4004 112.226 80.7004 113.426 81.3004C113.826 81.5004 114.226 81.7004 114.626 82.0004C115.326 82.5004 116.126 83.0004 117.026 83.2004C117.426 83.3004 117.926 83.1004 118.026 82.6004C118.126 82.2004 117.926 81.7004 117.426 81.6004C116.826 81.4004 116.126 81.0004 115.526 80.6004C115.126 80.3004 114.626 80.0004 114.226 79.8004C112.926 79.1004 111.726 78.8004 110.526 78.6004C109.826 78.5004 109.126 78.3004 108.426 78.1004C107.726 77.8004 106.926 77.4004 106.126 76.9004C104.926 76.2004 103.726 75.5004 102.426 75.3004C101.026 75.0004 99.6258 75.3004 98.2258 75.6004C97.6258 75.7004 97.0258 75.8004 96.5258 75.9004C95.1258 76.0004 93.8258 76.0004 92.3258 75.9004C90.5258 75.8004 88.6258 75.8004 86.7258 76.0004C85.5258 76.2004 84.4258 76.4004 83.2258 76.7004C81.5258 77.1004 79.9258 77.5004 78.2258 77.5004C76.6258 77.6004 75.0258 77.3004 73.5258 77.0004C71.8258 76.7004 69.9258 76.3004 68.1258 76.6004C65.2258 77.0004 62.8258 77.2004 59.9258 76.9004C58.9258 76.8004 57.9258 76.7004 56.9258 76.4004C55.2258 76.1004 53.5258 75.8004 51.8258 75.9004C49.5258 76.1004 46.7258 77.0004 44.1258 77.9004C43.0258 78.3004 42.0258 78.6004 41.1258 78.9004C39.0258 79.4004 37.1258 80.2004 35.2258 80.9004C31.9258 82.2004 28.7258 83.4004 25.0258 83.5004C24.6258 83.5004 24.2258 83.9004 24.2258 84.3004C24.2258 84.7004 24.6258 85.1004 25.0258 85.1004L17.1258 85.2004C21.1258 83.7004 24.6258 81.9004 28.5258 79.8004C32.7258 77.5004 37.2258 76.7004 41.9258 75.7004C42.7258 75.5004 43.5258 75.4004 44.4258 75.2004C46.0258 74.9004 47.6258 74.5004 49.2258 74.1004C50.4258 73.8004 51.6258 73.5004 52.7258 73.3004C55.2258 72.8004 57.4258 73.1004 59.7258 73.5004C60.7258 73.7004 61.7258 73.8004 62.8258 73.9004C68.9258 74.6004 74.0258 74.0004 79.4258 73.3004C80.2258 73.2004 81.1258 73.1004 82.0258 73.0004C84.6258 72.7004 87.1258 72.9004 89.7258 73.2004C90.3258 73.3004 91.0258 73.3004 91.6258 73.4004C93.4258 73.5004 95.0258 73.3004 96.7258 73.1004C98.0258 72.9004 99.2258 72.8004 100.426 72.8004C105.526 72.7004 111.226 75.2004 115.826 77.2004C116.826 77.6004 117.926 78.1004 119.026 78.5004C127.926 82.3004 139.026 87.0004 148.926 84.1004L150.626 83.6004C154.726 82.5004 158.626 81.4004 162.926 80.7004C167.226 80.1004 170.426 80.7004 174.426 81.5004C175.326 81.7004 176.226 81.9004 177.226 82.1004C177.326 82.1004 177.326 82.1004 177.426 82.1004C177.526 82.1004 177.726 82.1004 177.926 82.2004C178.326 82.4004 178.826 82.2004 179.026 81.8004C179.226 81.5004 179.126 81.1004 178.726 80.9004Z" fill="#8C6239"/>
<path d="M104.726 85.6012L130.326 85.3012C130.726 85.3012 131.126 84.9012 131.126 84.5012C131.126 84.1012 130.726 83.7012 130.326 83.7012L104.726 84.0012C104.326 84.0012 103.926 84.4012 103.926 84.8012C103.926 85.3012 104.326 85.6012 104.726 85.6012Z" fill="#8C6239"/>
<path d="M291.626 81.7003C291.626 81.3003 291.225 80.9003 290.826 80.9003H290.725V80.8002C290.725 79.6002 293.226 78.7003 294.926 78.1003C295.726 77.8003 296.326 77.6002 296.826 77.3002C297.826 76.7002 298.826 76.1003 299.826 75.4003C301.225 74.6003 302.526 73.7003 303.926 72.9003C304.026 72.2003 304.126 71.5002 304.426 70.8002C302.626 71.8002 300.726 73.0003 298.926 74.1003C297.926 74.7003 296.926 75.3003 296.026 75.9003C295.626 76.1003 295.025 76.3003 294.326 76.6003C292.025 77.5003 289.026 78.5002 289.126 80.8002V80.9003L209.526 81.9003C209.626 81.8003 209.725 81.7003 209.825 81.5003C209.925 81.1003 209.626 80.6003 209.226 80.5003C207.126 80.0003 205.025 78.8003 203.125 77.6003C201.425 76.6003 199.726 75.6003 197.925 75.0003C191.125 72.7003 184.425 70.5002 176.925 70.3002C176.125 70.2002 175.325 70.3002 174.625 70.3002C173.425 70.3002 172.226 70.4003 171.226 70.1003C170.626 69.9003 169.925 69.5003 169.226 69.1003C168.326 68.6003 167.425 68.0002 166.425 67.8002C163.726 67.3002 161.026 68.2003 158.526 69.0003C156.426 69.7003 154.526 70.3002 152.526 70.3002C152.026 70.3002 151.726 70.6003 151.726 71.1003C151.726 71.5003 152.026 71.9003 152.526 71.9003C154.726 72.0003 156.926 71.2003 159.026 70.6003C161.526 69.8003 163.825 69.0003 166.125 69.4003C166.825 69.6003 167.625 70.0003 168.425 70.5003C169.125 70.9003 169.925 71.4003 170.726 71.7003C171.925 72.1003 173.325 72.0003 174.625 72.0003C175.325 72.0003 176.125 72.0003 176.825 72.0003C184.125 72.3003 190.726 74.4003 197.425 76.7003C199.125 77.3003 200.726 78.2003 202.425 79.2003C204.326 80.3003 206.326 81.5003 208.425 82.1003L201.925 82.2003V82.1003C202.025 81.7003 201.726 81.3003 201.226 81.2003C197.226 80.6003 193.925 79.2003 190.325 77.7003C189.225 77.2003 188.125 76.8002 186.925 76.3002C183.726 74.9002 180.626 74.9003 177.726 75.0003C175.626 75.0003 173.525 75.0003 171.425 74.5003C164.525 72.9003 159.026 73.1003 153.726 75.1003C152.826 75.4003 152.025 75.7003 151.325 76.0003C147.925 77.3003 145.025 78.4003 141.125 78.6003C135.725 78.8003 131.725 78.0003 126.925 75.7003C126.725 75.6003 126.526 75.6003 126.326 75.7003C126.426 75.4003 126.225 75.0003 125.925 74.9003C123.525 73.6003 122.026 72.9002 119.226 72.8002C117.026 72.6002 115.026 71.8003 112.826 71.1003C110.726 70.3003 108.425 69.5002 106.025 69.3002C104.925 69.2002 103.626 69.0003 102.226 68.7003C99.8255 68.3003 97.4255 67.8003 95.4255 68.0003C95.0255 68.0003 94.6255 68.4003 94.7255 68.9003C94.7255 69.3003 95.1255 69.7003 95.6255 69.6003C97.4255 69.5003 99.8255 69.9002 102.125 70.3002C103.525 70.5002 104.825 70.8003 106.025 70.9003C108.225 71.1003 110.225 71.9003 112.425 72.6003C114.525 73.4003 116.826 74.2003 119.226 74.4003C121.726 74.5003 123.026 75.2003 125.326 76.4003C125.426 76.5003 125.526 76.5003 125.726 76.5003C125.826 76.5003 125.925 76.5003 126.025 76.4003C125.925 76.7003 126.125 77.1002 126.425 77.3002C131.525 79.8002 135.725 80.6003 141.425 80.4003C145.625 80.2003 148.625 79.0003 152.125 77.7003C152.925 77.4003 153.726 77.1002 154.526 76.8002C159.626 74.9002 164.625 74.7002 171.325 76.3002C173.625 76.8002 175.926 76.8002 178.026 76.8002C180.926 76.8002 183.725 76.8003 186.625 78.0003C187.725 78.4003 188.925 78.9003 189.925 79.4003C192.826 80.6003 195.626 81.8003 198.726 82.5003L189.125 82.6003C189.125 82.2003 188.926 81.8003 188.526 81.7003C187.226 81.4003 185.925 80.8002 184.726 80.3002C183.726 79.8002 182.725 79.3003 181.625 79.0003C181.225 78.9003 180.725 79.1003 180.625 79.5003C180.525 79.9003 180.725 80.4003 181.125 80.5003C182.125 80.8003 183.026 81.2003 184.026 81.7003C184.626 82.0003 185.326 82.3003 186.026 82.6003L159.726 82.9003C157.826 82.9003 156.826 82.9003 156.226 83.0003C156.126 83.0003 156.026 83.0003 156.026 83.0003C155.526 83.1003 155.425 83.2003 155.325 83.4003C155.225 83.6003 155.225 84.0002 155.325 84.2003C155.425 84.4003 155.726 84.6003 156.026 84.6003C156.226 84.6003 159.226 84.6003 159.726 84.6003L291.026 82.9003C291.326 82.5003 291.726 82.2003 291.626 81.7003Z" fill="#8C6239"/>
<path d="M97.5254 87.7007C94.1254 87.7007 90.6254 87.7007 87.3254 87.7007C80.7254 87.6007 73.8254 87.6007 66.9254 88.1007C50.0254 89.7007 32.7254 89.3007 16.0254 88.8007C15.9254 89.0007 15.9254 89.2007 15.8254 89.4007C15.6254 89.7007 15.5254 90.0007 15.5254 90.4007C32.5254 90.9007 49.9254 91.3007 67.2254 89.7007C74.0254 89.1007 80.8254 89.2007 87.4254 89.3007C90.7254 89.3007 94.2254 89.4007 97.7254 89.3007C98.1254 89.3007 98.5254 88.9007 98.5254 88.5007C98.3254 88.0007 97.9254 87.7007 97.5254 87.7007Z" fill="#8C6239"/>
<path d="M102.226 89.9011C105.326 89.3011 108.326 89.5011 111.526 89.8011C113.226 90.0011 115.026 90.1011 116.826 90.1011C117.526 90.1011 118.226 90.1011 118.926 90.0011C123.826 89.3011 128.226 89.5011 133.026 89.7011C136.326 89.8011 139.826 89.9011 143.326 89.7011C144.626 89.7011 146.026 89.7011 147.526 89.8011C151.726 90.0011 156.026 90.1011 159.326 88.7011C159.726 88.5011 159.926 88.1011 159.726 87.7011C159.526 87.3011 159.126 87.1011 158.726 87.3011C155.826 88.6011 151.626 88.4011 147.626 88.2011C146.126 88.1011 144.726 88.1011 143.326 88.1011C139.826 88.3011 136.426 88.2011 133.126 88.1011C128.526 87.9011 123.826 87.8011 118.826 88.5011C116.426 88.7011 114.026 88.5011 111.726 88.3011C108.626 88.0011 105.326 87.7011 102.026 88.4011C101.626 88.5011 101.326 88.9011 101.426 89.3011C101.426 89.7011 101.826 90.0011 102.226 89.9011Z" fill="#8C6239"/>
<path d="M170.925 91.5L169.925 91.4C166.725 91 163.025 90.6 159.625 91C159.425 90.8 159.025 90.7 158.825 90.9C155.325 92.4 149.525 92.4 144.925 92.5C144.225 92.5 143.525 92.5 142.825 92.5C138.925 92.6 134.825 92.6 130.925 93.2C126.325 93.3 121.625 92.8 117.125 92.3C111.325 91.7 105.225 91.1 99.1252 91.6C92.1252 92.1 84.9252 91.7 77.9252 91.4C72.3252 91.1 66.5252 90.9 60.8252 91C58.5252 91.1 56.2252 91.5 53.9252 91.8C51.4252 92.2 48.7252 92.6 46.1252 92.6C39.8252 92.7 34.4252 92.5 29.3252 92.1C24.9252 91.8 20.2252 91.9 15.3252 92.5C15.3252 92.6 15.3252 92.7 15.3252 92.8C15.6252 93.1 15.9252 93.6 16.2252 94C20.8252 93.5 25.2252 93.4 29.2252 93.7C34.4252 94.1 39.8252 94.3 46.1252 94.2C48.8252 94.2 51.5252 93.8 54.1252 93.4C56.3252 93.1 58.6252 92.7 60.8252 92.6C66.4252 92.4 72.2252 92.7 77.8252 93C84.8252 93.3 92.1252 93.7 99.2252 93.2C105.225 92.7 111.125 93.3 116.925 93.9C121.525 94.4 126.225 94.8 130.925 94.8C131.125 94.8 131.325 94.8 131.525 94.8C132.125 94.8 132.725 94.9 133.425 94.5C136.525 94.2 139.725 94.1 142.825 94.1C143.525 94.1 144.225 94.1 144.925 94.1C148.825 94.1 153.425 94.1 157.025 93.2C157.125 93.2 157.325 93.2 157.425 93.2C161.025 92.1 165.825 92.6 169.725 93.1L170.725 93.2H170.825C171.225 93.2 171.525 92.9 171.625 92.5C171.725 92 171.425 91.6 170.925 91.5Z" fill="#8C6239"/>
<path d="M58.7254 95.0996C53.3254 95.1996 48.3254 95.3996 42.9254 95.5996H42.0254C37.9254 95.7996 33.7254 95.6996 29.7254 95.5996C25.4254 95.4996 21.1254 95.4996 16.7254 95.6996C16.7254 96.2996 16.7254 96.7996 16.5254 97.2996C21.0254 97.0996 25.4254 97.0996 29.7254 97.1996C33.8254 97.2996 38.0254 97.2996 42.1254 97.1996H43.0254C48.3254 96.9996 53.4254 96.6996 58.7254 96.6996C59.1254 96.6996 59.5254 96.2996 59.5254 95.8996C59.5254 95.3996 59.1254 95.0996 58.7254 95.0996Z" fill="#8C6239"/>
<path d="M45.2252 99.2002C41.1252 98.6002 36.6252 98.9002 32.2252 99.1002C31.6252 99.1002 30.9252 99.2002 30.3252 99.2002C26.8252 99.4002 23.3252 99.3002 19.8252 99.3002C18.4252 99.3002 17.0252 99.3002 15.6252 99.3002C15.5252 99.8002 15.4252 100.4 15.3252 100.9C16.8252 100.9 18.3252 100.9 19.8252 100.9C23.3252 100.9 26.8252 101 30.4252 100.8C31.0252 100.8 31.7252 100.7 32.3252 100.7C36.1252 100.5 40.0252 100.3 43.6252 100.6C44.4252 100.4 45.1252 100.3 45.9252 100.1C45.9252 100.1 45.9252 100.1 45.9252 100C45.9252 99.6002 45.6252 99.2002 45.2252 99.2002Z" fill="#8C6239"/>
<path d="M50.226 99.3008C51.226 99.1008 52.226 99.0008 53.226 98.8008C51.626 98.9008 50.126 99.1008 48.726 99.3008C48.426 99.3008 48.226 99.5008 48.126 99.7008C48.826 99.6008 49.526 99.4008 50.226 99.3008Z" fill="#8C6239"/>
<path d="M152.526 97.5C153.826 97.3 155.126 97 156.426 96.7C159.226 96.1 162.226 95.4 164.926 95.7C169.926 96.4 173.826 96.5 178.226 95.9C183.026 95.3 187.826 95.1 192.526 94.8C197.226 94.6 202.126 94.3 206.926 93.7C210.926 93.3 214.926 93.4 218.726 93.4C223.626 93.5 228.726 93.5 233.926 92.8C239.126 91.9 244.426 91.9 249.526 91.8C252.326 91.8 255.226 91.7 258.126 91.6H259.226C259.626 91.6 260.026 91.2 260.026 90.8C260.026 90.4 259.626 90 259.226 90H258.126C255.226 90.2 252.326 90.2 249.526 90.2C244.326 90.3 239.026 90.3 233.726 91.2C228.626 91.9 223.626 91.9 218.826 91.8C214.926 91.7 210.826 91.7 206.826 92.1C202.026 92.7 197.226 92.9 192.526 93.2C187.826 93.4 182.926 93.7 178.126 94.3C173.826 94.9 170.026 94.8 165.126 94.1C162.126 93.8 159.026 94.5 156.026 95.1C154.526 95.4 152.926 95.8 151.426 96C149.426 96.3 146.626 96.1 143.726 96C138.526 95.7 133.226 95.5 130.126 97.3C137.626 97.4 145.026 97.4 152.526 97.5Z" fill="#8C6239"/>
<path d="M62.7257 96.4012C63.8257 96.0012 65.9257 96.1012 67.8257 96.2012C69.1257 96.2012 70.2257 96.3012 71.2257 96.2012C73.6257 95.9012 76.1257 96.3012 78.7257 96.7012C81.0257 97.1012 83.4257 97.4012 85.9257 97.3012C87.8257 97.2012 89.7257 97.2012 91.6257 97.3012C94.6257 97.4012 97.7257 97.4012 100.726 96.9012C103.326 96.5012 105.926 96.8012 108.726 97.2012C109.126 97.2012 109.426 97.3012 109.826 97.3012C115.326 97.3012 120.826 97.3012 126.226 97.3012C125.026 97.2012 123.826 96.9012 122.726 96.7012C120.426 96.2012 118.126 95.8012 115.826 96.0012C113.526 96.2012 111.126 95.9012 108.926 95.6012C106.226 95.3012 103.426 94.9012 100.526 95.3012C97.6257 95.8012 94.7257 95.7012 91.7257 95.6012C89.8257 95.6012 87.8257 95.5012 85.9257 95.6012C83.6257 95.7012 81.3257 95.4012 79.0257 95.0012C76.4257 94.6012 73.7257 94.2012 71.1257 94.5012C70.3257 94.6012 69.1257 94.5012 67.9257 94.5012C65.7257 94.4012 63.5257 94.3012 62.2257 94.9012C61.8257 95.1012 61.6257 95.5012 61.7257 95.9012C61.8257 96.4012 62.3257 96.6012 62.7257 96.4012Z" fill="#8C6239"/>
<path d="M174.726 92.5007C175.926 92.2007 177.426 92.4007 178.926 92.7007C179.926 92.9007 181.026 93.0007 182.126 93.0007C182.326 93.0007 182.626 93.0007 182.826 93.0007C183.826 92.9007 184.826 92.8007 185.926 92.7007C188.826 92.4007 191.526 92.0007 194.326 92.0007C197.126 92.0007 199.126 91.4007 201.326 90.8007C202.026 90.6007 202.726 90.4007 203.526 90.2007C205.526 89.9007 207.526 90.1007 209.626 90.4007C210.826 90.6007 212.026 90.7007 213.326 90.8007C215.126 90.9007 216.926 90.6007 218.726 90.4007C220.426 90.2007 222.126 89.9007 223.826 90.0007C224.226 90.0007 224.626 89.7007 224.626 89.2007C224.626 88.8007 224.326 88.4007 223.826 88.4007C222.026 88.3007 220.226 88.6007 218.426 88.8007C216.726 89.0007 215.026 89.3007 213.326 89.2007C212.126 89.2007 210.926 89.0007 209.826 88.8007C207.726 88.5007 205.526 88.2007 203.226 88.6007C202.426 88.8007 201.626 89.0007 200.926 89.2007C198.726 89.8007 196.926 90.3007 194.326 90.3007C191.426 90.3007 188.526 90.7007 185.726 91.0007C184.726 91.1007 183.726 91.2007 182.726 91.3007C181.626 91.4007 180.426 91.2007 179.226 91.0007C177.626 90.8007 176.026 90.5007 174.426 90.9007C174.026 91.0007 173.726 91.4007 173.826 91.9007C173.926 92.3007 174.326 92.6007 174.726 92.5007Z" fill="#8C6239"/>
<path d="M161.526 88.4008C161.626 88.4008 161.626 88.4008 161.626 88.4008C161.826 88.4008 162.026 88.4008 162.226 88.4008H163.226C163.626 88.4008 164.026 88.0008 164.026 87.6008C164.026 87.2008 163.626 86.8008 163.226 86.8008H162.226C161.926 86.8008 161.526 86.8008 161.526 86.8008C161.126 86.8008 160.726 87.2008 160.726 87.6008C160.726 88.2008 161.026 88.4008 161.526 88.4008Z" fill="#8C6239"/>
<path d="M166.926 88.6996C169.826 88.6996 172.726 88.8996 175.526 89.0996C178.126 89.2996 180.826 89.4996 183.626 89.4996C184.226 89.4996 184.826 89.4996 185.526 89.4996C189.226 89.3996 193.026 88.5996 196.726 87.8996C200.126 87.1996 203.526 86.5996 207.026 86.3996C212.426 85.9996 218.826 86.1996 225.526 86.8996C231.426 87.4996 237.626 86.9996 243.726 86.5996C244.526 86.4996 245.326 86.4996 246.026 86.3996C247.126 86.2996 248.226 86.1996 249.226 86.0996C251.526 85.7996 253.726 85.5996 256.126 85.8996C256.526 85.8996 256.926 85.9996 257.326 85.9996C260.326 86.3996 264.126 86.8996 266.526 85.5996C266.926 85.3996 267.026 84.8996 266.826 84.4996C266.626 84.0996 266.126 83.9996 265.726 84.1996C263.826 85.1996 260.126 84.6996 257.526 84.3996C257.126 84.2996 256.626 84.2996 256.326 84.2996C253.726 83.8996 251.326 84.1996 249.026 84.4996C248.026 84.5996 246.926 84.6996 245.826 84.7996C245.026 84.8996 244.226 84.8996 243.426 84.9996C237.426 85.3996 231.226 85.7996 225.526 85.2996C218.826 84.5996 212.326 84.3996 206.726 84.7996C203.126 84.9996 199.626 85.6996 196.226 86.3996C192.426 87.0996 188.926 87.7996 185.326 87.8996C182.026 87.9996 178.726 87.7996 175.626 87.4996C172.826 87.2996 169.826 86.9996 166.926 87.0996C166.526 87.0996 166.126 87.4996 166.126 87.8996C166.126 88.3996 166.426 88.7996 166.926 88.6996Z" fill="#8C6239"/>
<path d="M293.025 86.9003C294.925 86.9003 296.725 86.8003 298.525 86.7003C301.125 86.6003 303.925 86.5003 306.625 86.5003C309.125 86.6003 311.525 86.7003 313.925 86.9003C314.025 86.9003 314.125 86.9003 314.325 86.9003C314.225 86.4003 314.125 85.8003 314.025 85.3003C311.625 85.1003 309.125 84.9003 306.725 84.9003C303.925 84.8003 301.125 85.0003 298.525 85.1003C296.725 85.2003 294.925 85.3003 293.125 85.3003C292.525 85.3003 291.825 85.3003 291.225 85.2003C287.925 85.1003 284.625 84.9003 281.125 85.4003C281.125 85.4003 281.125 85.4003 281.025 85.4003C280.325 85.5003 279.025 85.6003 277.725 85.7003C277.125 85.7003 276.625 85.8003 276.125 85.8003C275.925 85.6003 275.625 85.6003 275.325 85.7003C275.125 85.8003 275.025 85.8003 274.825 85.9003C274.125 86.0003 273.625 86.1003 273.225 86.3003C273.125 86.3003 273.125 86.4003 273.125 86.4003C271.725 86.7003 270.225 86.8003 268.625 86.9003C267.725 87.0003 266.725 87.0003 265.725 87.1003C262.025 87.5003 258.425 87.3003 254.725 87.0003C251.825 86.8003 248.825 86.5003 245.725 86.7003C243.625 86.8003 241.525 87.0003 239.425 87.2003C235.425 87.6003 231.325 87.9003 227.325 88.0003C226.925 88.0003 226.525 88.4003 226.525 88.8003C226.525 89.2003 226.925 89.6003 227.325 89.6003C231.425 89.5003 235.625 89.2003 239.625 88.8003C241.625 88.6003 243.725 88.4003 245.825 88.3003C248.825 88.2003 251.725 88.4003 254.625 88.6003C258.325 88.9003 262.125 89.2003 266.025 88.7003C266.925 88.6003 267.925 88.5003 268.825 88.5003C270.925 88.4003 273.125 88.2003 275.325 87.4003C276.125 87.3003 277.125 87.3003 277.825 87.2003C279.225 87.1003 280.525 87.1003 281.325 86.9003C284.625 86.4003 287.925 86.6003 291.125 86.7003C291.725 86.9003 292.425 86.9003 293.025 86.9003Z" fill="#8C6239"/>
<path d="M269.125 85.0996C269.625 85.0996 270.125 85.0996 270.625 84.9996C272.425 84.8996 274.325 84.7996 275.725 85.3996C275.825 85.3996 275.925 85.4996 276.025 85.4996C276.325 85.4996 276.625 85.2996 276.725 84.9996C276.925 84.5996 276.725 84.0996 276.325 83.8996C274.625 83.0996 272.425 83.2996 270.525 83.2996C270.025 83.2996 269.525 83.2996 269.125 83.3996C268.725 83.3996 268.325 83.7996 268.325 84.1996C268.325 84.7996 268.625 85.0996 269.125 85.0996Z" fill="#8C6239"/>
<path d="M305.925 90.0004C307.925 89.9004 309.925 90.1004 312.025 90.4004C313.125 90.5004 314.325 90.7004 315.525 90.7004C315.325 90.1004 315.125 89.6004 314.925 89.1004C314.025 89.0004 313.125 88.9004 312.225 88.8004C310.125 88.6004 308.025 88.3004 305.825 88.4004C299.525 88.7004 292.325 88.9004 285.725 88.3004C281.325 87.9004 277.125 88.6004 273.025 89.3004C269.825 89.8004 266.625 90.3004 263.325 90.4004C262.925 90.4004 262.525 90.8004 262.525 91.2004C262.525 91.6004 262.925 92.0004 263.325 92.0004C266.725 92.0004 270.025 91.4004 273.225 90.9004C277.425 90.2004 281.325 89.6004 285.525 89.9004C292.325 90.5004 299.525 90.2004 305.925 90.0004Z" fill="#8C6239"/>
<path d="M303.226 92.7996C304.126 92.4996 309.226 92.8996 311.726 93.0996C313.326 93.1996 314.626 93.2996 315.126 93.2996C315.726 93.2996 316.226 93.2996 316.726 93.3996C316.726 93.2996 316.626 93.1996 316.626 93.0996C316.426 92.6996 316.226 92.1996 316.026 91.7996C315.726 91.7996 315.426 91.7996 315.126 91.7996C314.626 91.7996 313.326 91.6996 311.826 91.5996C304.526 90.9996 302.626 90.9996 302.026 91.7996C301.726 92.0996 301.826 92.5996 302.126 92.8996C302.526 93.0996 302.926 93.0996 303.226 92.7996Z" fill="#8C6239"/>
<path d="M202.325 97.9008H202.425C204.525 97.6008 206.725 97.5008 208.925 97.5008C210.725 97.5008 212.525 97.4008 214.425 97.2008C217.725 96.8008 221.225 96.8008 224.525 96.8008C228.225 96.8008 232.125 96.8008 235.925 96.2008C237.325 96.0008 238.825 95.7008 240.325 95.5008C245.525 94.6008 251.325 93.5008 256.225 95.0008C256.325 95.1008 256.425 95.2008 256.525 95.3008C258.525 96.6008 262.325 96.1008 265.625 95.7008C266.925 95.6008 268.125 95.4008 269.025 95.4008C272.925 95.3008 276.925 95.5008 280.825 95.7008C284.325 95.9008 287.925 96.0008 291.425 96.0008C296.825 95.8008 302.325 95.7008 307.725 95.7008C308.725 95.5008 309.925 95.3008 310.325 95.4008C310.725 95.5008 311.225 95.3008 311.325 94.9008C311.525 94.5008 311.325 94.0008 310.825 93.9008C310.125 93.6008 308.825 93.9008 306.725 94.3008C305.525 94.5008 304.225 94.8008 303.425 94.8008C301.525 94.9008 299.625 94.8008 297.625 94.6008C296.025 94.5008 294.325 94.4008 292.625 94.4008C288.725 94.5008 284.725 94.3008 280.825 94.1008C276.925 93.9008 272.925 93.8008 268.925 93.8008C267.925 93.8008 266.725 94.0008 265.325 94.1008C263.025 94.4008 260.425 94.7008 258.625 94.3008C258.525 94.2008 258.425 94.0008 258.225 94.0008C252.625 91.6008 245.925 92.8008 239.925 93.8008C238.425 94.1008 236.925 94.3008 235.525 94.5008C231.825 95.0008 228.025 95.0008 224.325 95.1008C220.925 95.1008 217.525 95.1008 214.125 95.5008C212.325 95.7008 210.525 95.7008 208.725 95.8008C206.525 95.9008 204.225 95.9008 202.025 96.2008C201.625 96.3008 201.325 96.7008 201.325 97.1008C201.625 97.6008 201.925 97.9008 202.325 97.9008Z" fill="#8C6239"/>
<path d="M298.925 92.7013C299.325 92.7013 299.725 92.3013 299.625 91.8013C299.625 91.4013 299.225 91.0013 298.725 91.1013C295.225 91.5013 292.025 91.4013 288.325 91.3013H287.825C287.325 91.3013 286.625 91.2013 285.925 91.1013C282.925 90.7013 280.525 90.5013 279.325 91.1013C278.925 91.3013 278.725 91.8013 278.925 92.2013C279.125 92.6013 279.625 92.8013 280.025 92.6013C281.025 92.1013 283.925 92.5013 285.825 92.7013C286.525 92.8013 287.225 92.9013 287.825 92.9013H288.325C290.125 93.0013 291.725 93.0013 293.425 93.0013C295.225 93.0013 297.025 92.9013 298.925 92.7013Z" fill="#8C6239"/>
<path d="M248.226 98.001C250.826 97.901 253.426 97.801 255.926 97.701C255.126 97.601 254.326 97.401 253.526 97.101C251.926 96.701 250.326 96.201 248.526 96.401C247.326 96.501 246.226 96.901 245.226 97.301C244.526 97.601 243.926 97.801 243.226 98.001C244.926 98.101 246.526 98.101 248.226 98.001Z" fill="#8C6239"/>
<path d="M191.425 97.9006C193.025 97.7006 195.725 97.4006 196.325 97.6006C196.625 97.8006 197.125 97.8006 197.425 97.4006C197.725 97.1006 197.625 96.6006 197.325 96.3006C196.525 95.7006 194.825 95.9006 191.225 96.3006C190.025 96.4006 188.925 96.6006 188.425 96.6006C185.225 96.5006 182.125 96.3006 179.125 96.4006C178.725 96.4006 178.325 96.8006 178.325 97.2006C178.325 97.4006 178.425 97.6006 178.525 97.7006C182.825 97.8006 187.125 97.8006 191.425 97.9006Z" fill="#8C6239"/>
<path d="M169.526 97.5997C169.426 97.4997 169.226 97.3997 169.026 97.3997C165.926 97.2997 160.926 97.2997 157.426 97.4997C161.426 97.5997 165.526 97.5997 169.526 97.5997Z" fill="#8C6239"/>
<path d="M19.9256 102.9C19.5256 102.8 19.0256 102.8 18.6256 102.7C17.3256 102.4 16.1256 102.2 14.9256 102.1C14.8256 102.3 14.8256 102.5 14.7256 102.7C16.4256 102.9 18.2256 103 19.9256 102.9Z" fill="#8C6239"/>
<path d="M292.326 73.9C290.826 73.8 289.526 74.1 288.626 75.8C287.026 79 288.026 81.8 291.126 82C291.826 81.8 292.526 81.5 293.326 81.3C294.726 80.8 295.926 78.1 295.326 76.5C294.726 75 293.726 74 292.326 73.9Z" fill="#999999"/>
<path d="M50.9253 16.5997C49.4253 16.4997 48.1253 16.7997 47.2253 18.0997C45.7253 20.4997 46.7253 22.4997 49.8253 22.5997C50.5253 22.3997 51.2253 22.1997 52.0253 21.9998C53.4253 21.5998 54.6253 19.5997 53.9253 18.3997C53.3253 17.3997 52.3253 16.5997 50.9253 16.5997Z" fill="#999999"/>
<path d="M288.926 21.1004C289.026 19.9004 288.726 18.7004 287.626 17.8004C286.426 16.9004 285.226 16.3004 283.826 16.8004C281.226 17.8004 280.826 20.1004 283.226 22.0004C283.926 22.3004 284.626 22.5004 285.326 22.8004C286.526 23.3004 288.726 22.4004 288.926 21.1004Z" fill="#999999"/>
<path d="M39.1255 81.8009C37.6255 81.7009 36.3255 82.0009 35.4255 83.3009C33.9255 85.7009 34.9255 87.7009 38.0255 87.8009C38.7255 87.6009 39.4255 87.4009 40.2255 87.2009C41.6255 86.8009 42.8255 84.8009 42.1255 83.6009C41.5255 82.6009 40.5255 81.9009 39.1255 81.8009Z" fill="#999999"/>
<path d="M288.626 76.8C289.526 75.1 290.826 74.7 292.326 74.9C293.726 75 294.726 76 295.326 77.5C295.426 77.7 295.426 77.8 295.426 78C295.526 77.5 295.526 76.9 295.326 76.5C294.726 75 293.726 74 292.326 73.9C290.826 73.8 289.526 74.1 288.626 75.8C288.026 77 287.826 78.1 287.926 79.1C287.926 78.4 288.226 77.6 288.626 76.8Z" fill="#CCCCCC"/>
<path d="M47.2258 19.0997C48.0258 17.7997 49.4258 17.4997 50.9258 17.5997C52.3258 17.6997 53.3258 18.3998 53.9258 19.4998C54.0258 19.5998 54.0258 19.6997 54.0258 19.7997C54.1258 19.2997 54.1258 18.8998 53.9258 18.4998C53.3258 17.3998 52.3258 16.6997 50.9258 16.5997C49.4258 16.4997 48.1258 16.7997 47.2258 18.0997C46.6258 18.9997 46.4258 19.8997 46.6258 20.5997C46.6258 20.0997 46.8258 19.5997 47.2258 19.0997Z" fill="#CCCCCC"/>
<path d="M283.725 17.7008C285.225 17.2008 286.425 17.8008 287.525 18.7008C288.325 19.3008 288.725 20.2008 288.825 21.0008C288.925 19.8008 288.625 18.6008 287.525 17.7008C286.325 16.8008 285.125 16.2008 283.725 16.7008C282.025 17.3008 281.325 18.5008 281.525 19.7008C281.825 18.9008 282.525 18.2008 283.725 17.7008Z" fill="#CCCCCC"/>
<path d="M35.426 84.3009C36.226 83.0009 37.626 82.7009 39.126 82.8009C40.526 82.9009 41.526 83.6009 42.126 84.7009C42.226 84.8009 42.226 84.9009 42.226 85.0009C42.326 84.5009 42.326 84.1009 42.126 83.7009C41.526 82.6009 40.526 81.9009 39.126 81.8009C37.626 81.7009 36.326 82.0009 35.426 83.3009C34.826 84.2009 34.626 85.1009 34.826 85.8009C34.926 85.4009 35.126 84.8009 35.426 84.3009Z" fill="#CCCCCC"/>
<path d="M225.726 98.8C220.726 98.7 215.926 98.7 211.226 98.6C207.426 98.6 203.626 98.2 199.826 98.5C196.326 98.7 192.926 98 189.326 98.8C186.926 99.3 184.226 98.8 181.726 98.8C177.726 98.7 173.726 98.6 169.826 98.5C166.626 98.4 163.426 98.1 160.226 98.1C157.726 98.1 155.126 98.9 152.726 98.4C148.126 97.5 143.526 98.6 138.826 98.1C133.826 97.5 128.626 97 123.526 97.5C120.726 97.8 117.826 97.2 115.026 97.3C110.926 97.4 106.826 97.1 102.726 97.3C98.5257 97.5 94.3257 97.4 90.1257 97.7C86.6257 97.9 83.1257 97.3 79.7257 98.1C78.7257 98.3 77.7257 98.6 76.7257 98.7C74.8257 98.8 72.9257 98.9 70.9257 98.9C67.5257 98.8 64.1257 98.9 60.7257 98.4C58.8257 98.1 56.7257 98.4 54.7257 98.6C49.9257 99.1 45.1257 99.7 40.4257 100.6C40.1257 100.7 39.7257 101 39.4257 101C35.4257 100.1 31.7257 101.9 27.7257 101.9C26.0257 101.9 24.2257 102 22.5257 102.2C20.6257 102.4 18.7257 101.9 16.8257 102.8C16.0257 103.2 14.8257 102.7 13.8257 102.4C13.0257 102.1 11.9257 101.6 11.8257 101.1C11.6257 100.3 11.7257 99.2 12.8257 98.5C14.0257 97.7 15.0257 96.7 16.1257 95.7C17.8257 94.1 17.7257 93.7 16.1257 92.2C14.7257 90.9 14.3257 89.4 15.1257 87.9C15.4257 87.3 16.0257 86.9 16.5257 86.3C16.9257 85.8 17.3257 85.4 17.7257 84.9C17.8257 84.7 17.9257 84.4 17.8257 84.2C17.7257 84 17.3257 83.8 17.1257 83.9C15.6257 84.7 14.0257 84.2 12.9257 83.6C11.2257 82.7 9.72574 81.2 8.42574 79.7C7.92574 79.1 8.02574 77.7 8.42574 76.9C9.12574 75.5 10.2257 74.4 11.2257 73.2C13.0257 71.2 14.8257 69.2 16.7257 67.2C16.8257 67.1 16.7257 66.8 16.8257 66.7C17.5257 65.8 18.8257 65.8 19.3257 64.7C18.2257 64.5 17.2257 64.3 16.1257 63.9C14.9257 63.5 15.1257 62.5 15.3257 61.6C15.6257 60.7 15.3257 60.2 14.3257 60.2C13.3257 60.2 12.4257 60.1 11.4257 60.2C10.3257 60.2 8.42574 58.9 8.12574 57.9C7.82574 56.8 8.72574 55.1 9.82574 54.4C13.3257 51.9 17.4257 50.8 21.2257 49C23.5257 47.9 25.8257 46.7 28.0257 45.4C29.2257 44.7 29.0257 43.9 27.8257 43.3C27.2257 43 26.6257 42.5 25.9257 42.5C22.9257 42.4 20.3257 40.8 17.5257 39.9C15.8257 39.4 14.0257 39 12.3257 38.4C10.7257 37.9 10.4257 36.3 11.7257 35.2C12.3257 34.8 12.9257 34.5 13.5257 34.1C13.8257 33.9 14.0257 33.7 14.2257 33.5C13.9257 33.3 13.7257 33 13.4257 33C11.0257 32.6 8.72574 32.2 6.32574 31.8C5.42574 31.7 4.62574 31.4 4.62574 30.4C4.62574 29.5 4.52574 28.1 5.82574 27.9C8.32574 27.4 9.42574 25.1 11.3257 23.8C13.3257 22.4 15.2257 21 17.2257 19.6C17.4257 19.4 17.7257 19.4 17.9257 19.2C19.9257 18 20.1257 16.2 18.3257 14.8C17.6257 14.3 16.8257 13.9 15.9257 13.7C12.4257 12.9 8.82574 12.1 5.32574 11.3C4.12574 11 2.92574 10.6 1.82574 10.1C0.825742 9.7 -0.174258 8.7 0.0257419 7.9C0.325742 6.8 0.825742 5.6 2.32574 5.1C4.72574 4.4 7.02574 3.4 9.42574 2.6C9.92574 2.4 10.5257 2.7 11.0257 2.6C13.9257 2.3 16.8257 1.6 19.8257 1.7C21.3257 1.7 23.1257 0.800001 24.8257 0.700001C27.2257 0.700001 29.6257 -0.3 32.1257 0.5C32.7257 0.7 33.5257 0.400001 34.1257 0.300001C34.6257 0.200001 35.1257 0 35.6257 0C39.3257 0.2 43.1257 0.600001 46.8257 0.700001C48.8257 0.800001 50.8257 0.5 52.8257 0.5C54.8257 0.5 56.8257 0.5 58.9257 0.5C59.9257 0.5 60.8257 0.4 61.8257 0.4C64.4257 0.4 66.9257 0.6 69.5257 0.5C73.4257 0.3 77.2257 1.1 81.2257 0.800001C84.2257 0.600001 87.2257 1.1 90.2257 1.1C94.5257 1.1 98.8257 1 103.126 1C107.326 1 111.426 1.5 115.626 1.3C119.826 1.1 124.026 1.7 128.126 0.800001C129.526 0.500001 131.126 0.900001 132.626 0.800001C136.826 0.600001 141.026 1 145.226 0.800001C147.626 0.700001 150.126 0.800001 152.626 0.800001C157.226 0.700001 161.726 0.700001 166.326 0.800001C169.626 0.900001 172.926 1.2 176.226 1.3C179.226 1.4 182.126 1.1 185.126 1.1C186.826 1.1 188.526 1.1 190.226 1.4C194.426 2 198.526 1.8 202.726 1.8C204.626 1.8 206.426 2.1 208.326 2.1C212.426 2.1 216.526 1.9 220.626 2C222.226 2 223.826 2.3 225.426 2.3C228.726 2.2 232.026 2.8 235.326 2.7C240.026 2.6 244.726 3.1 249.426 3.4C253.726 3.7 258.126 3.8 262.426 3.9C267.126 4.1 271.826 3.9 276.526 4.4C280.826 4.9 285.226 4.8 289.526 4C292.626 3.4 295.926 3.5 299.126 3.2C302.526 2.9 305.826 2.3 309.326 2.6C311.526 2.8 313.726 2.1 315.926 2.7C316.826 2.9 318.226 2.7 318.326 4C318.526 5.4 317.926 6.7 316.726 7.5C314.326 9.3 311.726 11 309.326 12.8C308.826 13.2 308.226 13.9 308.226 14.5C308.226 15.5 309.126 15.6 310.026 15.8C311.126 16 312.226 16.5 313.226 16.9C314.926 17.6 315.326 19.7 313.726 20.7C312.626 21.4 311.326 21.8 310.126 22.3C309.826 22.4 309.726 22.8 309.426 23.1C309.726 23.3 309.926 23.5 310.226 23.7C314.126 26 314.226 25.7 311.226 29.4C311.026 29.6 310.926 29.8 310.826 30C309.926 31.4 307.426 32.2 308.826 34.5C309.826 36.1 310.926 37.5 312.826 38.3C314.126 38.8 315.326 39.8 316.526 40.6C317.826 41.4 319.126 42.3 320.526 42.9C321.626 43.4 321.826 44 321.626 45C320.726 49.3 318.226 52.2 314.526 54.3C311.726 55.9 309.026 57.7 306.226 59.4C305.326 59.9 305.226 60.6 305.826 61.5C306.226 62 306.726 62.5 306.926 63.1C307.226 64.1 308.126 64.9 307.026 66.2C306.026 67.4 306.926 69.2 308.626 70.2C310.126 71 311.826 71.6 312.826 73.1C313.126 73.5 313.826 73.9 314.426 73.9C316.226 74 317.426 75.2 319.026 75.8C319.926 76.2 320.326 76.6 320.226 77.6C320.026 78.5 320.026 79.4 318.926 79.8C317.726 80.2 316.426 80.4 315.226 80.9C314.426 81.2 313.626 81.8 313.226 82.5C312.726 83.6 313.926 83.9 314.526 84.5C317.426 87 320.726 89 322.926 92.3C324.126 94.1 323.926 94.8 321.726 95.2C317.726 96 313.826 96.9 309.626 96.5C306.226 96.2 302.726 96.2 299.326 97.2C298.126 97.6 296.726 97.4 295.426 97.4C292.626 97.4 289.826 97.4 287.026 97.4C285.426 97.4 283.826 97.6 282.326 97.4C278.526 96.8 274.726 97.1 270.926 97.1C267.126 97.2 263.326 97.1 259.526 98.1C258.526 98.4 257.426 98 256.326 98C253.226 98.1 250.026 98.1 246.926 98.3C244.026 98.4 241.226 98.7 238.326 98.8C236.626 98.9 235.026 98.9 233.326 98.8C231.126 99 228.526 98.9 225.726 98.8ZM264.526 6.7C263.326 6.5 262.126 6.4 260.826 6.6C259.126 6.8 257.226 6.5 255.526 6.3C252.126 6 248.626 5.5 245.226 5.2C245.026 5.2 244.826 5.1 244.726 5.1C241.526 5.1 238.426 5.2 235.226 5.2C232.426 5.2 229.526 4.7 226.726 5C222.026 5.5 217.426 4.7 212.726 4.8C209.426 4.8 206.126 4.5 202.826 4.3C201.426 4.2 199.926 4 198.626 4.2C194.926 4.6 191.226 3.8 187.526 4C185.626 4.1 183.826 3.7 181.926 3.7C178.726 3.7 175.626 3.8 172.426 3.8C169.126 3.7 165.826 3.4 162.526 3.3C161.026 3.3 159.626 3.5 158.126 3.5C155.626 3.5 153.226 3.8 150.726 3.5C147.826 3.1 145.126 3.9 142.226 3.4C139.526 3 136.626 3.5 133.926 3.6C131.326 3.6 128.626 3.4 126.026 3.4C123.026 3.5 119.926 4.3 117.026 4C112.726 3.6 108.526 4 104.226 3.7C102.426 3.6 100.626 3.5 98.9257 3.4C96.8257 3.4 94.7257 3.4 92.6257 3.4C91.0257 3.4 89.5257 3.5 87.9257 3.5C85.4257 3.5 82.8257 3.6 80.3257 3.5C77.9257 3.4 75.5257 3.1 73.0257 2.9C71.5257 2.8 70.0257 2.8 68.5257 2.8C66.2257 2.9 64.0257 3.4 61.8257 3.2C57.1257 2.8 52.5257 3 47.8257 3.2C46.0257 3.3 44.1257 3.3 42.3257 3.2C39.3257 3 36.3257 3.9 33.3257 3.1C32.4257 2.9 31.4257 3 30.4257 3.1C25.8257 3.6 21.2257 4.3 16.6257 4.7C13.2257 5 9.82574 5.6 6.52574 6.6C5.82574 6.8 5.32574 7.3 4.72574 7.7C5.32574 8 5.92574 8.5 6.52574 8.7C8.62574 9.1 10.7257 9.4 12.8257 9.8C16.3257 10.5 19.6257 11.5 22.2257 14.2C22.8257 14.9 23.7257 17.1 23.4257 17.8C22.5257 19.7 21.4257 21.5 19.4257 22.6C18.2257 23.3 17.0257 23.8 15.9257 24.6C14.1257 26 12.4257 27.7 10.7257 29.2C10.9257 29.4 11.0257 29.7 11.3257 29.8C13.1257 30.4 15.1257 30 16.8257 31.2C17.4257 31.7 18.4257 31.7 18.3257 32.7C18.2257 33.8 17.9257 34.8 16.8257 35.2C16.6257 35.3 16.3257 35.3 16.1257 35.5C15.9257 35.7 15.7257 36 15.5257 36.3C15.8257 36.5 16.1257 36.7 16.4257 36.8C17.9257 37.2 19.6257 37.1 20.9257 37.9C23.0257 39.2 25.1257 40.1 27.5257 40.4C28.2257 40.5 29.0257 40.6 29.7257 40.8C31.1257 41.2 32.9257 43.3 32.8257 44.4C32.7257 45.5 30.4257 48.6 29.5257 48.5C28.1257 48.3 27.5257 49.2 26.6257 49.8C25.7257 50.3 25.0257 51.3 24.1257 51.5C20.9257 52.3 18.2257 53.9 15.2257 55.2C14.5257 55.5 13.8257 56 13.1257 56.5C12.9257 56.7 12.8257 57.1 12.6257 57.4C12.8257 57.5 13.1257 57.7 13.3257 57.7C14.6257 57.7 15.9257 58.5 17.3257 57.9C18.0257 57.6 19.0257 58 19.6257 59C20.1257 59.8 20.1257 60.1 19.4257 60.8C19.0257 61.2 18.8257 62.2 20.1257 62.3C21.3257 62.4 22.5257 63.1 22.6257 64.3C22.7257 65.6 22.6257 67 21.0257 67.8C19.2257 68.7 18.0257 70.3 16.9257 71.9C15.6257 73.7 14.2257 75.5 12.6257 77.1C11.9257 77.9 11.5257 78.7 12.0257 79.5C12.5257 80.4 13.4257 81.3 14.3257 81.6C15.5257 81.9 16.9257 81.6 18.2257 81.5C20.2257 81.3 21.6257 82.8 21.0257 84.7C20.7257 85.8 20.0257 86.9 19.4257 87.9C18.1257 89.9 18.2257 89.9 20.1257 91.7C20.8257 92.3 21.3257 93.3 21.4257 94.2C21.5257 94.7 20.7257 95.4 20.2257 95.9C19.0257 97 17.7257 98 16.5257 99C16.2257 99.2 16.0257 99.4 15.8257 99.7C16.2257 99.8 16.8257 100.2 17.0257 100.1C18.8257 98.9 20.9257 99.2 22.8257 99C26.2257 98.6 29.5257 98.5 32.9257 98.3C35.6257 98.2 38.3257 98.2 41.0257 97.9C43.4257 97.7 45.8257 97.3 48.1257 96.9C54.2257 95.8 60.4257 95.6 66.6257 96.1C68.1257 96.2 69.6257 96.3 71.1257 96.3C72.4257 96.3 73.7257 96.1 75.0257 96C77.3257 95.8 79.6257 95.4 82.0257 95.4C85.5257 95.3 89.1257 95.8 92.5257 95.4C98.7257 94.7 104.926 95 111.226 95.2C112.826 95.3 114.426 95.5 116.026 95.3C120.626 94.8 125.226 94.7 129.726 95.4C131.726 95.7 133.926 96.1 135.926 95.8C139.926 95.2 143.926 96.2 148.026 95.8C152.626 95.3 157.326 95.6 162.026 95.8C166.226 96 170.426 95.8 174.526 96.3C178.926 96.8 183.226 96.4 187.526 96.4C192.726 96.4 198.026 96.5 203.326 96.4C206.726 96.3 210.126 96.7 213.626 96.5C218.726 96.2 223.826 96.6 228.926 96.7C230.626 96.7 232.226 96.7 233.926 96.6C236.926 96.5 240.026 96.3 243.026 96.3C245.626 96.3 248.326 96.7 250.926 96.4C256.026 96 261.226 95.1 266.326 94.7C270.026 94.4 273.726 94.7 277.426 94.7C280.026 94.7 282.726 94.8 285.326 94.7C288.226 94.6 291.226 94.2 294.126 94.2C296.926 94.2 299.826 94.7 302.626 94.3C305.426 93.9 308.226 93.7 311.026 94.1C312.526 94.3 314.026 94.4 315.526 94.3C316.826 94.2 318.126 93.7 319.426 93.4C318.626 92.4 317.926 91.2 317.026 90.3C315.326 88.7 313.526 87.2 311.826 85.6C311.126 84.9 310.526 84.2 309.826 83.5C309.326 82.9 309.626 82.6 309.926 81.9C311.026 79.7 312.826 79.1 315.026 78.8C315.526 78.7 315.926 78.2 316.426 78C316.026 77.8 315.526 77.4 315.126 77.4C313.026 77.3 311.426 76.4 310.026 74.9C309.326 74.2 308.826 73.6 307.726 73.2C304.926 72.3 304.126 70.6 304.626 67.9C304.926 66.5 304.826 65.3 303.826 64.1C303.326 63.5 303.126 62.5 303.026 61.7C302.926 60.5 302.726 59.1 304.026 58.3C306.826 56.4 309.526 54.2 312.526 52.8C315.226 51.6 316.826 49.6 318.526 47.4C319.326 46.4 319.026 45.6 317.926 45.1C317.026 44.7 316.226 44.3 315.426 43.8C312.926 42.3 310.626 40.5 308.426 38.6C305.526 36.2 305.626 32.7 307.826 30.1C308.326 29.5 308.926 29 309.526 28.4C310.726 27.2 310.626 27.1 309.126 26.2C308.426 25.8 307.626 25.3 307.126 24.6C305.526 22.8 306.026 21.7 308.426 20.9C309.026 20.7 309.626 20.7 310.226 20.6C310.526 20.5 311.026 20.2 311.026 20C311.026 19.7 310.626 19.4 310.426 19.1C310.326 19 310.026 19 309.926 19C307.926 19.4 307.626 17.2 306.326 16.5C305.526 16.1 305.726 12.9 306.526 12.3C308.826 10.6 311.126 8.9 313.526 7.3C314.226 6.8 314.926 6.5 315.626 6.1C314.626 5.9 313.726 5.6 312.726 5.5C312.326 5.5 311.926 5.8 311.526 5.9C311.026 6 310.526 6.2 310.026 6.1C306.726 5.6 303.626 6.2 300.426 6.6C298.726 6.8 297.026 7.7 295.426 7.5C291.926 7.1 288.426 8.5 284.826 7.5C282.326 8.4 279.926 7.7 277.426 7.4C276.526 7.3 275.626 7.1 274.726 7.1C271.026 6.7 268.026 6.7 264.526 6.7ZM45.2257 23.1C47.2257 25 49.5257 26.2 52.3257 25.4C54.3257 24.8 56.4257 24.4 57.6257 22.3C58.5257 20.8 58.5257 19.2 57.2257 18.1C56.7257 17.6 56.3257 17 55.7257 16.4C51.5257 14 51.5257 14 47.8257 15C47.4257 15.1 47.1257 15.2 46.8257 15.4C44.7257 16.5 42.7257 20.7 45.2257 23.1ZM47.2257 18.1C48.0257 16.8 49.4257 16.5 50.9257 16.6C52.3257 16.7 53.3257 17.4 53.9257 18.5C54.6257 19.7 53.4257 21.7 52.0257 22.1C51.3257 22.3 50.6257 22.5 49.8257 22.7C46.7257 22.5 45.6257 20.5 47.2257 18.1ZM36.3257 90.2C36.7257 90.3 37.2257 90.4 37.7257 90.4C38.5257 90.4 39.2257 90.3 40.0257 90.3C40.2257 90.3 40.4257 90.3 40.5257 90.2C41.9257 89.6 42.8257 88.8 43.7257 87.4C44.1257 86.7 45.7257 83.6 45.0257 82.9C44.6257 82.5 44.3257 82.1 43.9257 81.6C39.7257 79.2 39.7257 79.2 36.0257 80.2C35.6257 80.3 35.3257 80.4 35.0257 80.6C32.9257 81.7 30.9257 86 33.4257 88.3C34.3257 89.1 35.2257 89.9 36.3257 90.2ZM35.4257 83.3C36.2257 82 37.6257 81.7 39.1257 81.8C40.5257 81.9 41.5257 82.6 42.1257 83.7C42.8257 84.9 41.6257 86.9 40.2257 87.3C39.5257 87.5 38.8257 87.7 38.0257 87.9C34.9257 87.7 33.9257 85.7 35.4257 83.3ZM279.926 23C280.226 23.7 280.726 24.3 281.626 24.8C283.126 25.7 284.926 25.9 286.626 25.9C286.926 25.9 287.226 25.9 287.526 25.7C288.126 25.3 288.826 24.6 289.526 24.1C289.926 23.8 291.826 22.6 291.726 22.1C291.626 21.6 291.626 21 291.626 20.4C289.726 15.9 289.726 15.9 286.126 14.6C285.826 14.5 285.426 14.4 285.026 14.3C282.626 13.9 278.526 16.2 279.126 19.6C279.426 20.9 279.526 22 279.926 23ZM283.726 16.7C285.226 16.2 286.426 16.8 287.526 17.7C288.626 18.6 288.926 19.8 288.826 21C288.626 22.3 286.526 23.3 285.126 22.7C284.426 22.4 283.726 22.2 283.026 21.9C280.726 20 281.126 17.7 283.726 16.7ZM286.526 82.5C288.426 85.1 290.826 86.8 293.626 85.8C295.626 85.1 297.726 84.5 299.026 81.7C299.926 79.7 299.926 77.5 298.726 76C298.226 75.4 297.826 74.5 297.226 73.6C293.026 70.2 293.026 70.2 289.326 71.5C288.926 71.6 288.626 71.8 288.326 72C286.126 73.5 284.126 79.3 286.526 82.5ZM288.626 75.8C289.526 74.1 290.826 73.7 292.326 73.9C293.726 74 294.726 75 295.326 76.5C296.026 78.1 294.726 80.8 293.326 81.3C292.626 81.5 291.926 81.8 291.126 82C288.026 81.8 287.026 79 288.626 75.8Z" fill="black"/>
</svg>
