<svg width="274" height="109" viewBox="0 0 274 109" fill="none" xmlns="http://www.w3.org/2000/svg">
<path d="M218.222 91.6331C218.408 91.7261 218.687 91.7261 218.873 91.6331C219.337 91.3543 219.895 91.0754 220.081 90.7035C220.081 90.6105 220.081 90.6105 220.081 90.6105C217.664 90.5176 215.34 90.5176 212.923 90.5176C213.016 90.7035 213.109 90.8894 213.295 91.0754C215.061 91.1683 216.641 91.2613 218.222 91.6331Z" fill="black"/>
<path d="M132.323 94.0503C132.881 94.2362 133.532 94.3292 134.09 94.3292C136.228 94.1432 138.459 93.7714 140.876 93.5855C143.293 93.4925 145.338 92.8417 147.569 93.2136C147.662 93.2136 147.755 93.3066 147.755 93.2136C148.034 92.9347 148.406 92.6558 148.685 92.3769C148.313 92.191 148.034 91.9121 147.662 91.9121C146.64 91.9121 145.617 92.0051 144.687 92.098C143.2 92.191 141.713 91.9121 140.318 92.191C137.808 92.7488 135.205 92.6558 132.695 92.8417C132.416 92.8417 132.137 93.0277 131.858 93.2136C131.951 93.4925 132.044 93.9573 132.323 94.0503Z" fill="black"/>
<path d="M136.321 90.4258C137.343 90.4258 138.459 90.4258 139.482 90.1469C138.18 90.0539 136.879 90.0539 135.577 89.9609C135.763 90.1469 136.042 90.4258 136.321 90.4258Z" fill="black"/>
<path d="M258.103 91.0753C259.405 90.6104 260.799 90.2386 261.636 88.3793C262.194 87.0778 262.287 85.5904 261.45 84.5678C261.078 84.103 260.799 83.6382 260.427 82.9874C257.639 80.7563 257.639 80.7563 255.221 81.593C254.943 81.6859 254.757 81.7789 254.571 81.9648C253.176 82.8945 251.782 86.706 253.455 88.8441C254.757 90.6104 256.244 91.726 258.103 91.0753ZM254.85 84.3819C255.407 83.2663 256.337 82.9874 257.267 83.0804C258.196 83.1734 258.847 83.8241 259.219 84.8467C259.684 85.8693 258.847 87.7286 257.917 88.0075C257.453 88.1934 256.988 88.3793 256.523 88.4723C254.478 88.3793 253.734 86.52 254.85 84.3819Z" fill="black"/>
<path d="M274 81.7796C273.907 79.0837 273.163 76.3877 272.512 73.6918C271.769 70.531 272.048 67.2773 271.583 64.1165C271.49 63.2799 271.583 62.2573 271.862 61.4206C272.141 60.5839 271.583 59.9332 271.955 59.0035C272.234 58.2598 271.769 57.3302 271.769 56.4935C271.862 52.682 272.698 48.9634 272.327 45.1519C272.141 42.2701 272.605 39.3882 272.698 36.5063C272.698 31.7652 273.349 26.9311 273.07 22.0969C272.884 18.8432 271.583 16.1473 269.724 13.7302C268.794 12.4287 267.492 11.4061 266.47 10.1976C265.912 9.45389 265.261 9.26796 264.425 9.175C263.96 9.08203 263.495 9.08203 263.03 9.08203C263.216 10.0117 263.402 10.9413 263.588 11.8709C264.425 12.2428 265.168 12.7076 266.005 13.3584C268.422 15.4965 269.724 18.0995 270.839 20.8884C270.932 21.0743 270.839 21.3532 270.839 21.5392C270.839 23.5844 270.56 25.6296 270.839 27.6748C271.118 30.3707 270.374 33.0667 270.653 35.6696C271.025 39.76 270.002 43.6645 270.002 47.662C270.002 49.2423 269.352 50.2649 268.05 50.8227C267.492 51.0086 267.307 51.2875 267.399 51.6594C267.492 51.9383 267.957 52.1242 268.329 52.2172C268.887 52.4031 269.817 52.4961 269.91 52.8679C270.281 53.7976 269.259 54.1694 268.701 54.5413C267.307 55.285 265.912 55.8428 264.518 56.4005C263.681 56.6794 262.937 56.9583 262.101 57.2372C262.101 57.6091 262.101 57.888 262.101 58.2598C262.472 58.0739 262.937 57.9809 263.402 57.888C265.447 57.4231 267.492 57.0513 269.445 56.1216C269.631 56.0287 269.91 55.9357 270.002 56.0287C270.095 56.1217 270.188 56.4935 270.188 56.5865C269.352 57.2372 269.91 57.9809 270.002 58.7246C270.095 59.8402 269.909 60.9558 269.724 62.0713C268.887 63.001 268.422 63.8376 267.864 64.4884C266.842 65.6039 266.842 65.7899 268.236 66.7195C268.608 66.9984 268.98 67.4632 269.259 67.8351C268.608 68.2069 268.05 68.6717 267.399 68.8577C266.563 69.0436 265.726 68.9506 264.889 69.1366C264.518 69.2295 264.332 69.7873 264.053 70.0662C264.425 70.1592 264.797 70.4381 265.168 70.4381C266.098 70.4381 267.028 70.3451 267.957 70.2521C268.143 70.2521 268.329 70.4381 268.515 70.531C268.329 70.7169 268.236 70.9029 267.957 70.9958C267.214 71.1818 266.47 71.2747 265.726 71.4607C264.053 71.9255 262.379 72.4833 260.706 72.7621C259.776 72.9481 260.241 73.5059 260.055 73.8777C260.334 73.8777 260.706 73.9707 260.985 73.8777C262.472 73.5059 263.96 73.041 265.447 72.7621C266.191 72.6692 267.121 72.5762 267.678 73.4129C267.864 73.6918 268.422 73.7847 268.794 73.8777C270.374 74.3425 271.304 75.3651 271.49 76.8525C271.862 80.1992 272.141 83.5459 271.583 86.8926C270.932 90.3323 269.91 93.586 268.05 96.6538C267.678 97.3046 266.935 97.8623 266.191 98.2342C263.588 99.7216 260.706 100.186 257.638 99.8146C255.872 99.6286 254.106 99.9075 252.339 99.7216C249.922 99.5357 247.505 98.8849 245.088 98.699C242.485 98.5131 239.882 98.606 237.279 98.8849C234.955 99.0709 232.538 99.1638 230.214 98.699C228.448 98.3272 226.774 98.0483 225.008 97.9553C221.847 97.7694 218.594 97.8623 215.34 97.9553C212.272 98.0483 209.297 97.7694 206.229 97.6764C203.255 97.5835 200.28 97.5835 197.398 97.3046C195.167 97.1186 193.029 96.5608 190.89 96.3749C187.358 96.0031 183.825 96.189 180.293 96.7468C178.619 97.0257 176.76 96.7468 174.994 96.8397C172.391 96.9327 169.881 96.8397 167.278 97.3046C165.325 97.6764 163.28 97.6764 161.328 97.8623C158.818 98.0483 156.308 97.8623 153.891 98.5131C153.519 98.606 152.961 98.4201 152.589 98.4201C150.265 98.2342 147.941 97.7694 145.617 97.8623C142.549 98.0483 139.481 97.3046 136.414 97.8623C136.042 97.9553 135.67 97.7694 135.298 97.7694C132.602 97.6764 129.906 97.2116 127.303 97.6764C124.886 98.0483 94.58 97.9553 92.163 98.2342C89.6529 98.5131 87.05 98.2342 84.447 98.0483C82.6807 97.9553 81.0073 97.8623 79.334 98.4201C78.9621 98.5131 78.5903 98.4201 78.2184 98.4201C78.0325 98.4201 77.8466 98.2342 77.6606 98.1412C77.8466 98.0483 78.1255 98.0483 78.3114 97.9553C79.5199 97.3975 80.7284 96.8397 81.937 96.189C82.1229 96.096 82.2159 95.9101 82.4018 95.7242C82.2159 95.6312 82.0299 95.4453 81.844 95.4453C81.2862 95.4453 80.6355 95.3523 80.1707 95.5382C78.1255 96.282 76.1732 97.2116 74.128 98.0483C73.3843 98.3272 72.4547 98.606 71.711 98.606C70.2235 98.5131 68.8291 98.606 67.4346 99.0709C67.2487 99.1638 66.9698 98.8849 66.6909 98.792C66.8768 98.606 66.9698 98.3272 67.1557 98.2342C68.0854 97.7694 69.108 97.3975 70.0376 96.8397C70.3165 96.6538 70.4095 96.282 70.5954 96.0031C70.2235 95.9101 69.8517 95.6312 69.5728 95.7242C68.4572 96.0031 67.1557 96.189 66.2261 96.8397C64.0879 98.2342 61.8568 98.699 59.4398 98.8849C58.882 98.9779 58.2312 98.9779 57.6734 98.9779C57.7664 98.0483 58.789 98.3272 59.2538 97.9553C62.7864 95.3523 66.9698 94.1438 70.8743 92.1916C71.618 91.8197 71.4321 91.5408 71.525 91.076C71.1532 91.076 70.7813 90.983 70.5024 91.076C68.7361 91.8197 67.0628 92.7493 65.2965 93.3071C60.3694 94.7945 56.186 98.0483 51.2589 99.6286C49.6786 100.186 48.0052 100.651 46.3319 100.744C43.6359 100.93 40.94 101.023 38.337 101.116C34.1536 101.209 29.9703 101.953 25.9728 103.44C23.1839 104.463 20.1161 104.742 17.2342 105.485C15.5609 105.95 13.9805 106.043 12.3072 105.95C9.98307 105.95 8.68158 104.649 7.84491 102.882C7.00824 101.023 5.79971 99.1638 5.98564 96.9327C5.98564 96.096 5.52082 94.8875 5.89267 94.3297C5.98564 94.1438 6.0786 93.9579 6.17156 93.7719C5.24193 93.8649 4.40525 93.8649 3.47562 93.8649C3.28969 94.5156 3.19672 95.1664 2.91783 95.8171C2.73191 96.282 2.91783 97.0257 3.10376 97.4905C3.84747 99.6286 4.49822 101.953 5.42785 103.998C6.17156 105.671 7.38009 107.438 9.1464 107.809C11.4705 108.274 13.9805 108.646 16.3976 108.088C17.9779 107.716 19.4654 107.252 21.0457 106.88C21.7895 106.694 22.6261 106.694 23.2769 106.415C27.3673 104.742 31.5506 103.905 35.9199 103.44C37.1285 103.347 38.337 103.347 39.6385 103.254C41.1259 103.254 42.7993 103.44 44.1937 103.161C47.7263 102.325 51.2589 101.953 54.7916 101.302C57.9523 100.744 61.1131 100.558 64.2739 100.837C64.8316 100.93 65.2965 100.93 65.8542 100.93C67.5276 100.837 69.108 100.651 70.7813 100.558C72.1758 100.465 73.6632 100.744 74.8717 100.372C77.1958 99.6286 79.5199 99.9075 81.937 100.093C84.5399 100.279 87.1429 99.9075 89.7459 99.8146C90.3967 99.8146 91.0474 99.6286 91.6982 99.7216C93.0926 99.8146 122.376 100.279 123.678 100.001C127.675 99.0709 131.765 99.4427 135.763 99.3498C140.876 99.3498 146.082 99.9075 151.195 100.093C152.682 100.186 154.356 100.372 155.75 100.001C159.655 99.0709 163.745 99.5357 167.649 98.8849C170.252 98.5131 173.041 98.699 175.644 98.606C176.946 98.606 178.247 98.5131 179.549 98.4201C182.152 98.2342 184.662 97.8623 187.265 97.8623C189.403 97.8623 191.448 98.1412 193.586 98.4201C194.051 98.5131 194.609 98.606 195.074 98.699C196.747 98.8849 198.513 99.0709 200.187 99.0709C201.86 99.1638 203.719 98.5131 205.114 99.0709C207.066 99.7216 208.925 99.9075 210.785 99.8146C213.759 99.5357 216.734 99.4427 219.709 99.8146C220.267 99.9075 220.825 99.7216 221.382 99.6286C222.963 99.5357 224.543 99.4427 226.124 99.5357C226.774 99.5357 227.332 99.9075 227.983 100.093C229.749 100.465 231.516 100.001 233.189 101.023C233.468 101.209 233.933 101.116 234.304 101.023C236.907 100.279 239.603 100.465 242.206 100.465C244.252 100.465 246.297 100.744 248.249 101.023C249.55 101.209 250.852 101.488 252.06 101.767C253.269 102.139 254.57 100.93 255.779 102.046C255.965 102.232 256.43 102.232 256.616 102.139C258.754 101.395 260.985 102.418 263.216 101.674C265.726 100.93 267.957 100.093 269.724 98.2342C270.002 97.9553 270.374 97.7694 270.467 97.3975C270.932 96.096 271.304 94.7016 271.769 93.3071C272.234 91.6338 272.791 89.8675 273.256 88.1941C273.907 86.5208 274 84.1037 274 81.7796Z" fill="black"/>
<path d="M257.267 83.1729C256.244 83.08 255.408 83.2659 254.85 84.4744C253.827 86.6126 254.478 88.4719 256.523 88.5648C256.988 88.3789 257.453 88.193 257.918 88.1C258.847 87.8211 259.684 85.9619 259.219 84.9393C258.847 83.9167 258.197 83.1729 257.267 83.1729Z" fill="#999999"/>
<path d="M262.473 25.7215C262.008 26.93 261.636 28.1386 261.264 29.3471C261.078 38.4575 262.937 47.475 261.915 56.4925C261.915 56.7714 261.915 57.0503 261.915 57.3292C262.752 57.0503 263.495 56.7714 264.332 56.4925C265.726 55.9347 267.214 55.284 268.515 54.6332C269.073 54.3543 270.096 53.8895 269.724 52.9599C269.631 52.588 268.701 52.588 268.143 52.3091C267.772 52.1232 267.307 52.0302 267.214 51.7513C267.121 51.3795 267.307 51.1006 267.865 50.9147C269.166 50.3569 269.817 49.3343 269.817 47.7539C269.817 43.7565 270.746 39.759 270.468 35.7616C270.282 33.1586 271.025 30.4627 270.653 27.7667C270.375 25.7215 270.653 23.6763 270.653 21.6311C270.653 21.4452 270.746 21.1663 270.653 20.9804C269.538 18.1915 268.236 15.5885 265.819 13.4503C265.076 12.7996 264.239 12.3347 263.402 11.9629C264.146 16.797 263.96 21.91 262.473 25.7215Z" fill="#4D4D4D"/>
<path d="M271.305 77.1299C271.119 75.6425 270.096 74.527 268.609 74.1551C268.237 74.0621 267.679 73.9692 267.493 73.6903C266.935 72.8536 266.006 72.9466 265.262 73.0395C263.774 73.2255 262.287 73.7833 260.8 74.1551C260.521 74.2481 260.149 74.1551 259.87 74.1551C259.963 73.7833 259.591 73.2255 260.521 73.0395C262.194 72.6677 263.867 72.1099 265.541 71.7381C266.284 71.5521 267.028 71.4592 267.772 71.2732C267.958 71.1803 268.144 70.9943 268.33 70.8084C268.144 70.7155 267.958 70.5295 267.772 70.5295C266.842 70.5295 265.913 70.7155 264.983 70.7155C264.611 70.7155 264.239 70.5295 263.867 70.3436C264.146 69.9717 264.332 69.5069 264.704 69.414C265.541 69.228 266.47 69.321 267.214 69.1351C267.865 68.9491 268.423 68.4843 269.073 68.1125C268.702 67.7406 268.423 67.2758 268.051 66.9969C266.749 66.0673 266.656 65.8813 267.679 64.7658C268.33 64.115 268.794 63.2784 269.538 62.3487C269.631 61.2332 269.91 60.1176 269.817 59.002C269.724 58.2583 269.259 57.5146 270.003 56.8639C270.096 56.7709 270.003 56.399 269.817 56.3061C269.724 56.2131 269.352 56.3061 269.259 56.3991C267.307 57.3287 265.262 57.7005 263.217 58.1654C262.752 58.2583 262.38 58.4443 261.915 58.5372C261.636 64.115 260.056 69.321 257.267 74.1551C255.501 76.4792 253.641 78.8033 251.875 81.1274C246.669 86.7982 235.328 92.1901 227.426 91.2604C225.009 90.9815 222.685 90.7956 220.267 90.7026V90.7956C220.082 91.1675 219.524 91.4464 219.059 91.7252C218.873 91.8182 218.594 91.7252 218.408 91.7252C216.828 91.3534 215.247 91.2604 213.574 91.1675C213.388 90.9815 213.202 90.7956 213.202 90.6097C201.024 90.7956 188.753 92.376 176.575 91.9112C164.303 91.4464 152.032 90.7956 139.668 90.1449C138.645 90.4238 137.623 90.4238 136.507 90.4238C136.228 90.4238 135.949 90.2378 135.763 89.9589C133.718 89.866 131.766 89.773 129.721 89.68C121.726 89.4011 113.824 89.1223 105.829 89.1223C100.251 89.1223 94.5806 89.5871 89.0027 89.2152C75.3371 88.3786 61.6714 85.4967 48.0058 85.6826C44.845 88.9363 40.9405 91.6323 36.3853 93.5845C32.2949 95.7227 27.8326 96.7453 23.0915 96.5594C18.4433 96.5594 14.074 95.6297 9.89065 93.9564C8.68212 94.1423 7.38063 94.3282 6.1721 94.4212C6.07914 94.6071 5.98618 94.793 5.89321 94.979C5.52136 95.5368 5.98618 96.6523 5.98618 97.582C5.89321 99.8131 7.10174 101.672 7.84545 103.532C8.58916 105.298 9.98361 106.599 12.3077 106.599C13.9811 106.599 15.5614 106.599 17.2348 106.135C20.1167 105.298 23.1845 105.112 25.9734 104.089C29.9708 102.602 34.1542 101.858 38.3375 101.765C41.0335 101.672 43.7294 101.579 46.3324 101.393C48.0058 101.301 49.5861 100.743 51.2595 100.278C56.1866 98.6975 60.277 95.4438 65.297 93.9564C67.0633 93.3986 68.7367 92.469 70.503 91.7252C70.7819 91.6323 71.2467 91.7252 71.5256 91.7252C71.3396 92.0971 71.5256 92.469 70.8748 92.8408C67.0633 94.793 62.787 96.0016 59.2544 98.6046C58.7896 98.9764 57.7669 98.6975 57.674 99.6272C58.2318 99.6272 58.8825 99.6272 59.4403 99.5342C61.8573 99.2553 64.1814 98.8834 66.2266 97.489C67.1563 96.8382 68.4578 96.6523 69.5733 96.3734C69.8522 96.2805 70.2241 96.5594 70.5959 96.6523C70.41 96.9312 70.317 97.396 70.0382 97.489C69.1085 97.9538 68.0859 98.4186 67.1563 98.8834C66.9704 98.9764 66.8774 99.2553 66.6915 99.4412C66.9704 99.5342 67.2492 99.7201 67.4352 99.7201C68.8296 99.2553 70.2241 99.1623 71.7115 99.2553C72.5482 99.2553 73.3848 99.0694 74.1286 98.6975C76.1738 97.9538 78.126 97.0242 80.1712 96.1875C80.636 96.0016 81.2868 96.0945 81.8445 96.0945C82.0305 96.0945 82.2164 96.2805 82.4023 96.3734C82.2164 96.5594 82.1234 96.7453 81.9375 96.8382C80.729 97.396 79.5205 98.0468 78.3119 98.6046C78.126 98.6975 77.9401 98.6975 77.6612 98.7905C77.8471 98.8834 78.033 99.0694 78.219 99.0694C78.5908 99.1623 78.9627 99.1623 79.3345 99.0694C81.0079 98.5116 82.7742 98.6046 84.4475 98.6975C87.0505 98.8834 89.6535 99.1623 92.1635 98.8834C94.5806 98.6046 124.887 98.7905 127.304 98.3257C129.907 97.8608 132.603 98.3257 135.299 98.4186C135.671 98.4186 136.042 98.6046 136.414 98.5116C139.482 97.8608 142.55 98.6975 145.618 98.5116C147.942 98.3257 150.266 98.8835 152.59 99.0694C153.055 99.0694 153.52 99.2553 153.891 99.1623C156.308 98.5116 158.818 98.6975 161.328 98.5116C163.281 98.3257 165.326 98.3257 167.278 97.9538C169.881 97.396 172.391 97.582 174.994 97.489C176.76 97.396 178.527 97.6749 180.293 97.396C183.826 96.8382 187.358 96.6523 190.891 97.0242C193.122 97.3031 195.26 97.8608 197.398 97.9538C200.373 98.2327 203.348 98.2327 206.23 98.3257C209.298 98.4186 212.273 98.6975 215.34 98.6046C218.594 98.5116 221.755 98.4186 225.009 98.6046C226.775 98.6975 228.448 98.9764 230.215 99.3483C232.446 99.8131 234.956 99.7201 237.28 99.5342C239.883 99.3483 242.486 99.1623 245.089 99.3483C247.506 99.5342 249.923 100.092 252.34 100.371C254.106 100.557 255.873 100.185 257.639 100.464C260.707 100.836 263.496 100.464 266.192 98.8834C266.935 98.5116 267.679 97.9538 268.051 97.3031C269.91 94.3282 270.933 90.9815 271.583 87.5419C271.955 83.8233 271.676 80.4766 271.305 77.1299ZM147.663 93.2127H147.477C145.339 92.8408 143.201 93.4916 140.784 93.5845C138.366 93.8634 136.228 94.1423 133.997 94.3282C133.439 94.4212 132.789 94.3282 132.231 94.0493C131.952 93.9564 131.859 93.4916 131.673 93.1197C131.952 93.0267 132.231 92.8408 132.51 92.7478C135.02 92.5619 137.623 92.6549 140.133 92.0971C141.527 91.8182 143.015 92.0041 144.502 92.0041C145.525 92.0041 146.547 91.8182 147.477 91.8182C147.849 91.8182 148.128 92.1901 148.499 92.283C148.314 92.6549 148.035 92.9338 147.663 93.2127Z" fill="#1B3138" stroke="black" stroke-width="3" stroke-miterlimit="10"/>
<path d="M132.51 85.1259C132.417 85.0329 132.696 84.4751 132.789 84.4751C134.834 84.661 136.879 83.5455 138.831 84.4751C137.158 85.6836 135.299 85.7766 133.532 85.7766C133.16 85.8696 132.789 85.4977 132.51 85.1259ZM141.899 87.5429C140.412 87.6359 138.924 87.357 137.53 87.6359C135.02 88.1937 132.417 88.1007 129.907 88.2866C129.628 88.2866 129.349 88.4726 129.07 88.6585C129.256 88.9374 129.349 89.4952 129.628 89.5881C130.186 89.774 130.836 89.867 131.394 89.867C133.532 89.6811 135.763 89.3092 138.181 89.1233C140.598 89.0303 142.643 88.3796 144.874 88.7514C144.967 88.7514 145.06 88.8444 145.06 88.7514C145.339 88.4726 145.711 88.1937 145.989 87.9148C145.618 87.7288 145.339 87.45 144.967 87.45C143.851 87.357 142.829 87.45 141.899 87.5429ZM61.3925 14.8453C60.3699 14.8453 59.3473 14.7524 58.4177 15.0312C56.9302 15.4961 55.4428 16.1468 53.9554 16.8905C53.3047 17.2624 53.3976 17.7272 54.5132 17.8202C56.5584 17.4483 58.4177 16.9835 60.184 16.5187C60.7418 16.3327 61.2066 16.0539 61.6714 15.775C61.8573 15.682 62.0432 15.3101 61.9503 15.2172C61.8573 15.0313 61.5784 14.8453 61.3925 14.8453ZM66.5985 7.59416C62.787 8.2449 59.0684 8.98861 55.2569 9.73232C53.7695 10.0112 52.2821 10.3831 50.5157 10.662C49.0283 10.8479 47.8198 11.0338 46.5183 11.3127C45.8676 11.4986 45.5887 12.1494 45.7746 12.7072C45.9605 13.172 46.2394 13.7298 47.1691 13.2649C48.0057 12.8931 49.2143 13.172 50.0509 12.8001C52.6539 11.5916 55.4428 10.9408 58.3247 10.476C60.7418 10.1042 63.1588 9.54639 65.5759 9.17454C66.9703 8.89565 68.3648 8.80268 69.7592 8.61676C70.1311 8.52379 70.41 8.2449 70.6889 8.05897C70.41 7.78008 70.0381 7.40823 69.7592 7.40823C68.7366 7.40823 67.6211 7.40823 66.5985 7.59416ZM270.375 84.2892C269.817 85.9625 269.352 87.7288 268.887 89.4022C268.516 90.7966 268.051 92.0981 267.586 93.4926C267.493 93.7715 267.121 94.0504 266.842 94.3293C265.076 96.1885 262.752 96.9323 260.335 97.7689C258.104 98.4197 255.873 97.49 253.734 98.2337C253.455 98.3267 252.991 98.3267 252.898 98.1408C251.689 97.0252 250.388 98.2337 249.179 97.8619C247.971 97.49 246.669 97.2111 245.368 97.1182C243.322 96.8393 241.277 96.6534 239.325 96.5604C236.629 96.5604 234.026 96.3745 231.423 97.1182C231.051 97.2111 230.586 97.3041 230.307 97.1182C228.634 96.1885 226.868 96.5604 225.102 96.1885C224.451 96.0956 223.893 95.6308 223.242 95.6308C221.662 95.6308 220.081 95.7237 218.501 95.7237C217.943 95.7237 217.386 95.9097 216.828 95.9097C213.853 95.6308 210.878 95.7237 207.903 95.9097C206.044 96.0956 204.185 95.8167 202.232 95.1659C200.745 94.6082 198.979 95.2589 197.305 95.1659C195.632 95.073 193.866 94.887 192.192 94.7941C191.728 94.7941 191.17 94.6082 190.705 94.5152C188.567 94.3293 186.522 93.9574 184.383 93.9574C181.78 93.9574 179.27 94.3293 176.667 94.5152C175.366 94.6082 174.064 94.7011 172.763 94.7011C170.067 94.7941 167.371 94.6082 164.768 94.98C160.771 95.6308 156.773 95.1659 152.869 96.0956C151.381 96.4674 149.801 96.2815 148.314 96.1885C143.201 95.9096 137.995 95.3519 132.882 95.4448C128.884 95.4448 124.794 95.1659 120.796 96.0956C119.495 96.3745 90.2112 95.9097 88.8168 95.8167C88.166 95.8167 87.5153 95.9097 86.8645 95.9097C84.2616 96.0026 81.6586 96.4674 79.0556 96.1885C76.6385 96.0026 74.4074 95.7237 71.9904 96.4674C70.6889 96.8393 69.2944 96.5604 67.9 96.6534C66.2266 96.7463 64.6462 96.9322 62.9729 97.0252C62.4151 97.0252 61.9503 97.0252 61.3925 96.9323C58.2317 96.5604 55.071 96.8393 51.9102 97.3971C48.3776 98.0478 44.845 98.4197 41.3123 99.2563C39.8249 99.6282 38.2445 99.3493 36.7571 99.3493C35.5486 99.3493 34.3401 99.3493 33.0386 99.5352C28.6693 99.9071 24.393 100.837 20.3955 102.51C19.6518 102.789 18.9081 102.789 18.1644 102.975C16.584 103.347 15.0966 103.812 13.5162 104.183C11.0991 104.741 8.58913 104.369 6.26504 103.905C4.49873 103.533 3.38316 101.673 2.54649 100.093C1.61685 98.0478 0.966107 95.8167 0.222397 93.5856C0.0364701 93.0278 -0.0564936 92.377 0.0364701 91.9122C2.17463 84.754 1.98871 77.3169 2.82538 70.0657C2.91834 69.415 3.2902 68.8572 3.38316 68.2994C3.66205 66.812 3.94094 65.3246 4.21984 63.8372C4.40576 63.0005 4.59169 62.1638 4.87058 61.3272C5.14947 60.3975 4.77762 59.5609 4.96355 58.5383C5.80022 55.2845 6.82282 52.0308 6.91578 48.6841C6.91578 47.1967 6.82282 45.7093 6.54393 44.2218C6.07911 41.8048 5.98615 39.2948 5.61429 36.8777C5.24244 34.5536 5.24244 32.4155 6.63689 30.4632C6.82282 30.1843 6.72985 29.5336 6.82282 29.1617C7.00875 27.3025 7.10171 25.4432 7.28764 23.4909C7.56653 20.4231 7.47356 17.3553 7.19467 14.2875C7.10171 13.3579 7.47356 12.2423 7.84542 11.4057C8.96098 8.80268 10.3554 6.38563 13.2373 5.36303C14.7247 4.61932 16.1192 3.68968 17.5136 3.59672C20.5814 3.41079 23.3704 1.83041 26.5311 2.20226C27.7396 2.29523 28.9482 2.1093 30.2497 2.1093C31.6441 2.1093 33.0386 2.01634 34.433 2.01634C36.8501 1.92337 39.1742 1.92337 41.5912 1.73744C44.3801 1.45855 47.262 1.17966 50.0509 0.900771C50.3298 0.900771 50.6087 0.714844 50.8876 0.714844C54.6991 0.900771 58.5106 1.0867 62.3221 1.27263C63.1588 1.27263 63.9955 1.64448 64.9251 1.0867C65.3899 0.807807 66.2266 1.45855 66.8774 1.64448C69.7592 2.38819 74.1285 2.29523 77.2893 1.83041C79.4275 1.45855 81.5656 1.55152 83.7038 1.27263C86.3997 0.900771 89.0027 1.55152 91.6987 1.45855C94.4876 1.45855 125.166 0.900771 127.954 0.900771C130.65 0.900771 133.346 1.36559 136.042 1.55152C136.879 1.64448 137.809 2.01634 138.645 1.36559C138.831 1.27263 139.203 1.36559 139.482 1.45855C144.223 2.85301 149.15 2.48115 153.891 3.1319C155.286 3.31783 156.959 2.76004 158.261 3.1319C160.306 3.87561 162.351 3.87561 164.396 4.43339C166.813 5.08414 169.23 4.24746 171.647 4.06154C173.879 3.87561 176.11 3.1319 178.527 3.41079C179.456 3.50375 180.572 3.50375 181.502 3.22486C183.175 2.66708 184.755 2.48115 186.522 2.29523C187.823 2.20226 189.218 1.73744 190.519 1.73744C193.959 1.73744 197.305 2.01634 200.745 2.1093C203.162 2.20226 205.579 2.38819 207.996 2.29523C212.737 2.01634 217.386 3.50375 222.034 3.59672C223.614 3.59672 225.194 3.78265 226.868 3.68968C228.727 3.50375 230.679 3.96857 232.446 4.61932C234.212 5.27006 235.978 4.89821 237.745 4.89821C241.277 4.80525 244.624 3.87561 248.25 4.06154C249.737 4.1545 251.41 4.24746 252.898 3.68968C253.455 3.50375 254.292 3.59672 254.943 3.87561C257.081 4.80525 259.312 4.61932 261.543 4.80525C262.38 4.89821 263.031 5.1771 263.589 5.82785C264.611 7.03637 265.913 8.05897 266.842 9.36047C268.702 11.8705 269.91 14.4735 270.189 17.7272C270.561 22.5613 269.817 27.3025 269.817 32.1366C269.817 35.0184 269.259 37.9003 269.445 40.7822C269.724 44.5937 268.98 48.3122 268.887 52.1238C268.887 52.9604 269.352 53.983 269.073 54.6338C268.702 55.4704 269.259 56.2142 268.98 57.0508C268.702 57.8875 268.609 58.9101 268.702 59.7468C269.166 62.9075 268.794 66.1613 269.631 69.322C270.282 72.018 271.026 74.7139 271.119 77.4099C271.304 79.548 271.119 81.9651 270.375 84.2892ZM268.516 72.6687C268.33 71.1813 267.307 70.0657 265.82 69.6939C265.448 69.6009 264.89 69.508 264.704 69.2291C264.146 68.3924 263.217 68.4854 262.473 68.5783C260.986 68.7643 259.498 69.322 258.011 69.6939C257.732 69.7869 257.36 69.6939 257.081 69.6939C257.174 69.322 256.802 68.7643 257.732 68.5783C259.405 68.2065 261.078 67.6487 262.752 67.2768C263.496 67.0909 264.239 66.9979 264.983 66.812C265.169 66.7191 265.355 66.5331 265.541 66.3472C265.355 66.2542 265.169 66.0683 264.983 66.0683C264.053 66.0683 263.124 66.2542 262.194 66.2542C261.822 66.2542 261.45 66.0683 261.078 65.8824C261.357 65.5105 261.543 65.0457 261.915 64.9527C262.752 64.7668 263.681 64.8598 264.425 64.6739C265.076 64.4879 265.634 64.0231 266.284 63.6513C265.913 63.2794 265.634 62.8146 265.262 62.5357C263.96 61.6061 263.867 61.4201 264.89 60.3046C265.541 59.6538 266.006 58.8171 266.749 57.8875C266.842 56.7719 267.121 55.6564 267.028 54.5408C266.935 53.7971 266.47 53.0534 267.214 52.4026C267.307 52.3097 267.214 51.9378 267.028 51.8449C266.935 51.7519 266.563 51.8449 266.47 51.9378C264.518 52.8675 262.473 53.2393 260.428 53.7041C259.591 53.8901 258.754 54.3549 257.825 54.5408C257.546 54.6338 257.174 54.2619 256.802 54.076C256.988 53.8901 257.267 53.7041 257.453 53.7041C258.847 53.2393 260.242 52.7745 261.636 52.3097C263.031 51.7519 264.518 51.1012 265.82 50.4504C266.377 50.1715 267.4 49.7067 267.028 48.7771C266.935 48.4052 266.006 48.4052 265.448 48.1263C265.076 47.9404 264.611 47.8474 264.518 47.5685C264.425 47.1967 264.611 46.9178 265.169 46.7319C266.47 46.1741 267.121 45.1515 267.121 43.5711C267.121 39.5737 268.051 35.5762 267.772 31.5788C267.586 28.9758 268.33 26.2799 267.958 23.5839C267.679 21.5387 267.958 19.4935 267.958 17.4483C267.958 17.2624 268.051 16.9835 267.958 16.7976C266.842 14.0086 265.541 11.4057 263.124 9.2675C261.45 7.78008 259.684 7.2223 257.639 7.03637C254.664 6.85045 251.689 6.75748 248.807 6.75748C247.413 6.75748 246.018 7.12934 244.624 7.2223C242.021 7.50119 239.418 7.96601 236.815 7.50119C235.792 7.31527 234.677 7.03637 233.561 7.59416C233.003 7.87305 232.167 7.59416 231.609 7.40823C229.006 6.66452 226.31 6.1997 223.521 6.66452C222.684 6.85045 221.662 6.29266 220.732 6.10674C220.36 6.01377 219.896 5.82785 219.71 6.01377C217.85 7.68712 215.526 6.75748 213.481 7.12934C211.343 7.50119 209.112 7.2223 206.974 8.2449C205.3 9.08158 203.441 9.63936 201.675 10.1971C201.117 10.3831 200.466 10.476 199.815 10.569C199.629 10.569 199.351 10.3831 199.165 10.1971C199.351 10.0112 199.444 9.73232 199.629 9.63936C200.931 8.98861 202.232 8.33787 203.627 7.78008C205.3 7.12934 207.067 6.57156 208.74 5.92081C209.019 5.82785 209.205 5.45599 209.484 5.27006C209.205 5.1771 208.926 5.08414 208.647 5.08414C205.951 4.99117 203.348 4.71228 200.652 4.71228C196.562 4.80525 192.471 4.61932 188.288 4.61932C185.964 4.61932 183.733 4.89821 181.502 5.45599C179.177 6.01377 176.853 6.29266 174.529 6.29266C172.484 6.29266 170.439 6.75748 168.394 6.94341C166.906 7.03637 165.326 7.40823 163.838 7.12934C161.328 6.57156 158.911 5.82785 156.401 5.64192C153.798 5.54896 151.288 5.1771 148.685 5.27006C145.896 5.36303 143.108 5.08414 140.319 4.34043C137.995 3.68968 135.392 3.68968 132.882 3.68968C131.859 3.68968 130.929 3.1319 129.907 3.41079C128.047 3.87561 126.188 3.96857 124.329 3.78265C123.771 3.68968 123.12 3.50375 122.563 3.68968C119.402 3.68968 88.352 3.68968 85.3771 3.22486C81.9375 2.76004 78.5908 3.59672 75.337 3.96857C72.827 4.24746 70.224 4.52635 67.9 3.87561C65.111 3.03894 62.3221 2.85301 59.5332 2.94597C56.9302 3.03894 54.3273 3.31783 51.7243 3.03894C51.3524 3.03894 50.8876 2.85301 50.6087 3.03894C48.3776 3.96857 45.9605 3.78265 43.8224 3.59672C40.9405 3.31783 38.1516 4.1545 35.2697 4.06154C32.9456 3.96857 30.5286 3.96857 28.1115 4.24746C26.81 4.34043 25.6015 4.52635 24.3 4.61932C21.1392 4.80525 18.2574 6.29266 15.1895 6.94341C14.3529 7.12934 13.2373 7.40823 12.9584 8.05897C11.6569 10.476 9.14691 12.4283 10.1695 15.682C10.2625 16.0539 10.1695 16.6116 10.0765 16.9835C9.79766 18.192 10.1695 19.4005 9.79766 20.702C9.51877 22.0035 9.51877 23.398 9.4258 24.7924C9.23987 26.6517 9.14691 28.511 8.96098 30.4632C8.96098 31.021 8.96098 31.5788 8.77506 32.0436C7.00875 35.2973 8.77506 38.5511 9.05395 41.7118C9.05395 41.9907 9.4258 42.1766 9.61173 42.3626C10.6343 43.3852 11.8429 43.4781 13.2373 43.3852C14.9107 43.2922 16.677 43.3852 18.3503 43.5711C18.6292 43.5711 18.9081 44.0359 19.187 44.3148C18.9081 44.4078 18.7222 44.5007 18.4433 44.5937C18.0714 44.6867 17.6066 44.8726 17.2348 44.8726C15.1895 44.8726 13.1443 44.8726 11.0991 44.7796C10.3554 44.7796 9.79766 44.9656 9.61173 45.7093C9.4258 46.7319 10.0765 47.0108 10.9132 47.1037C11.9358 47.1967 12.8655 47.1967 13.8881 47.3826C14.074 47.3826 14.2599 47.6615 14.4458 47.8474C14.2599 48.0334 14.074 48.2193 13.7951 48.2193C12.8655 48.4982 11.8429 48.6841 10.9132 48.87C10.5414 48.963 9.89062 49.1489 9.79766 49.4278C9.4258 50.6363 9.14691 51.9378 8.96098 53.2393C8.86802 53.983 9.23987 53.6112 9.51876 53.4252C9.70469 53.3323 9.98358 53.4252 10.1695 53.3323C10.8203 52.6815 11.0991 53.7041 11.564 53.7041C11.378 53.983 11.0991 54.2619 10.8203 54.4478C10.5414 54.6338 10.1695 54.7267 9.89062 54.8197C8.4032 55.1916 7.84542 56.3071 7.65949 57.6086C7.3806 61.3272 6.45096 64.9527 5.89318 68.6713C4.87058 75.0858 4.87058 81.5932 3.66205 88.0077C3.47613 88.9374 3.66205 89.867 3.10427 90.7966C2.73242 91.3544 3.19724 92.47 3.19724 93.3996C3.10427 95.6308 4.3128 97.49 5.05651 99.3493C5.80022 101.116 7.19467 102.417 9.51876 102.417C11.1921 102.417 12.7725 102.417 14.4458 101.952C17.3277 101.116 20.3955 100.93 23.1844 99.9071C27.1819 98.4197 31.3652 97.676 35.5486 97.583C38.2445 97.49 40.9405 97.3971 43.5435 97.2111C45.2168 97.1182 46.7972 96.5604 48.4705 96.0956C53.3976 94.5152 57.488 91.2615 62.5081 89.774C64.2744 89.2163 65.9477 88.2866 67.714 87.5429C67.9929 87.45 68.4577 87.5429 68.7366 87.5429C68.5507 87.9148 68.7366 88.2866 68.0859 88.6585C64.2744 90.6107 59.998 91.8193 56.4654 94.4222C56.0006 94.7941 54.978 94.5152 54.885 95.4448C55.4428 95.4448 56.0936 95.4448 56.6513 95.3519C59.0684 95.073 61.3925 94.7011 63.4377 93.3067C64.3673 92.6559 65.6688 92.47 66.7844 92.1911C67.0633 92.0981 67.4351 92.377 67.807 92.47C67.6211 92.7489 67.5281 93.2137 67.2492 93.3067C66.3196 93.7715 65.297 94.2363 64.3673 94.7011C64.1814 94.7941 64.0884 95.073 63.9025 95.2589C64.1814 95.3519 64.4603 95.5378 64.6462 95.5378C66.0407 95.073 67.4351 94.98 68.9226 95.073C69.7592 95.073 70.5959 94.8871 71.3396 94.5152C73.3848 93.7715 75.3371 92.8418 77.3823 92.0052C77.8471 91.8192 78.4978 91.9122 79.0556 91.9122C79.2415 91.9122 79.4275 92.0981 79.6134 92.1911C79.4275 92.377 79.3345 92.563 79.1486 92.6559C77.94 93.2137 76.7315 93.8645 75.523 94.4222C75.3371 94.5152 75.1511 94.5152 74.8722 94.6082C75.0582 94.7011 75.2441 94.8871 75.43 94.8871C75.8019 94.98 76.1737 94.98 76.5456 94.8871C78.2189 94.3293 79.9852 94.4222 81.6586 94.5152C84.2616 94.7011 86.8646 94.98 89.3746 94.7011C91.7916 94.4222 122.098 94.6082 124.515 94.1433C127.118 93.6785 129.814 94.1433 132.51 94.2363C132.882 94.2363 133.253 94.4222 133.625 94.3293C136.693 93.6785 139.761 94.5152 142.829 94.3293C145.153 94.1433 147.477 94.7011 149.801 94.8871C150.266 94.8871 150.731 95.073 151.102 94.98C153.52 94.3293 156.03 94.5152 158.54 94.3293C160.492 94.1433 162.537 94.1433 164.489 93.7715C167.092 93.2137 169.602 93.3996 172.205 93.3067C173.972 93.2137 175.738 93.4926 177.504 93.2137C181.037 92.6559 184.569 92.47 188.102 92.8418C190.333 93.1207 192.471 93.6785 194.609 93.7715C197.584 94.0504 200.559 94.0504 203.441 94.1433C206.509 94.2363 209.484 94.5152 212.551 94.4222C215.805 94.3293 218.966 94.2363 222.22 94.4222C223.986 94.5152 225.659 94.7941 227.426 95.1659C229.657 95.6308 232.167 95.5378 234.491 95.3519C237.094 95.1659 239.697 94.98 242.3 95.1659C244.717 95.3519 247.134 95.9096 249.551 96.1885C251.317 96.3745 253.084 96.0026 254.85 96.2815C257.918 96.6534 260.707 96.2815 263.403 94.7011C264.146 94.3293 264.89 93.7715 265.262 93.1207C267.121 90.1459 268.144 86.7992 268.794 83.3596C269.166 79.3621 268.887 76.0154 268.516 72.6687ZM229.75 79.3621C228.541 79.8269 227.426 79.4551 226.31 79.4551C223.707 79.4551 221.197 78.8973 218.594 79.1762C215.34 79.548 212.087 79.3621 208.74 79.2692C205.672 79.1762 202.511 78.9903 199.444 78.8973C197.77 78.8973 196.097 78.7114 194.424 78.9903C191.077 79.4551 187.823 79.1762 184.476 79.4551C183.733 79.548 182.989 79.4551 182.896 80.2918C182.803 81.1284 183.547 81.3143 184.29 81.3143C184.755 81.3143 185.127 81.2214 185.592 81.1284C186.243 81.0355 186.986 80.7566 187.637 80.6636C190.24 80.5706 192.843 80.4777 195.446 80.3847C198.049 80.3847 200.559 80.4777 203.162 80.5706C203.534 80.5706 203.906 80.4777 204.371 80.3847C206.602 80.2917 208.74 80.5706 210.878 80.4777C214.318 80.2918 217.85 80.6636 221.29 80.8495C222.777 80.9425 224.358 81.4073 225.752 81.1284C227.426 80.7566 228.634 81.9651 230.122 81.6862C230.493 81.5932 230.865 81.8721 231.237 81.7792C231.516 81.6862 231.888 81.3144 232.074 81.0355C232.167 80.8495 232.074 80.4777 231.981 80.1988C231.516 79.0832 230.4 79.0832 229.75 79.3621ZM214.876 12.0564C217.757 10.8479 220.546 9.63936 223.8 9.63936C224.172 9.63936 224.451 9.45343 224.73 9.2675C224.916 9.17454 225.009 8.89565 225.009 8.80268C225.009 8.61676 224.73 8.43083 224.637 8.43083C224.265 8.33787 223.893 8.33787 223.335 8.33787C222.777 8.43083 222.499 8.70972 222.127 8.70972C219.431 8.70972 216.828 9.36047 214.318 10.2901C213.295 10.662 212.83 11.0338 213.202 11.9634C213.388 12.8931 214.318 12.2423 214.876 12.0564ZM216.549 85.3118C214.69 84.4751 212.737 85.3118 210.878 84.9399C210.413 84.847 209.763 85.6836 210.692 86.5203C212.366 86.6133 213.946 86.7062 215.526 87.0781C215.712 87.1711 215.991 87.1711 216.177 87.0781C216.642 86.7992 217.2 86.5203 217.386 86.1485C217.664 85.4048 216.921 85.5907 216.549 85.3118ZM19.3729 18.285C17.3277 16.3327 18.9081 12.8001 20.6744 11.8705C20.9533 11.6846 21.2322 11.5916 21.5111 11.4986C24.5789 10.662 24.5789 10.662 28.0185 12.6142C28.4834 13.172 28.8552 13.6368 29.32 14.0086C30.3426 14.9383 30.3426 16.2398 29.5989 17.4483C28.5763 19.2146 26.903 19.5865 25.2296 20.0513C22.9055 20.888 20.9533 19.8654 19.3729 18.285ZM23.0915 17.9131C23.6492 17.7272 24.3 17.6342 24.8578 17.4483C25.9733 17.1694 26.9959 15.4961 26.4382 14.4735C25.8804 13.5438 25.1367 12.986 23.9281 12.8931C22.7196 12.8001 21.604 13.079 20.8603 14.1016C19.6518 16.1468 20.5814 17.8202 23.0915 17.9131ZM257.825 18.0991C257.825 18.6568 257.825 19.2146 257.918 19.6794C258.011 20.1443 256.244 21.2598 255.873 21.5387C255.129 22.0035 254.571 22.6543 254.013 23.0261C253.827 23.2121 253.455 23.2121 253.177 23.2121C251.596 23.2121 249.923 23.0261 248.528 22.1895C247.692 21.7246 247.227 21.1669 246.948 20.5161C246.483 19.5865 246.483 18.4709 246.204 17.2624C245.647 14.1016 249.458 12.0564 251.689 12.3353C252.061 12.4283 252.34 12.5212 252.712 12.6142C256.058 14.0086 256.058 14.0087 257.825 18.0991ZM254.106 15.589C252.991 14.7524 251.875 14.1946 250.574 14.6594C248.157 15.589 247.785 17.7272 250.016 19.4935C250.667 19.7724 251.317 19.9583 251.968 20.2372C253.177 20.702 255.222 19.8654 255.408 18.6568C255.408 17.5413 255.036 16.4257 254.106 15.589ZM19.28 78.8973C19.5588 78.7114 19.9307 78.6184 20.2096 78.5254C23.6492 77.5958 23.6492 77.5958 27.5537 79.8269C27.9256 80.2918 28.2974 80.6636 28.5763 81.0355C29.413 81.9651 27.2748 85.5907 26.6241 86.2414C25.2296 87.8218 23.4633 88.6585 21.2322 88.5655C20.8603 88.5655 20.5814 88.4726 20.2096 88.3796C16.491 87.264 15.3755 80.9425 19.28 78.8973ZM22.0689 85.6836C22.7196 85.4977 23.3704 85.3118 24.1141 85.1259C25.4156 84.754 26.5311 82.8947 25.8804 81.7792C25.3226 80.7566 24.393 80.1058 23.0915 80.0129C21.697 79.9199 20.4885 80.1988 19.6518 81.4073C18.2573 83.6384 19.187 85.4977 22.0689 85.6836ZM250.667 84.3822C249.086 82.244 250.388 78.4325 251.782 77.5028C251.968 77.3169 252.247 77.2239 252.433 77.131C254.85 76.2943 254.85 76.2943 257.639 78.5254C258.011 79.1762 258.29 79.641 258.661 80.1058C259.498 81.1284 259.405 82.5229 258.847 83.9173C258.011 85.7766 256.616 86.1485 255.315 86.6133C253.548 87.264 251.968 86.0555 250.667 84.3822ZM253.734 84.0103C254.199 83.8244 254.664 83.6384 255.129 83.5455C256.058 83.2666 256.895 81.4073 256.43 80.3847C256.058 79.3621 255.408 78.7114 254.478 78.6184C253.455 78.5254 252.619 78.7114 252.061 79.9199C251.038 81.9651 251.689 83.8244 253.734 84.0103Z" fill="black"/>
<path d="M255.315 18.7499C255.408 17.6344 255.129 16.5188 254.106 15.6821C252.991 14.8454 251.875 14.2877 250.574 14.7525C248.156 15.6821 247.785 17.8203 250.016 19.5866C250.666 19.8655 251.317 20.0514 251.968 20.3303C253.084 20.7951 255.129 19.9584 255.315 18.7499Z" fill="#999999"/>
<path d="M24.0217 12.9875C22.8131 12.8945 21.6976 13.1734 20.9539 14.196C19.6524 16.1482 20.582 17.8216 23.092 17.9145C23.6498 17.7286 24.3006 17.6357 24.8583 17.4497C25.9739 17.1708 26.9965 15.4975 26.4387 14.4749C25.9739 13.6382 25.1372 12.9875 24.0217 12.9875Z" fill="#999999"/>
<path d="M254.478 78.6183C253.455 78.5253 252.619 78.7112 252.061 79.9197C251.038 82.0579 251.689 83.9172 253.734 84.0102C254.199 83.8242 254.664 83.6383 255.129 83.5453C256.058 83.2664 256.895 81.4072 256.43 80.3846C256.058 79.362 255.408 78.7112 254.478 78.6183Z" fill="#999999"/>
<path d="M265.819 69.6935C265.448 69.6005 264.89 69.5076 264.704 69.2287C264.146 68.392 263.216 68.485 262.473 68.5779C260.985 68.7639 259.498 69.3216 258.011 69.6935C257.732 69.7865 257.36 69.6935 257.081 69.6935C257.174 69.3216 256.802 68.7639 257.732 68.5779C259.405 68.2061 261.078 67.6483 262.752 67.2765C263.495 67.0905 264.239 66.9976 264.983 66.8116C265.169 66.7187 265.355 66.5327 265.541 66.3468C265.355 66.2538 265.169 66.0679 264.983 66.0679C264.053 66.0679 263.124 66.2539 262.194 66.2539C261.822 66.2539 261.45 66.0679 261.078 65.882C261.357 65.5101 261.543 65.0453 261.915 64.9524C262.752 64.7664 263.681 64.8594 264.425 64.6735C265.076 64.4875 265.634 64.0227 266.284 63.6509C265.912 63.279 265.634 62.8142 265.262 62.5353C263.96 61.6057 263.867 61.4197 264.89 60.3042C265.541 59.6534 266.005 58.8168 266.749 57.8871C266.842 56.7716 267.121 55.656 267.028 54.5404C266.935 53.7967 266.47 53.053 267.214 52.4023C267.307 52.3093 267.214 51.9374 267.028 51.8445C266.935 51.7515 266.563 51.8445 266.47 51.9374C264.518 52.8671 262.473 53.2389 260.428 53.7038C259.591 53.8897 258.754 54.3545 257.825 54.5404C257.546 54.6334 257.174 54.2615 256.802 54.0756C256.988 53.8897 257.267 53.7038 257.453 53.7038C258.847 53.2389 260.242 52.7741 261.636 52.3093C263.031 51.7515 264.518 51.1008 265.819 50.45C266.377 50.1711 267.4 49.7063 267.028 48.7767C266.935 48.4048 266.005 48.4048 265.448 48.1259C265.076 47.94 264.611 47.847 264.518 47.5681C264.425 47.1963 264.611 46.9174 265.169 46.7315C266.47 46.1737 267.121 45.1511 267.121 43.5707C267.121 39.5733 268.051 35.5758 267.772 31.5784C267.586 28.9754 268.329 26.2795 267.958 23.5835C267.679 21.5383 267.958 19.4931 267.958 17.4479C267.958 17.262 268.051 16.9831 267.958 16.7972C266.842 14.0083 265.541 11.4053 263.124 9.26711C261.45 7.77969 259.684 7.22191 257.639 7.03599C254.664 6.85006 251.689 6.75709 248.807 6.75709C247.413 6.75709 246.018 7.12895 244.624 7.22191C242.021 7.5008 239.418 7.96562 236.815 7.5008C235.792 7.31488 234.677 7.03599 233.561 7.59377C233.003 7.87266 232.167 7.59377 231.609 7.40784C229.006 6.66413 226.31 6.19931 223.521 6.66413C222.684 6.85006 221.662 6.29228 220.732 6.10635C220.36 6.01338 219.895 5.82746 219.71 6.01338C217.85 7.68673 215.526 6.75709 213.481 7.12895C211.343 7.5008 209.112 7.22191 206.973 8.24451C205.3 9.08119 203.441 9.63897 201.675 10.1968C201.117 10.3827 200.466 10.4756 199.815 10.5686C199.629 10.5686 199.35 10.3827 199.165 10.1968C199.35 10.0108 199.443 9.73193 199.629 9.63897C200.931 8.98822 202.232 8.33748 203.627 7.77969C205.3 7.12895 207.066 6.57117 208.74 5.92042C209.019 5.82746 209.205 5.4556 209.484 5.26968C209.205 5.17671 208.926 5.08375 208.647 5.08375C205.951 4.99078 203.348 4.71189 200.652 4.71189C196.562 4.80486 192.471 4.61893 188.288 4.61893C185.964 4.61893 183.733 4.89782 181.501 5.4556C179.177 6.01338 176.853 6.29228 174.529 6.29228C172.484 6.29228 170.439 6.75709 168.394 6.94302C166.906 7.03599 165.326 7.40784 163.838 7.12895C161.328 6.57117 158.911 5.82746 156.401 5.64153C153.798 5.54857 151.288 5.17671 148.685 5.26968C145.896 5.36264 143.107 5.08375 140.319 4.34004C137.994 3.68929 135.391 3.68929 132.881 3.68929C131.859 3.68929 130.929 3.13151 129.907 3.4104C128.047 3.87522 126.188 3.96818 124.329 3.78226C123.771 3.68929 123.12 3.50337 122.562 3.68929C119.402 3.68929 88.3518 3.68929 85.377 3.22447C81.9373 2.75966 78.5907 3.59633 75.3369 3.96818C72.8269 4.24707 70.2239 4.52597 67.8998 3.87522C65.1109 3.03855 62.322 2.85262 59.5331 2.94558C56.9301 3.03855 54.3271 3.31744 51.7241 3.03855C51.3523 3.03855 50.8875 2.85262 50.6086 3.03855C48.3775 3.96818 45.9604 3.78226 43.8222 3.59633C40.9404 3.31744 38.1515 4.15411 35.2696 4.06115C32.9455 3.96818 30.5284 3.96818 28.1114 4.24707C26.8099 4.34004 25.6014 4.52597 24.2999 4.61893C21.1391 4.80486 18.2572 6.29228 15.1894 6.94302C14.3528 7.12895 13.2372 7.40784 12.9583 8.05859C11.6568 10.4756 9.14679 12.4279 10.1694 15.6816C10.2624 16.0535 10.1694 16.6112 10.0764 16.9831C9.79753 18.1916 10.1694 19.4002 9.79753 20.7016C9.51864 22.0031 9.51864 23.3976 9.42568 24.792C9.23975 26.6513 9.14679 28.5106 8.96086 30.4628C8.96086 31.0206 8.96086 31.5784 8.77493 32.0432C7.00862 35.2969 8.77493 38.5507 9.05382 41.7114C9.05382 41.9903 9.42568 42.1763 9.61161 42.3622C10.6342 43.3848 11.8427 43.4777 13.2372 43.3848C14.9105 43.2918 16.6768 43.3848 18.3502 43.5707C18.6291 43.5707 18.908 44.0355 19.1869 44.3144C18.908 44.4074 18.722 44.5003 18.4432 44.5933C18.0713 44.6863 17.6065 44.8722 17.2346 44.8722C15.1894 44.8722 13.1442 44.8722 11.099 44.7792C10.3553 44.7792 9.79753 44.9652 9.61161 45.7089C9.42568 46.7315 10.0764 47.0104 10.9131 47.1033C11.9357 47.1963 12.8653 47.1963 13.8879 47.3822C14.0739 47.3822 14.2598 47.6611 14.4457 47.847C14.2598 48.033 14.0739 48.2189 13.795 48.2189C12.8653 48.4978 11.8427 48.6837 10.9131 48.8696C10.5412 48.9626 9.8905 49.1485 9.79753 49.4274C9.42568 50.636 9.14679 51.9374 8.96086 53.2389C8.8679 53.9826 9.23975 53.6108 9.51864 53.4249C9.70457 53.3319 9.98346 53.4249 10.1694 53.3319C10.8201 52.6811 11.099 53.7038 11.5638 53.7038C11.3779 53.9826 11.099 54.2615 10.8201 54.4475C10.5412 54.6334 10.1694 54.7264 9.8905 54.8193C8.40308 55.1912 7.8453 56.3067 7.65937 57.6082C7.38048 61.3268 6.45084 64.9524 5.89306 68.6709C4.87046 75.0854 4.87046 81.5929 3.66193 88.0074C3.476 88.937 3.66193 89.8666 3.10415 90.7963C2.73229 91.354 3.19711 92.4696 3.19711 93.3992C3.10415 95.6304 4.31268 97.4896 5.05639 99.3489C5.8001 101.115 7.19455 102.417 9.51864 102.417C11.192 102.417 12.7724 102.417 14.4457 101.952C17.3276 101.115 20.3954 100.929 23.1843 99.9067C27.1817 98.4193 31.3651 97.6756 35.5485 97.5826C38.2444 97.4896 40.9404 97.3967 43.5433 97.2108C45.2167 97.1178 46.7971 96.56 48.4704 96.0952C53.3975 94.5148 57.4879 91.2611 62.5079 89.7737C64.2743 89.2159 65.9476 88.2862 67.7139 87.5425C67.9928 87.4496 68.4576 87.5425 68.7365 87.5425C68.5506 87.9144 68.7365 88.2862 68.0858 88.6581C64.2743 90.6103 59.9979 91.8189 56.4653 94.4218C56.0005 94.7937 54.9779 94.5148 54.8849 95.4444C55.4427 95.4444 56.0934 95.4444 56.6512 95.3515C59.0683 95.0726 61.3924 94.7007 63.4376 93.3063C64.3672 92.6555 65.6687 92.4696 66.7843 92.1907C67.0632 92.0978 67.435 92.3766 67.8069 92.4696C67.6209 92.7485 67.528 93.2133 67.2491 93.3063C66.3194 93.7711 65.2969 94.2359 64.3672 94.7007C64.1813 94.7937 64.0883 95.0726 63.9024 95.2585C64.1813 95.3515 64.4602 95.5374 64.6461 95.5374C66.0406 95.0726 67.435 94.9796 68.9224 95.0726C69.7591 95.0726 70.5958 94.8867 71.3395 94.5148C73.3847 93.7711 75.3369 92.8415 77.3821 92.0048C77.8469 91.8189 78.4977 91.9118 79.0555 91.9118C79.2414 91.9118 79.4273 92.0978 79.6133 92.1907C79.4273 92.3766 79.3344 92.5626 79.1484 92.6555C77.9399 93.2133 76.7314 93.8641 75.5229 94.4218C75.3369 94.5148 75.151 94.5148 74.8721 94.6078C75.058 94.7007 75.244 94.8867 75.4299 94.8867C75.8017 94.9796 76.1736 94.9796 76.5455 94.8867C78.2188 94.3289 79.9851 94.4218 81.6585 94.5148C84.2614 94.7007 86.8644 94.9796 89.3744 94.7007C91.7915 94.4218 122.098 94.6078 124.515 94.143C127.118 93.6781 129.814 94.143 132.51 94.2359C132.881 94.2359 133.253 94.4218 133.625 94.3289C136.693 93.6781 139.761 94.5148 142.829 94.3289C145.153 94.143 147.477 94.7007 149.801 94.8867C150.266 94.8867 150.73 95.0726 151.102 94.9796C153.519 94.3289 156.029 94.5148 158.539 94.3289C160.492 94.143 162.537 94.143 164.489 93.7711C167.092 93.2133 169.602 93.3992 172.205 93.3063C173.971 93.2133 175.738 93.4922 177.504 93.2133C181.037 92.6555 184.569 92.4696 188.102 92.8415C190.333 93.1204 192.471 93.6781 194.609 93.7711C197.584 94.05 200.559 94.05 203.441 94.143C206.509 94.2359 209.484 94.5148 212.551 94.4218C215.805 94.3289 218.966 94.2359 222.22 94.4218C223.986 94.5148 225.659 94.7937 227.425 95.1656C229.657 95.6304 232.167 95.5374 234.491 95.3515C237.094 95.1656 239.697 94.9796 242.3 95.1656C244.717 95.3515 247.134 95.9093 249.551 96.1882C251.317 96.3741 253.083 96.0022 254.85 96.2811C257.918 96.653 260.706 96.2811 263.402 94.7007C264.146 94.3289 264.89 93.7711 265.262 93.1204C267.121 90.1455 268.144 86.7988 268.794 83.3592C269.445 80.0125 269.073 76.6658 268.701 73.3191C268.33 71.1809 267.307 70.0654 265.819 69.6935ZM26.7169 86.241C25.3225 87.8214 23.5562 88.6581 21.325 88.5651C20.9532 88.5651 20.6743 88.4722 20.3024 88.3792C16.398 87.2636 15.2824 80.9421 19.1869 78.8969C19.4658 78.711 19.8376 78.618 20.1165 78.5251C23.5562 77.5954 23.5562 77.5954 27.4606 79.8265C27.8325 80.2914 28.2043 80.6632 28.4832 81.0351C29.5058 81.9647 27.3677 85.4973 26.7169 86.241ZM29.5988 17.6338C28.5762 19.4002 26.9028 19.772 25.2295 20.2368C22.9054 20.8876 20.9532 19.865 19.3728 18.2846C17.3276 16.3324 18.908 12.7997 20.6743 11.8701C20.9532 11.6842 21.2321 11.5912 21.511 11.4982C24.5788 10.6616 24.5788 10.6616 28.0184 12.6138C28.4832 13.1716 28.8551 13.6364 29.3199 14.0083C30.3425 15.0309 30.3425 16.4253 29.5988 17.6338ZM61.6713 15.7746C61.2064 16.0535 60.7416 16.4253 60.1838 16.5183C58.4175 16.9831 56.5583 17.4479 54.5131 17.8198C53.3975 17.7268 53.3045 17.169 53.9553 16.8901C55.3497 16.1464 56.8372 15.4957 58.4175 15.0309C59.3472 14.752 60.3698 14.8449 61.3924 14.8449C61.5783 14.8449 61.8572 15.0309 62.0431 15.2168C62.0431 15.3098 61.8572 15.6816 61.6713 15.7746ZM69.8521 8.70933C68.4576 8.89526 67.0632 9.08119 65.6687 9.26711C63.2517 9.63897 60.8346 10.1968 58.4175 10.5686C55.6286 11.0334 52.8397 11.6842 50.1438 12.8927C49.3071 13.2646 48.0986 12.9857 47.2619 13.3575C46.3323 13.8223 46.0534 13.1716 45.8674 12.7997C45.5885 12.242 45.9604 11.4982 46.6111 11.4053C47.8197 11.1264 49.1212 10.9405 50.6086 10.7545C52.3749 10.4756 53.8623 10.1038 55.3497 9.8249C59.1612 9.08119 62.8798 8.33748 66.6913 7.68673C67.7139 7.5008 68.8295 7.59377 69.8521 7.59377C70.131 7.59377 70.5028 8.05859 70.7817 8.24451C70.4099 8.33748 70.131 8.61637 69.8521 8.70933ZM132.788 84.4747C134.834 84.6607 136.879 83.5451 138.831 84.4747C137.158 85.6833 135.298 85.7762 133.532 85.7762C133.16 85.7762 132.788 85.4044 132.51 85.0325C132.51 85.1255 132.696 84.4747 132.788 84.4747ZM144.967 88.7511H144.781C142.643 88.3792 140.504 89.03 138.087 89.1229C135.67 89.4018 133.532 89.6807 131.301 89.8666C130.743 89.9596 130.093 89.8666 129.535 89.5877C129.256 89.4948 129.163 89.03 128.977 88.6581C129.256 88.5651 129.535 88.3792 129.814 88.2862C132.324 88.1003 134.927 88.1933 137.437 87.6355C138.831 87.3566 140.319 87.5425 141.806 87.5425C142.829 87.5425 143.851 87.3566 144.781 87.3566C145.153 87.3566 145.432 87.7285 145.803 87.8214C145.524 88.1933 145.246 88.4722 144.967 88.7511ZM214.225 10.1038C216.735 9.17415 219.338 8.61637 222.034 8.5234C222.405 8.5234 222.684 8.33748 223.242 8.15155C223.8 8.24451 224.265 8.24451 224.544 8.24451C224.73 8.24451 224.915 8.5234 224.915 8.61637C224.915 8.8023 224.823 9.08119 224.637 9.08119C224.358 9.26711 223.986 9.45304 223.707 9.45304C220.546 9.45304 217.664 10.6616 214.782 11.8701C214.225 12.056 213.388 12.7068 213.016 11.5912C212.737 10.8475 213.202 10.4756 214.225 10.1038ZM217.292 86.1481C217.107 86.5199 216.549 86.7988 216.084 87.0777C215.898 87.1707 215.619 87.0777 215.433 87.0777C213.853 86.7059 212.272 86.6129 210.599 86.5199C209.669 85.6833 210.413 84.8466 210.785 84.9395C212.644 85.3114 214.597 84.4747 216.456 85.3114C216.921 85.5903 217.664 85.4044 217.292 86.1481ZM232.074 80.8491C231.888 81.128 231.609 81.4999 231.237 81.5929C230.958 81.6858 230.493 81.4999 230.121 81.4999C228.634 81.8718 227.333 80.5703 225.752 80.9421C224.358 81.314 222.777 80.7562 221.29 80.6632C217.85 80.4773 214.318 80.1054 210.878 80.2914C208.74 80.3843 206.602 80.1054 204.371 80.1984C203.906 80.3843 203.534 80.4773 203.162 80.3843C200.559 80.2914 198.049 80.1984 195.446 80.1984C192.843 80.1984 190.24 80.2914 187.637 80.4773C186.986 80.4773 186.243 80.7562 185.592 80.9421C185.22 81.0351 184.755 81.128 184.29 81.128C183.547 81.128 182.803 80.9421 182.896 80.1054C182.989 79.2688 183.733 79.3617 184.476 79.2688C187.823 78.9899 191.077 79.3617 194.423 78.8039C196.097 78.5251 197.77 78.711 199.443 78.711C202.511 78.8039 205.672 78.9899 208.74 79.0828C211.994 79.1758 215.34 79.2688 218.594 78.9899C221.197 78.711 223.8 79.2688 226.31 79.2688C227.425 79.2688 228.541 79.6406 229.75 79.1758C230.4 78.8969 231.423 78.9899 231.888 79.9195C232.074 80.2914 232.167 80.6632 232.074 80.8491ZM248.528 22.282C247.692 21.8172 247.227 21.2594 246.948 20.6087C246.483 19.679 246.483 18.5635 246.204 17.355C245.646 14.1942 249.458 12.149 251.689 12.4279C252.061 12.5208 252.34 12.6138 252.712 12.7068C256.058 14.0083 256.058 14.0083 257.825 18.0987C257.825 18.6564 257.825 19.2142 257.918 19.679C258.011 20.1439 256.244 21.2594 255.872 21.5383C255.129 22.0031 254.571 22.6539 254.013 23.0257C253.827 23.2117 253.455 23.2117 253.176 23.2117C251.596 23.2117 249.923 23.0257 248.528 22.282ZM258.94 83.824C258.104 85.6833 256.709 86.0551 255.408 86.5199C253.548 87.1707 251.968 86.0551 250.759 84.2888C249.179 82.1506 250.48 78.3391 251.875 77.4095C252.061 77.2236 252.34 77.1306 252.526 77.0376C254.943 76.201 254.943 76.201 257.732 78.4321C258.103 79.0828 258.382 79.5477 258.754 80.0125C259.498 81.0351 259.498 82.5225 258.94 83.824Z" fill="#4D6C82"/>
<path d="M23.0913 80.0126C21.6968 79.9196 20.4883 80.1985 19.6516 81.407C18.2571 83.6381 19.1868 85.4974 22.0687 85.5904C22.7194 85.4045 23.3701 85.2185 24.1139 85.0326C25.4153 84.6607 26.5309 82.8015 25.8802 81.6859C25.3224 80.7563 24.3927 80.1055 23.0913 80.0126Z" fill="#999999"/>
<path d="M250.48 15.5884C251.875 15.1235 252.99 15.6813 254.013 16.518C254.757 17.0758 255.129 17.9125 255.222 18.6562C255.314 17.5406 255.036 16.425 254.013 15.5884C252.897 14.7517 251.782 14.1939 250.48 14.6587C248.9 15.2165 248.249 16.3321 248.435 17.4476C248.621 16.7039 249.365 16.0532 250.48 15.5884Z" fill="#CCCCCC"/>
<path d="M20.9531 15.1256C21.6968 14.0101 22.8123 13.8241 24.0209 13.9171C25.1364 14.0101 25.9731 14.5679 26.5309 15.4975C26.5309 15.5905 26.6238 15.6834 26.6238 15.6834C26.7168 15.3116 26.7168 14.8467 26.5309 14.5679C25.9731 13.6382 25.2294 13.0804 24.0209 12.9875C22.8123 12.8945 21.6968 13.1734 20.9531 14.196C20.4882 14.9397 20.3023 15.6834 20.4882 16.3342C20.4882 15.9623 20.6742 15.4975 20.9531 15.1256Z" fill="#CCCCCC"/>
<path d="M252.061 80.8494C252.619 79.7338 253.548 79.4549 254.478 79.5479C255.407 79.6409 256.058 80.2916 256.43 81.3142C256.43 81.4072 256.43 81.5001 256.523 81.5931C256.616 81.2212 256.616 80.7564 256.43 80.3846C256.058 79.362 255.407 78.7112 254.478 78.6183C253.455 78.5253 252.619 78.7112 252.061 79.9197C251.689 80.7564 251.503 81.5931 251.596 82.2438C251.689 81.779 251.782 81.3142 252.061 80.8494Z" fill="#CCCCCC"/>
<path d="M19.6519 82.3367C20.3956 81.1281 21.6971 80.8492 23.0916 80.9422C24.3931 81.0352 25.3227 81.6859 25.8805 82.7085C25.9734 82.8015 25.9734 82.8944 25.9734 82.9874C26.0664 82.5226 26.0664 82.1507 25.8805 81.7789C25.3227 80.7563 24.3931 80.1055 23.0916 80.0126C21.6971 79.9196 20.4886 80.1985 19.6519 81.407C19.0941 82.2437 18.9082 83.0804 19.0941 83.7311C19.1871 83.3593 19.373 82.8944 19.6519 82.3367Z" fill="#CCCCCC"/>
<path d="M147.57 16.4239C147.663 16.8887 147.756 17.3535 148.035 17.6324C148.407 18.1902 149.15 18.2832 149.801 18.3761C162.258 20.1424 174.901 16.7958 187.544 17.1676C186.986 12.7983 186.243 8.52199 185.499 4.24566C185.406 3.87381 185.313 3.40899 185.034 3.22306C184.755 3.03713 184.384 3.03713 184.105 3.03713C179.642 2.94417 175.18 4.1527 170.718 4.52455C167.092 4.80344 163.467 4.43159 159.841 4.05973C157.145 3.78084 154.449 3.59492 151.753 3.31602C150.173 3.1301 145.804 1.92157 144.595 3.1301C143.201 4.43159 145.153 7.49939 145.711 8.89384C146.454 11.3109 147.105 13.8209 147.57 16.4239Z" fill="#6A92A5" stroke="black" stroke-width="2" stroke-miterlimit="10"/>
<path d="M87.2363 94.0499C87.3292 94.3288 87.3292 94.7006 87.6081 94.9795C87.887 95.3514 88.4448 95.4444 88.9096 95.5373C98.0201 96.8388 107.223 94.4218 116.52 94.6077C116.055 91.4469 115.59 88.2862 115.032 85.1254C114.939 84.8465 114.939 84.5676 114.661 84.3817C114.475 84.1958 114.196 84.1958 114.01 84.1958C110.756 84.1028 107.502 85.0324 104.249 85.2184C101.646 85.4043 98.9497 85.1254 96.3467 84.9395C94.3945 84.7535 92.3493 84.5676 90.397 84.3817C89.2815 84.2887 86.0277 83.3591 85.0981 84.2887C84.0755 85.3113 85.5629 87.4495 85.9348 88.4721C86.3996 90.3314 86.8644 92.1906 87.2363 94.0499Z" fill="#365D75" stroke="black" stroke-width="2" stroke-miterlimit="10"/>
<path d="M91.2334 99.907C91.8842 100.093 92.442 100.093 93.0927 100.093C102.668 100.093 112.336 99.907 121.911 99.4422C120.052 98.7914 119.494 96.2814 117.728 95.3518C116.984 94.887 116.055 94.794 115.125 94.701C110.105 94.3292 105.085 94.5151 100.158 95.4448C96.2535 96.0955 92.256 97.1181 88.3516 95.7236C88.3516 97.304 89.4671 99.3492 91.2334 99.907Z" fill="#223E4C" stroke="black" stroke-width="2" stroke-miterlimit="10"/>
</svg>
